<?xml version="1.0" encoding="utf-8"?>
<!-- Generator: Adobe Illustrator 16.0.0, SVG Export Plug-In . SVG Version: 6.00 Build 0)  -->
<!DOCTYPE svg PUBLIC "-//W3C//DTD SVG 1.1//EN" "http://www.w3.org/Graphics/SVG/1.1/DTD/svg11.dtd">
<svg version="1.1" id="Layer_1" xmlns="http://www.w3.org/2000/svg" xmlns:xlink="http://www.w3.org/1999/xlink" x="0px" y="0px"
	 width="630px" height="378px" viewBox="0 0 630 378" enable-background="new 0 0 630 378" xml:space="preserve">
<g id="layer1">
	<g id="g2614" transform="matrix(-1,0,0,1,369.17331,0)">
		
			<path id="path2458" fill="#FF6B6B" d="
			M2.415,124.308l-23.469,28.906c57.198,41.896,32.864,187.626,96.281,214c44.873-4.41,84.894-25.47,113.781-56.906
			C131.178,240.842,71.368,174.707,2.415,124.308z"/>
		
			<path id="path2460" fill="#FF6B6B" d="
			M36.133,91.808l-25.281,25.281c83.763,71.008,136.757,130.496,182.344,187.188l0.75,0.438
			c26.265-31.077,42.094-71.249,42.094-115.094c0-3.546-0.108-7.068-0.313-10.563C204.012,115.061,84.86,136.037,36.133,91.808z"/>
		
			<path id="path2462" fill="#FF6B6B" d="
			M141.665,42.745c-39.814,0.397-90.396,26.012-95.313,40.656c1.618,36.761,170.604,25.988,188.376,86.656l0.25,0.031
			c-5.586-51.195-32.841-95.909-72.406-124.75C156.11,43.462,149.023,42.672,141.665,42.745z"/>
		
			<path id="path2464" fill="#FF6B6B" d="
			M57.602,11.183c-8.954,0-17.773,0.662-26.375,1.938c-26.544,28.734-12.38,54.549,1.875,62.438
			c12.166,8.664,43.543-45.581,122.219-35.219C127.241,21.912,93.673,11.183,57.602,11.183z"/>
		
			<path id="path2466" fill="#FF6B6B" d="
			M-23.742,163.683c-1.626,0.032-3.331,0.358-5.125,0.969c-23.257,18.249-65.801,106.07-40.938,149.844
			c0.005,0.005-0.005,0.026,0,0.031c32.392,33.03,77.524,53.531,127.406,53.531c1.372,0,2.729-0.001,4.094-0.031
			C7.96,329.191,19.658,174.346-23.742,163.683z"/>
		
			<path id="path2468" fill="#FF6B6B" d="
			M-66.679,141.151c-19.536,0.62-42.335,10.859-53.063,33.125l-0.563,1.344c-0.359,4.622-0.563,9.286-0.563,14
			c0,44.146,16.068,84.554,42.656,115.719C-102.819,228.09-27.944,160.17-36.085,152.62
			C-41.467,144.82-53.313,140.727-66.679,141.151z"/>
		
			<path id="path2470" fill="#FF6B6B" d="
			M-72.335,67.37c-25.212,26.784-42.28,61.337-47.125,99.688c18.968-31.722,47.262-43.233,93-19.25l23.469-29.5
			C-18.315,104.481-50.632,80.607-72.335,67.37z"/>
		
			<path id="path2472" fill="#FF6B6B" d="
			M23.508,14.433c-34.957,6.769-66.283,23.757-90.75,47.719l0.438,0.781c25.737,11.719,47.751,30.93,70.438,48.75l27.063-25.281
			C13.063,68.617-0.542,49.199,23.508,14.433z"/>
		
			<path id="path3272_1_" fill="#FF6B6B" d="
			M141.665,42.745c-39.814,0.397-90.396,26.012-95.313,40.656c1.618,36.761,170.604,25.988,188.376,86.656l0.25,0.031
			c-5.586-51.195-32.841-95.909-72.406-124.75C156.11,43.462,149.023,42.672,141.665,42.745z"/>
		
			<path id="path3282_1_" fill="#FF6B6B" d="
			M57.602,11.183c-8.954,0-17.773,0.662-26.375,1.938c-26.544,28.734-12.38,54.549,1.875,62.438
			c12.166,8.664,43.543-45.581,122.219-35.219C127.241,21.912,93.673,11.183,57.602,11.183z"/>
		
			<path id="path3292" fill="#FF6B6B" d="
			M23.508,14.433c-34.957,6.769-66.283,23.757-90.75,47.719l0.438,0.781c25.737,11.719,47.751,30.93,70.438,48.75l27.063-25.281
			C13.063,68.617-0.542,49.199,23.508,14.433z"/>
		
			<path id="path3302" fill="#FF6B6B" d="
			M-72.335,67.37c-25.212,26.784-42.28,61.337-47.125,99.688c18.968-31.722,47.262-43.233,93-19.25l23.469-29.5
			C-18.315,104.481-50.632,80.607-72.335,67.37z"/>
		
			<path id="path3312_1_" fill="#FF6B6B" d="
			M-66.679,141.151c-19.536,0.62-42.335,10.859-53.063,33.125l-0.563,1.344c-0.359,4.622-0.563,9.286-0.563,14
			c0,44.146,16.068,84.554,42.656,115.719C-102.819,228.09-27.944,160.17-36.085,152.62
			C-41.467,144.82-53.313,140.727-66.679,141.151z"/>
		
			<path id="path3322" fill="#FF6B6B" d="
			M-23.742,163.683c-1.626,0.032-3.331,0.358-5.125,0.969c-23.257,18.249-65.801,106.07-40.938,149.844
			c0.005,0.005-0.005,0.026,0,0.031c32.392,33.03,77.524,53.531,127.406,53.531c1.372,0,2.729-0.001,4.094-0.031
			C7.96,329.191,19.658,174.346-23.742,163.683z"/>
		
			<path id="path3332" fill="#FF6B6B" d="
			M2.415,124.308l-23.469,28.906c57.198,41.896,32.864,187.626,96.281,214c44.873-4.41,84.894-25.47,113.781-56.906
			C131.178,240.842,71.368,174.707,2.415,124.308z"/>
		
			<path id="path3342" fill="#FF6B6B" d="
			M36.133,91.808l-25.281,25.281c83.763,71.008,136.757,130.496,182.344,187.188l0.75,0.438
			c26.265-31.077,42.094-71.249,42.094-115.094c0-3.546-0.108-7.068-0.313-10.563C204.012,115.061,84.86,136.037,36.133,91.808z"/>
		
			<path id="path3352" fill="#FF6B6B" d="
			M36.133,91.808l-25.281,25.281c83.763,71.008,136.757,130.496,182.344,187.188l0.75,0.438
			c26.265-31.077,42.094-71.249,42.094-115.094c0-3.546-0.108-7.068-0.313-10.563C204.012,115.061,84.86,136.037,36.133,91.808z"/>
		
			<path id="path3362" fill="#FF6B6B" d="
			M141.665,42.745c-39.814,0.397-90.396,26.012-95.313,40.656c1.618,36.761,170.604,25.988,188.376,86.656l0.25,0.031
			c-5.586-51.195-32.841-95.909-72.406-124.75C156.11,43.462,149.023,42.672,141.665,42.745z"/>
		
			<path id="path3372" fill="#FF6B6B" d="
			M57.602,11.183c-8.954,0-17.773,0.662-26.375,1.938c-26.544,28.734-12.38,54.549,1.875,62.438
			c12.166,8.664,43.543-45.581,122.219-35.219C127.241,21.912,93.673,11.183,57.602,11.183z"/>
		
			<path id="path3382" fill="#FF6B6B" d="
			M23.508,14.433c-34.957,6.769-66.283,23.757-90.75,47.719l0.438,0.781c25.737,11.719,47.751,30.93,70.438,48.75l27.063-25.281
			C13.063,68.617-0.542,49.199,23.508,14.433z"/>
		
			<path id="path3392" fill="#FF6B6B" d="
			M-72.335,67.37c-25.212,26.784-42.28,61.337-47.125,99.688c18.968-31.722,47.262-43.233,93-19.25l23.469-29.5
			C-18.315,104.481-50.632,80.607-72.335,67.37z"/>
		
			<path id="path3402" fill="#FF6B6B" d="
			M2.415,124.308l-23.469,28.906c57.198,41.896,32.864,187.626,96.281,214c44.873-4.41,84.894-25.47,113.781-56.906
			C131.178,240.842,71.368,174.707,2.415,124.308z"/>
		
			<path id="path3412" fill="#FF6B6B" d="
			M-23.742,163.683c-1.626,0.032-3.331,0.358-5.125,0.969c-23.257,18.249-65.801,106.07-40.938,149.844
			c0.005,0.005-0.005,0.026,0,0.031c32.392,33.03,77.524,53.531,127.406,53.531c1.372,0,2.729-0.001,4.094-0.031
			C7.96,329.191,19.658,174.346-23.742,163.683z"/>
		
			<path id="path3422" fill="#FF6B6B" d="
			M-66.679,141.151c-19.536,0.62-42.335,10.859-53.063,33.125l-0.563,1.344c-0.359,4.622-0.563,9.286-0.563,14
			c0,44.146,16.068,84.554,42.656,115.719C-102.819,228.09-27.944,160.17-36.085,152.62
			C-41.467,144.82-53.313,140.727-66.679,141.151z"/>
	</g>
</g>
</svg>
