<?xml version="1.0" encoding="utf-8"?>
<!-- Generator: Adobe Illustrator 16.0.0, SVG Export Plug-In . SVG Version: 6.00 Build 0)  -->
<!DOCTYPE svg PUBLIC "-//W3C//DTD SVG 1.1//EN" "http://www.w3.org/Graphics/SVG/1.1/DTD/svg11.dtd">
<svg version="1.1" id="Layer_1" xmlns="http://www.w3.org/2000/svg" xmlns:xlink="http://www.w3.org/1999/xlink" x="0px" y="0px"
	 width="630px" height="549px" viewBox="0 0 630 549" enable-background="new 0 0 630 549" xml:space="preserve">
<g opacity="0.8">
	<path fill="#556270" d="M219.375,354.736c-0.063-0.454-0.111-0.832-0.157-1.199c-0.099-0.812-0.177-1.438-0.318-2.052
		c-2.557-10.978-2.607-21.316-0.157-31.626c0.632-2.655,0.314-6.097-0.811-8.77c-8.016-19.146-5.896-45.325,17.7-57.567
		c3.115-1.615,5.485-4.906,7.778-8.093c0.764-1.061,1.554-2.158,2.354-3.167c1.785-2.249,3.497-4.633,5.155-6.94
		c3.055-4.257,6.215-8.656,9.95-12.373c3.483-3.463,4.48-6.293,3.683-10.438l0.532-0.151l2.13,5.675
		c0.624-0.381,1.247-0.726,1.854-1.061c1.439-0.794,2.799-1.543,3.794-2.6c4.093-4.351,8.95-6.669,14.849-7.089
		c15.624-1.11,25.2-9.323,29.271-25.107l0.542,0.019l0.582,3.094l28.871-12.703c-10.168-6.233-20.639-9.393-31.135-9.393
		c-9.576,0-19.25,2.641-28.75,7.85c-4.443,2.436-8.482,5.71-12.757,9.176c-1.95,1.58-3.966,3.212-6.104,4.839l4.758,2.716
		L272,188.48l-9.764-2.721l16.959-13.604c-0.251-0.099-0.473-0.192-0.673-0.277c-0.527-0.222-0.876-0.368-1.212-0.381
		c-1.033-0.036-2.061-0.055-3.083-0.055c-18.901,0-35.354,6.293-48.899,18.706c-0.602,0.554-1.197,1.118-1.792,1.686
		c-1.614,1.538-3.286,3.651-5.125,4.957c-5.428,3.853-9.518,9.208-12.202,15.208c7.659,0,15.119,0,22.802,0
		c0.833-4,1.787-7.345,3.504-10.617c1.42-2.823,3.366-5.318,6.274-7.225c-0.04,0.105-0.08,0.224-0.119,0.328l0.684-0.718
		l-2.078,5.318c-1.518,3.989-3.041,7.924-4.592,11.916c-0.879,2.267-0.38,3.701,1.909,5.577c6.157,5.037,8.613,11.799,7.306,20.131
		c-1.239,7.889-7.313,14.207-14.129,14.71l-0.156-0.524c0.368-0.207,0.694-0.397,0.994-0.57c0.563-0.328,1.032-0.604,1.52-0.844
		c6.974-3.432,9.98-9.365,9.469-18.671c-0.364-6.573-4.055-11.276-11.283-14.376c-3.124-1.34-6.485-2.02-9.991-2.02
		c-14.272,0-27.648,11.242-29.818,25.064c-1.05,6.709-0.283,7.825,6.311,9.182c0.629,0.131,1.252,0.282,1.938,0.45
		c0.281,0.069,0.573,0.141,0.882,0.214c3.452-8.438,8.483-13.036,15.813-14.465l0.207,0.504
		c-9.069,6.022-13.628,15.422-17.189,23.761l-0.531-0.128l0.381-5.907c-2.188-0.614-4.335-0.926-6.389-0.926
		c-5.718,0-10.864,2.371-15.297,7.042c-11.961,12.609-14.884,25.653-8.938,39.876c0.994,2.377,1.614,4.946,2.212,7.432
		c0.279,1.157,0.559,2.316,0.875,3.458l0.077,0.28l-1.346,0.296l-5-15.564c-3.505,9.596-4.101,18.644-1.94,29.211
		c1.353,6.611,5.104,11.699,11.474,15.557c3.742,2.266,7.399,3.412,10.873,3.412c3.548,0,6.734-1.197,9.466-3.558
		c6.188-5.347,10.217-16.073,6.102-22.919c-1.969-3.275-3.525-6.849-5.031-10.301c-2.676-6.135-5.441-12.478-10.597-17.305
		c-0.832-0.777-1.366-1.803-2.105-3.221c-0.397-0.763-0.847-1.625-1.431-2.611l0.413-0.358l15.406,12.348l-5.825-0.395
		c0.947,1.646,1.83,3.218,2.682,4.731c1.899,3.381,3.692,6.572,5.652,9.578c4.577,7.021,6.15,14.093,4.55,20.441
		c-1.598,6.337-6.317,11.8-13.647,15.798c-0.039,0.038-0.095,0.23-0.131,0.373c-0.027,0.106-0.056,0.192-0.092,0.306
		c5.719,6.457,12.857,9.545,21.818,9.545C213.002,355.617,216.024,355.364,219.375,354.736z"/>
	<path fill="#556270" d="M476.8,246.207c-0.689-4.063-3.52-8.041-6.019-11.55l-0.341-0.48c-0.747-1.05-1.765-1.729-2.591-1.729
		c-1.087,0-1.894,1.117-2.332,3.232l-0.549-0.072c0.558-9.828-1.143-17.66-5.352-24.646c-4.144-6.885-9.412-10.972-16.108-12.491
		c-0.429-0.098-0.905-0.146-1.453-0.146c-0.715,0-1.481,0.076-2.37,0.163c-0.799,0.079-1.705,0.169-2.717,0.215l-0.143,0.007
		l-0.088-0.112c-5.923-7.502-15.099-11.646-26.535-11.98c-4.433-0.131-9.19-0.577-13.955-2.934
		c-4.273-2.106-8.804-3.669-13.063-5.044c-6.635-2.141-13.15-3.226-19.368-3.226c-9.582,0-18.667,2.571-27.008,7.641
		c-8.424,5.121-16.233,11.686-23.42,18.02c-6.02,5.305-12.884,10.315-22.267,11.058c-9.405,0.744-15.681,5.068-19.183,13.218
		l-0.227,0.525l-1.545-2.845c-8.256,4.567-14.591,11.407-20.513,22.139c-1.976,3.581-5.083,8.616-9.248,11.012
		c-17.355,9.985-25.727,30.659-19.902,49.157c2.038,6.477,5.913,10.512,12.196,12.697c4.52,1.572,9.276,3.321,13.389,5.874
		c5.361,3.328,10.582,5.016,15.515,5.016c7.459,0,14.433-3.847,20.731-11.429l0.472,0.281c-0.318,0.786-0.546,1.406-0.734,1.917
		c-0.314,0.855-0.523,1.362-0.85,1.856C276.627,328.521,269.82,332,260.994,332c-0.002,0-0.003,0-0.004,0
		c-0.397,0-0.795,0.053-1.197,0.037c-0.169-0.008-0.335,0.021-0.498,0.021c-3.597,0-6.129,1.44-8.466,4.78
		c-0.696,0.992-1.306,2.082-1.895,3.131c-0.276,0.49-0.552,0.983-0.837,1.466l-0.13,0.222l-1.601-0.759l4.807-10.511l-25.3-13.985
		l-1.605,0.87c-0.078,2.74-0.246,5.526-0.411,8.223c-0.358,5.961-0.73,12.125-0.17,18.088c3.057,32.627,28.768,35.162,36.575,35.162
		c7.455,0,15.039-1.84,21.392-5.182l-9.802-14.514c-8.509,6.229-13.208,8.444-17.887,8.444c-1.112,0-2.242-0.131-3.455-0.398
		l-0.86-0.188l0.813-0.34c1.165-0.484,2.365-0.947,3.582-1.418c2.835-1.094,5.768-2.227,8.479-3.724
		c2.804-1.547,5.473-3.486,8.053-5.362c1.16-0.844,2.324-1.689,3.508-2.508l0.428,0.16c4.656,18.385,25.299,32.246,48.014,32.246
		c7.032,0,13.837-1.406,19.705-4.07l-2.978-6.459l0.474-0.283c4.188,5.548,9.743,8.134,17.482,8.134
		c0.862,0,1.771-0.033,2.704-0.097c9.819-0.678,17.966-5.398,23.968-9.435c3.873-2.608,9.753-6.31,16.037-8.318
		c8.244-2.634,12.754-7.565,14.194-15.522c0.271-1.497,1.517-3.222,2.776-3.843c13.729-6.78,18.389-18.312,13.483-33.353
		l-11.493-1.163L418.862,311l21.341-3.604l0.186,0.516l-6.873,3.938l1.762,10.578c2.326,0.963,6.866,2.84,6.866,2.84l-0.378,1.512
		L441.536,327h-6.452c-2.957,10-5.74,15.157-15.474,21.568c-1.018,0.668-1.722,1.833-2.403,3.039
		c-0.295,0.519-0.599,1.016-0.929,1.51l0.825,1.222c1.427,0.002,2.855,0.022,4.285,0.054c1.476,0.029,2.949,0.057,4.421,0.057
		c1.962,0,3.583-0.057,5.106-0.178c13.172-1.05,24.002-6.713,30.491-15.941c6.162-8.764,7.808-20.018,4.636-31.683
		c-0.205-0.745-0.712-1.449-1.354-2.339c-0.359-0.496-0.767-1.063-1.191-1.73l-0.097-0.148l0.229-0.348
		c0.287-0.43,0.962-1.439,1.565-2.482C475.934,280.971,479.73,263.506,476.8,246.207z M373.266,205.315
		c23.704-13.449,37.302,5.12,35.673,22.791c-0.697-3.324-1.303-6.255-1.928-9.179c-3.189-14.896-20.009-18.383-31.859-10.195
		c-2.614,1.803-3.167,9.606-1.068,11.93c3.921,4.338,5.219,9.532,5.347,15.267c-2.774-5.063-5.456-9.956-8.301-15.14
		c-1.568,1.188-2.47,1.869-3.039,2.296c5.768-22.616-3.775-29.523-25.601-24.524C353.179,190.5,364.634,193.02,373.266,205.315z
		 M258.739,261c2.341-18,9.175-23.586,25.261-21.33c-16.27,3.023-19.425,6.292-23.15,24.439c-4.107-0.903-8.23-1.109-13.698-3.109
		C251.715,261,255.082,261,258.739,261z M269.426,305.628c-6.353,0.261-11.129-3.04-16.42-5.319
		c22.766,4.139,28.407,0.77,27.007-17.074c6.485-1.617,8.348-7.174,9.641-13.074c1.261-5.753,4.914-8.629,10.646-8.941
		c3.694-0.198,7.398-0.161,11.1-0.252c9.899-0.237,14.519-6.428,11.127-15.795c-1.367-3.777-4.367-6.962-6.404-10.953
		c2.677,2.776,5.812,5.257,7.889,8.426c1.63,2.491,3.053,3.039,5.705,2.371c8.635-2.182,12.354-8.957,9.801-18.135
		c6.222,8.239,0.174,18.854-12.905,22.258c-1.355,11.859-6.243,15.951-17.777,15.161c-1.177-0.079-2.346-0.229-3.522-0.308
		c-9.039-0.604-12.22,1.404-14.966,9.982c-1.452,4.532-3.353,8.473-8.649,10.043c0.357,1.063,0.652,1.959,0.958,2.852
		C286.292,297.516,280.664,305.169,269.426,305.628z M294.012,324.213c-3.715-3.114-7.436-6.23-11.571-9.699
		c4.463-1.51,7.938-2.686,11.417-3.857c0.086,0.143,0.172,0.285,0.258,0.43c-2.196,1.244-4.393,2.49-7.582,4.298
		c2.852,2.726,5.577,5.33,8.299,7.935C294.561,323.618,294.287,323.916,294.012,324.213z M297.502,307.094
		c7.505-16.576,15.789-20.956,27.154-14.406c-5.559-1.352-11.391-3.047-16.057,1.459
		C304.616,297.986,301.336,302.559,297.502,307.094z M325.117,373.729c7.344-2.483,14.361-4.855,21.419-7.24
		C341.22,373.845,333.408,374.09,325.117,373.729z M393.451,338.523c-0.563,0.435-1.473,0.424-2.283,0.545
		c-0.057,0.07-0.104,0.141-0.161,0.211c0.002,0.003,0.007,0.01,0.008,0.01c-0.003-0.003-0.005-0.006-0.008-0.009
		c-0.001,0-0.001,0.001-0.001,0.001l-0.025-0.031c-0.037-0.041-0.074-0.083-0.111-0.125c0.183,6.464-0.222,12.709-5.253,16.174
		c0.741-5.975,1.577-12.659,2.416-19.375c-0.386-0.436-0.77-0.868-1.155-1.304c0.428,0.101,0.854,0.206,1.279,0.308
		c-0.041,0.332-0.018,0.664-0.059,0.996c0.946,1.068,1.902,2.138,2.902,3.201c0-0.003,0-0.006,0-0.01L390.867,339
		c0.001,0,0.133,0,0.133,0v0.111v0.002c0-0.021,0.133-0.029,0.232-0.045c7.975-9.899,6.553-19.266-3.614-23.803
		c-5.593-2.49-10.091-1.534-13.912,3.296c-3.651,4.612-6.91,9.547-10.651,14.079c-4.559,5.511-10.055,9.379-17.811,8.725
		c-1.121-0.096-2.538,1.109-3.524,2.025c-2.697,2.506-4.964,5.555-7.892,7.724c-8.899,6.59-17.391,5.415-24.943-3.374
		c10.699,7.541,20.402,4.442,28.819-3.354c3.635-3.365,6.633-5.883,11.894-6.353c6.346-0.568,10.625-5.324,14.34-10.295
		c3.119-4.164,5.949-8.651,9.615-12.271c5.874-5.805,17.541-4.781,22.698,1.443C401.354,323.064,400.058,333.38,393.451,338.523z
		 M374.3,293.742c2.317-4.854,4.631-9.705,7.034-14.742c-0.038,8.268,8.711,3.232,10.773,7.58c-3.007-0.449-6.599-0.981-9.99-1.486
		c-2.464,3.241-4.758,6.261-7.051,9.278C374.81,294.159,374.557,293.949,374.3,293.742z M395.605,262.676
		c-1.336-3.244-1.84-6.819-2.969-10.161c-3.603-10.639-12.96-13.371-21.334-5.891c-5.906,5.28-10.99,11.154-11.187,20.015
		c-0.161,7.225-5.727,10.974-11.213,13.988c1.889,4.024,4.314,7.619,5.21,11.559c0.905,3.98,1.166,8.546,0.094,12.406
		c-1.06,3.816-3.489,7.863-6.516,10.36c-3.032,2.501-7.436,3.795-11.441,4.536c-3.543,0.654-7.363-0.182-11.062-0.355
		c-0.051,0.483-0.103,0.97-0.152,1.451c-0.521-1.509-1.037-3.02-1.652-4.815c2.948,0.744,5.598,1.685,8.325,2.058
		c13.493,1.842,24.308-10.997,20.625-24.365c-1.836-6.656-5.106-11.138-14.197-18.91c1.846,0.645,2.281,0.82,2.729,0.946
		c2.813,0.794,4.386,5.032,8.402,2.632c4.417-2.641,7.847-5.972,8.565-11.191c0.428-3.121,0.077-6.349,0.077-8.047
		c1.838-1.515,2.894-2.117,3.588-3.001c3.214-4.085,5.839-8.765,9.571-12.274c8.558-8.049,20.794-4.534,24.439,6.695
		c0.933,2.867,1.429,5.877,2.112,8.826c1.083,4.682,2.446,9.158,7.804,10.885C399.84,270.557,397.338,266.875,395.605,262.676z
		 M438.56,279.938c-8.716,11.802-20.415,15.886-32.248,10.845c16.543,2.486,25.786-5.445,30.939-18.391
		c4.313-10.842-2.339-18.145-10.714-24.577c3.942-1.902,7.334-3.538,10.727-5.173c0.158,0.218,0.314,0.438,0.475,0.659
		c-2.12,1.648-4.239,3.298-6.694,5.208c6.308,5.492,11.534,11.971,11.265,20.807C442.201,272.92,440.715,277.021,438.56,279.938z
		 M461.738,260.954c-0.387,4.862-0.75,9.495-1.118,14.131c-0.254-0.051-0.512-0.1-0.769-0.15c-0.635-5.188-1.267-10.379-1.95-15.964
		c1.888,0.222,3.705,0.438,6.625,0.78C462.812,260.49,462.015,260.832,461.738,260.954z"/>
	<path fill="#556270" d="M518.371,276l64.137-42.214l-74.045-20.322l47.957-59.967l-76.699,3.55l27.076-71.844l-71.845,27.075
		l3.55-76.699l-59.967,47.958L358.213,9.492L316,73.628L273.786,9.492l-20.322,74.045l-59.967-47.958l3.55,76.699l-71.844-27.075
		l27.075,71.844l-76.699-3.55l47.958,59.967l-74.045,20.322L113.629,276l-64.137,42.213l74.045,20.322l-47.958,59.967l76.699-3.551
		l-27.075,71.846l71.844-27.076l-3.55,76.699l59.967-47.957l20.322,74.045L316,478.371l42.213,64.137l20.322-74.045l59.967,47.957
		l-3.55-76.699l71.845,27.076l-27.076-71.846l76.699,3.551l-47.957-59.967l74.045-20.322L518.371,276z M490.472,256.654
		c-0.005,0.317-0.009,0.637-0.009,0.954c-0.295,15.591-3.459,29.177-9.678,41.538c-0.705,1.402-0.91,3.422-0.498,4.908
		c6.979,25.131-2.831,45.9-26.915,56.989c-8.675,3.993-17.831,5.985-27.99,6.091c-1.707,0.02-3.54,0.995-5.124,1.908
		c-2.459,1.416-4.923,2.926-7.308,4.383c-2.51,1.535-5.104,3.123-7.701,4.608c-1.475,0.845-3.05,1.578-4.572,2.288
		c-2.352,1.098-4.781,2.229-6.838,3.771c-11.985,8.975-22.686,13.156-33.671,13.156c-3.699,0-7.491-0.492-11.27-1.463
		c-0.238-0.061-0.509-0.092-0.802-0.092c-0.671,0-1.487,0.161-2.426,0.48c-6.844,2.326-13.869,3.505-20.88,3.505
		c-11.83,0.001-23.875-3.233-36.823-9.883c-2.003-1.03-3.81-1.509-5.686-1.509c-1.079,0-2.243,0.157-3.554,0.477
		c-7.689,1.89-14.433,2.809-20.613,2.809c-11.234,0-20.856-3.033-29.42-9.271c-2.051-1.495-3.832-3.468-5.554-5.376
		c-2.317-2.568-4.507-4.994-7.304-6.371c-2.475-1.221-5.538-1.401-8.501-1.576c-2.934-0.174-5.964-0.353-8.514-1.521
		c-10.435-4.785-20.71-10.382-30.648-15.793c-2.019-1.099-4.034-2.197-6.052-3.288c-10.482-5.674-13.543-16.869-14.266-25.264
		c-0.595-6.916-0.127-13.891,0.496-21.639l0.042-0.514c0.739-9.178,1.503-18.668,3.242-27.827
		c2.383-12.555,9.14-22.644,20.081-29.983c1.464-0.98,2.819-3.048,3.155-4.811c2.135-11.246,7.019-20.285,14.937-27.639
		c1.179-1.096,2.211-2.48,2.905-3.9c3.81-7.759,9.451-14.158,17.252-19.565c1.727-1.195,3.185-2.862,4.596-4.476
		c0.867-0.993,1.766-2.02,2.727-2.941c14.06-13.476,31.163-20.307,50.838-20.307c2.453,0,4.986,0.106,7.528,0.314
		c0.436,0.037,0.884,0.058,1.337,0.058c1.524,0,2.802-0.231,3.8-0.689c11.963-5.475,23.627-8.25,34.672-8.25
		c12.207,0,24.176,3.387,35.572,10.065c1.908,1.118,4.436,1.354,6.22,1.354c0.283,0,0.563-0.007,0.837-0.019
		c1.291-0.052,2.589-0.079,3.857-0.079c13.752,0,26.047,2.98,37.592,9.113c1.606,0.851,3.807,1.339,6.033,1.339
		c0.359,0,0.714-0.013,1.061-0.038c0.971-0.069,1.952-0.105,2.92-0.105c8.73,0,17.118,2.72,27.197,8.824l0.108,0.065
		c1.171,0.71,2.499,1.515,3.766,1.61c15.962,1.178,31.335,15.729,35.759,33.847c0.615,2.524,2.107,5.242,4.097,7.458
		c7.879,8.778,9.45,19.695,9.972,30.187C490.491,255.264,490.48,255.971,490.472,256.654z"/>
</g>
</svg>
