<?xml version="1.0" encoding="utf-8"?>
<!-- Generator: Adobe Illustrator 16.0.0, SVG Export Plug-In . SVG Version: 6.00 Build 0)  -->
<!DOCTYPE svg PUBLIC "-//W3C//DTD SVG 1.1//EN" "http://www.w3.org/Graphics/SVG/1.1/DTD/svg11.dtd">
<svg version="1.1" id="Layer_1" xmlns="http://www.w3.org/2000/svg" xmlns:xlink="http://www.w3.org/1999/xlink" x="0px" y="0px"
	 width="630px" height="549px" viewBox="0 0 630 549" enable-background="new 0 0 630 549" xml:space="preserve">
<g opacity="0.8">
	<path fill="#BF5151" d="M329.396,435.344c-15.128,0.002-30.529-4.134-47.086-12.638c-2.56-1.315-4.871-1.929-7.272-1.929
		c-1.379,0-2.866,0.2-4.542,0.61c-9.834,2.415-18.457,3.59-26.36,3.59c-14.364,0-26.67-3.878-37.618-11.854
		c-2.623-1.91-4.9-4.434-7.103-6.874c-2.963-3.284-5.762-6.386-9.339-8.146c-3.164-1.561-7.082-1.792-10.872-2.016
		c-3.749-0.222-7.625-0.451-10.886-1.944c-13.342-6.118-26.482-13.273-39.19-20.194c-2.58-1.405-5.158-2.81-7.738-4.205
		c-13.404-7.255-17.318-21.571-18.242-32.304c-0.761-8.844-0.163-17.764,0.635-27.671l0.053-0.656
		c0.945-11.735,1.922-23.871,4.146-35.583c3.047-16.054,11.687-28.954,25.678-38.341c1.871-1.253,3.605-3.897,4.036-6.151
		c2.728-14.38,8.975-25.939,19.099-35.342c1.506-1.4,2.826-3.172,3.716-4.987c4.87-9.921,12.085-18.104,22.06-25.019
		c2.208-1.528,4.072-3.661,5.875-5.723c1.11-1.271,2.258-2.584,3.487-3.762c17.978-17.23,39.85-25.967,65.009-25.967
		c3.136,0,6.375,0.136,9.626,0.402c0.556,0.047,1.13,0.073,1.71,0.073c1.948,0,3.583-0.296,4.858-0.881
		c15.296-7.001,30.212-10.55,44.335-10.55c15.609,0,30.914,4.331,45.486,12.871c2.44,1.43,5.673,1.729,7.954,1.729
		c0.362,0,0.72-0.008,1.069-0.022c1.652-0.066,3.311-0.101,4.934-0.101c17.583,0,33.307,3.812,48.068,11.653
		c2.055,1.087,4.867,1.711,7.716,1.711c0.46,0,0.913-0.016,1.355-0.047c1.24-0.09,2.496-0.137,3.733-0.137
		c11.164,0,21.891,3.479,34.778,11.283l0.139,0.084c1.497,0.908,3.194,1.938,4.815,2.059c20.41,1.506,40.068,20.112,45.725,43.281
		c0.787,3.229,2.696,6.703,5.237,9.536c10.076,11.226,12.084,25.187,12.753,38.601c0.045,0.89,0.032,1.795,0.021,2.668
		c-0.006,0.407-0.012,0.814-0.012,1.221c-0.377,19.937-4.424,37.309-12.375,53.116c-0.902,1.793-1.164,4.374-0.637,6.276
		c8.924,32.133-3.62,58.693-34.416,72.872c-11.093,5.106-22.801,7.654-35.792,7.789c-2.183,0.024-4.527,1.272-6.552,2.44
		c-3.146,1.811-6.297,3.739-9.345,5.604c-3.209,1.963-6.527,3.993-9.848,5.894c-1.887,1.079-3.9,2.018-5.848,2.926
		c-3.006,1.401-6.113,2.851-8.743,4.82c-15.326,11.478-29.007,16.824-43.056,16.824c-4.729,0-9.579-0.629-14.411-1.87
		c-0.305-0.078-0.649-0.118-1.024-0.118c-0.857,0-1.9,0.207-3.102,0.615C347.344,433.837,338.361,435.344,329.396,435.344z
		 M265.105,376.567c5.956,23.508,32.351,41.233,61.396,41.233c8.991,0,17.694-1.799,25.197-5.204l-3.809-8.26l0.606-0.362
		c5.355,7.095,12.459,10.4,22.355,10.4c1.102,0,2.266-0.042,3.457-0.124c12.557-0.867,22.975-6.902,30.648-12.064
		c4.954-3.335,12.471-8.067,20.508-10.636c10.541-3.366,16.308-9.674,18.15-19.85c0.346-1.914,1.938-4.119,3.549-4.913
		c17.557-8.67,23.516-23.415,17.242-42.648l-14.696-1.488l-0.023-0.704l27.289-4.607l0.236,0.658l-8.788,5.034l2.252,13.526
		c2.975,1.232,8.78,3.633,8.78,3.633l-0.483,1.729L478.68,342h-8.25c-3.781,14-7.34,19.584-19.786,27.782
		c-1.301,0.855-2.202,2.447-3.073,3.987c-0.377,0.665-0.766,1.351-1.188,1.983l1.056,1.587c1.823,0.002,3.651,0.041,5.479,0.08
		c1.887,0.041,3.772,0.08,5.654,0.08c2.508,0,4.581-0.07,6.528-0.226c16.845-1.342,30.692-8.58,38.99-20.382
		c7.88-11.207,9.984-25.596,5.927-40.512c-0.262-0.955-0.909-1.854-1.729-2.99c-0.459-0.636-0.98-1.357-1.523-2.213l-0.123-0.191
		l0.292-0.444c0.367-0.55,1.23-1.839,2.002-3.174c13.731-23.82,18.586-46.153,14.838-68.274c-0.882-5.195-4.501-10.281-7.695-14.768
		l-0.436-0.614c-0.956-1.343-2.257-2.211-3.314-2.211c-1.39,0-2.421,1.429-2.981,4.133l-0.702-0.092
		c0.714-12.566-1.46-22.581-6.843-31.515c-5.298-8.805-12.035-14.03-20.598-15.975c-0.549-0.124-1.157-0.185-1.859-0.185
		c-0.912,0-1.894,0.097-3.03,0.209c-1.021,0.101-2.18,0.215-3.474,0.272l-0.183,0.009l-0.112-0.144
		c-7.574-9.592-19.308-14.89-33.931-15.318c-5.668-0.168-11.752-0.738-17.845-3.75c-5.464-2.695-11.257-4.693-16.704-6.451
		c-8.484-2.737-16.816-4.125-24.767-4.125c-12.252,0-23.871,3.288-34.536,9.771c-10.771,6.547-20.757,14.942-29.946,23.041
		c-7.697,6.782-16.475,13.19-28.473,14.139c-12.026,0.952-20.05,6.481-24.529,16.902l-0.29,0.673l-1.976-3.638
		c-10.557,5.84-18.658,14.587-26.23,28.309c-2.526,4.578-6.499,11.018-11.825,14.081c-22.193,12.769-32.896,39.203-25.449,62.858
		c2.605,8.281,7.561,13.441,15.596,16.234c5.779,2.011,11.862,4.248,17.121,7.512c6.856,4.256,13.531,6.414,19.839,6.414
		c9.537,0,18.456-4.918,26.508-14.614l0.603,0.359c-0.407,1.006-0.699,1.8-0.938,2.451c-0.404,1.095-0.67,1.843-1.086,2.476
		C267.807,344.453,259.104,349,247.817,349c-0.002,0-0.003,0-0.005,0c-0.507,0-1.017-0.033-1.531-0.051
		c-0.216-0.01-0.428-0.025-0.637-0.025c-4.599,0-7.836,1.816-10.825,6.088c-0.89,1.267-1.669,2.649-2.423,3.99
		c-0.353,0.627-0.705,1.252-1.069,1.869l-0.165,0.279l-2.048-0.971l6.148-13.441l-32.352-17.886l-2.052,1.115
		c-0.103,3.502-0.317,7.065-0.525,10.514c-0.459,7.621-0.935,15.503-0.219,23.128c3.909,41.721,36.785,44.963,46.769,44.963
		c9.534,0,19.231-2.352,27.355-6.625l-12.534-18.56c-10.881,7.966-16.89,10.798-22.873,10.798c-1.422,0-2.868-0.167-4.418-0.509
		l-1.099-0.243l1.039-0.433c1.489-0.619,3.025-1.212,4.581-1.813c3.625-1.399,7.375-2.849,10.842-4.762
		c3.586-1.978,6.999-4.458,10.299-6.857c1.483-1.078,2.971-2.159,4.485-3.206L265.105,376.567z M154.897,366.795
		c7.313,8.256,16.44,12.205,27.899,12.205h0.001c3.652,0,7.517-0.324,11.802-1.127c-0.079-0.58-0.142-1.064-0.2-1.535
		c-0.126-1.035-0.227-1.838-0.409-2.621c-3.269-14.037-3.333-27.259-0.199-40.441c0.806-3.396,0.4-7.797-1.037-11.215
		c-10.251-24.48-7.541-57.956,22.632-73.611c3.983-2.065,7.015-6.274,9.945-10.348c0.978-1.356,1.988-2.76,3.012-4.05
		c2.282-2.876,4.473-5.926,6.591-8.876c3.907-5.441,7.947-11.068,12.726-15.82c4.453-4.43,5.728-8.048,4.708-13.348l0.681-0.192
		l2.725,7.255c0.796-0.486,1.594-0.927,2.369-1.354c1.841-1.016,3.58-1.976,4.851-3.325c5.234-5.563,11.445-8.528,18.986-9.064
		c19.981-1.421,32.225-11.922,37.43-32.105l0.693,0.023l0.744,3.957l36.918-16.244c-13.002-7.97-26.393-12.01-39.813-12.01
		c-12.247,0-24.615,3.377-36.764,10.036c-5.682,3.115-10.845,7.302-16.312,11.732c-2.495,2.021-5.071,4.109-7.808,6.188l6.085,3.475
		l-1.264,0.899l-12.485-3.479l21.687-17.396c-0.321-0.126-0.604-0.245-0.861-0.354c-0.676-0.285-1.121-0.472-1.549-0.488
		c-1.321-0.046-2.636-0.068-3.942-0.068c-24.169,0-45.208,8.047-62.529,23.919c-0.771,0.707-1.531,1.431-2.292,2.155
		c-2.065,1.966-4.201,4.427-6.555,6.097C186.11,180.817,180.702,187,177.284,196h29.384c1.984-9,4.291-17.876,12.561-23.295
		l0.917-0.814l-2.659,6.877c-1.94,5.103-3.887,10.17-5.87,15.275c-1.125,2.897-0.487,4.749,2.441,7.147
		c7.872,6.441,11.014,15.097,9.341,25.754c-1.585,10.086-9.352,18.169-18.067,18.812l-0.2-0.666c0.471-0.265,0.888-0.508,1.271-0.73
		c0.719-0.418,1.321-0.77,1.944-1.076c8.917-4.389,12.764-11.977,12.107-23.875c-0.464-8.405-5.183-14.418-14.427-18.384
		c-3.995-1.713-8.294-2.582-12.775-2.582c-18.25,0-35.355,14.378-38.129,32.051c-1.344,8.579-0.363,10.007,8.068,11.741
		c0.805,0.166,1.602,0.361,2.479,0.576c0.359,0.088,0.732,0.179,1.125,0.272c4.417-10.788,10.85-16.669,20.223-18.497l0.265,0.646
		c-11.596,7.702-17.426,19.721-21.98,30.383l-0.681-0.163l0.489-7.555c-2.797-0.785-5.543-1.183-8.169-1.183
		c-7.312,0-13.894,3.03-19.562,9.004c-15.292,16.125-19.031,32.804-11.429,50.99c1.271,3.04,2.063,6.325,2.829,9.503
		c0.357,1.48,0.714,2.962,1.118,4.422l0.099,0.359l-1.72,0.378l-6.396-19.903c-4.48,12.271-5.242,23.84-2.479,37.354
		c1.728,8.453,6.527,14.959,14.669,19.891c4.785,2.897,9.462,4.365,13.904,4.365c4.539,0,8.612-1.531,12.105-4.55
		c7.913-6.838,13.063-20.555,7.802-29.307c-2.518-4.189-4.509-8.757-6.435-13.173c-3.42-7.844-6.956-15.954-13.549-22.127
		c-1.063-0.994-1.748-2.306-2.693-4.12c-0.508-0.974-1.084-2.078-1.828-3.337l0.527-0.458l19.699,15.788l-7.449-0.504
		c1.212,2.104,2.342,4.115,3.43,6.051c2.429,4.321,4.723,8.403,7.228,12.246c5.853,8.98,7.865,18.021,5.818,26.141
		c-2.042,8.102-8.077,15.086-17.451,20.2c-0.049,0.049-0.12,0.294-0.167,0.477C154.979,366.539,154.942,366.648,154.897,366.795z"/>
	<path fill="#BF5151" d="M540.889,253.674c-0.351,18.525-3.947,36.274-12.337,52.956c-0.931,1.849-1.213,4.547-0.662,6.532
		c8.894,32.025-3.428,58.275-34.223,72.453c-11.309,5.207-23.197,7.629-35.647,7.757c-2.262,0.025-4.666,1.301-6.725,2.488
		c-6.463,3.721-12.723,7.795-19.192,11.496c-4.795,2.743-10.263,4.501-14.627,7.771c-17.103,12.81-35.324,20.505-57.166,14.894
		c-1.318-0.337-2.971,0.044-4.328,0.506c-25.78,8.761-50.127,3.874-73.509-8.136c-4.222-2.17-7.651-2.428-12.061-1.348
		c-22.238,5.461-44.104,6.059-63.685-8.207c-6.003-4.372-10.089-11.898-16.494-15.053c-6.357-3.135-15.264-0.985-21.767-3.963
		c-15.996-7.335-31.423-16.012-46.907-24.39c-11.757-6.364-16.925-18.87-18.056-32.021c-0.786-9.126-0.104-18.44,0.635-27.612
		c0.975-12.106,1.932-24.294,4.193-36.202c3.05-16.072,11.741-28.863,25.527-38.112c1.976-1.323,3.741-4.042,4.187-6.381
		c2.616-13.79,8.671-25.563,18.992-35.146c1.531-1.423,2.876-3.221,3.793-5.093c5.061-10.31,12.516-18.348,21.943-24.881
		c3.604-2.497,6.181-6.43,9.406-9.521c20.84-19.973,45.842-27.807,74.36-25.466c2.228,0.185,4.771,0.065,6.745-0.84
		c30.237-13.838,60.026-14.965,89.494,2.306c2.558,1.498,6.148,1.882,9.219,1.756c18.639-0.754,36.244,2.706,52.82,11.51
		c2.663,1.412,6.21,1.926,9.263,1.705c14.205-1.029,26.522,3.964,38.303,11.097c1.579,0.957,3.354,2.063,5.11,2.192
		c19.323,1.426,39.473,18.705,45.408,43.013c0.847,3.474,2.907,7.002,5.316,9.688c9.888,11.016,11.968,24.433,12.662,38.381
		C540.943,251.087,540.889,252.382,540.889,253.674z M472.823,177.995c-8.119-10.284-20.293-15.045-34.198-15.453
		c-6.245-0.186-12.01-0.902-17.698-3.714c-5.351-2.64-11.063-4.635-16.753-6.471c-20.65-6.663-40.961-5.648-59.596,5.681
		c-10.725,6.52-20.54,14.744-29.996,23.078c-8.322,7.334-16.955,13.157-28.267,14.051c-11.445,0.906-20.057,6.018-24.828,17.117
		c-0.699-1.289-1.213-2.229-1.797-3.309c-12.328,6.724-20.196,16.867-26.683,28.621c-2.903,5.261-6.726,11.089-11.69,13.944
		c-22.212,12.779-33.228,39.08-25.611,63.272c2.59,8.231,7.61,13.609,15.817,16.464c5.854,2.037,11.823,4.233,17.051,7.478
		c17.055,10.586,32.95,8.413,46.808-8.275c-1.092,2.697-1.363,3.884-1.992,4.839c-6.415,9.728-15.965,13.65-27.095,13.25
		c-5.625-0.201-8.934,2.187-11.766,6.233c-1.311,1.864-2.347,3.92-3.507,5.888c-0.481-0.229-0.957-0.455-1.438-0.682
		c1.963-4.283,3.921-8.572,6.138-13.422c-10.634-5.878-21.722-12.009-32.811-18.139c-0.803,0.438-1.601,0.872-2.402,1.307
		c-0.317,11.304-1.797,22.715-0.75,33.889c4.486,47.879,49.212,52.248,74.993,38.434c-4.31-6.379-8.637-12.794-12.961-19.193
		c-13.256,9.739-19.623,12.143-27.303,10.447c4.98-2.073,10.487-3.849,15.458-6.593c5.188-2.861,9.858-6.655,14.814-10.083
		c8.585,33.883,55.294,50.962,87.41,36.117c-1.314-2.853-2.639-5.717-3.957-8.582c6.806,9.017,15.938,11.117,26.12,10.415
		c11.514-0.794,21.35-5.751,30.821-12.123c6.34-4.268,13.206-8.287,20.418-10.592c10.43-3.331,16.462-9.459,18.393-20.125
		c0.313-1.731,1.81-3.896,3.356-4.659c17.81-8.794,23.843-23.646,17.351-43.296c-4.937-0.502-9.879-0.998-14.927-1.513
		c9.007-1.519,17.633-2.978,27.29-4.607c-3.585,2.055-6.306,3.613-9.002,5.158c0.821,4.927,1.593,9.558,2.325,13.965
		c3.043,1.261,5.854,2.424,8.668,3.586c-0.118,0.417-0.233,0.834-0.348,1.25c-2.885,0-5.771,0-8.525,0
		c-3.858,15.019-7.423,19.747-19.706,27.839c-2.006,1.317-3.02,4.136-4.493,6.263c0.432,0.648,0.862,1.298,1.292,1.943
		c5.963,0,11.955,0.406,17.88-0.065c34.202-2.725,53.896-29.494,45.231-61.341c-0.428-1.57-1.765-2.892-3.296-5.3
		c0.162-0.252,1.236-1.81,2.18-3.441c12.253-21.255,19.058-43.859,14.881-68.511c-0.937-5.512-4.809-10.766-8.192-15.529
		c-1.813-2.55-5.587-4.431-6.933,2.056c0.668-11.756-1.153-22.191-6.894-31.718c-4.845-8.052-11.447-14.009-20.822-16.138
		C479.042,177.201,476.545,177.83,472.823,177.995z M194.997,378.225c-0.291-2.066-0.375-3.344-0.662-4.572
		c-3.124-13.415-3.415-26.763-0.199-40.286c0.845-3.56,0.375-8.035-1.054-11.438c-10.678-25.499-6.849-57.95,22.468-73.16
		c5.415-2.809,9.006-9.373,13.071-14.494c6.499-8.187,11.947-17.364,19.29-24.666c4.414-4.391,5.887-8.052,4.806-13.667
		c0.876,2.337,1.751,4.671,2.877,7.66c2.821-1.78,5.726-2.915,7.658-4.967c5.162-5.485,11.386-8.429,18.753-8.954
		c20.333-1.445,32.583-12.342,37.75-32.37c0.433,2.303,0.771,4.103,0.827,4.396c12.805-5.634,25.563-11.248,37.945-16.696
		c-24.555-15.283-50.909-16.92-77.508-2.337c-8.432,4.622-15.629,11.511-24.592,18.273c3.229,1.845,4.65,2.652,6.068,3.464
		c-0.226,0.159-0.45,0.322-0.673,0.48c-4.562-1.268-9.123-2.541-11.655-3.247c6.403-5.139,13.755-11.03,21.634-17.353
		c-1.562-0.56-2.329-1.055-3.105-1.083c-25.415-0.88-47.83,6.631-66.724,23.944c-2.894,2.652-5.629,5.538-8.812,7.797
		c-7.696,5.465-13.104,12.518-16.409,20.553c10.16,0,20.022,0,30.197,0c2.082-8.622,4.394-17.631,12.476-22.926
		c-2.695,7.064-5.382,14.189-8.137,21.285c-1.281,3.3-0.24,5.293,2.548,7.577c7.989,6.537,10.802,15.334,9.216,25.437
		c-1.542,9.811-9.225,17.893-17.743,18.521c1.347-0.759,2.25-1.327,3.198-1.796c10.155-4.998,12.879-13.794,12.304-24.212
		c-0.529-9.597-6.396-15.154-14.642-18.689c-21.049-9.031-47.737,6.44-51.394,29.738c-1.376,8.787-0.289,10.367,8.347,12.145
		c1.213,0.249,2.409,0.567,3.891,0.917c3.833-9.513,9.699-16.541,20.077-18.563c-11.186,7.43-17.02,18.621-22.111,30.539
		c0.163-2.506,0.322-5.014,0.508-7.842c-11.261-3.255-20.792-0.139-28.362,7.842c-13.92,14.678-19.828,31.445-11.499,51.369
		c1.841,4.406,2.649,9.247,3.933,13.884c-0.346,0.077-0.692,0.155-1.039,0.229c-2.043-6.356-4.085-12.711-6.611-20.574
		c-5.232,13.779-5.413,25.983-2.852,38.51c1.87,9.149,7.158,15.476,14.833,20.124c9.904,5.994,19.397,5.852,26.425-0.221
		c8.329-7.197,13.076-21.105,7.874-29.758c-6.987-11.627-9.683-25.674-20.045-35.376c-1.583-1.48-2.356-3.823-4.458-7.379
		c7.22,5.788,12.917,10.353,18.817,15.08c-1.868-0.125-3.595-0.241-6.986-0.472c4.123,7.126,7.283,13.187,11,18.889
		c11.776,18.07,7.481,35.478-11.506,45.836c-0.273,0.147-0.3,0.74-0.516,1.325C165.328,379.285,179.076,381.265,194.997,378.225z"/>
	<path fill="#FF6B6B" d="M326.5,418.514c-29.155,0-55.68-17.708-61.959-41.274c-1.364,0.951-2.708,1.93-4.049,2.905
		c-3.317,2.412-6.747,4.908-10.373,6.906c-3.493,1.928-7.25,3.38-10.883,4.783c-1.188,0.459-2.363,0.913-3.516,1.379
		c1.072,0.18,2.098,0.267,3.11,0.267c5.865,0,11.819-2.847,22.752-10.881l0.298-0.219l13.386,19.825l-0.347,0.187
		c-8.294,4.443-18.252,6.892-28.038,6.892c-10.135,0.002-43.511-3.286-47.477-45.603c-0.719-7.688-0.242-15.603,0.22-23.255
		c0.211-3.505,0.43-7.128,0.531-10.678l0.005-0.204l2.75-1.5l33.27,18.394l-6.128,13.403l0.825,0.392
		c0.301-0.517,0.595-1.039,0.888-1.562c0.766-1.362,1.557-2.771,2.468-4.07c3.143-4.481,6.556-6.394,11.411-6.394
		c0.217,0,0.438,0.003,0.663,0.012c0.505,0.018,1.007,0.027,1.505,0.027c11.035,0,19.541-4.415,25.281-13.121
		c0.367-0.558,0.605-1.206,1.001-2.282c0.064-0.175,0.132-0.361,0.206-0.558c-7.842,8.825-16.48,13.295-25.704,13.295
		c-6.442,0-13.244-2.193-20.216-6.521c-5.182-3.22-11.227-5.442-16.975-7.444c-8.151-2.836-13.398-8.297-16.042-16.693
		c-7.546-23.968,3.293-50.752,25.773-63.686c5.17-2.976,9.07-9.306,11.554-13.809c7.721-13.987,15.995-22.857,26.826-28.761
		l0.313-0.17l1.622,2.982c4.646-10.256,12.777-15.709,24.833-16.664c11.789-0.929,20.453-7.261,28.061-13.963
		c9.211-8.118,19.226-16.536,30.047-23.115c10.779-6.554,22.522-9.876,34.905-9.876c8.022,0,16.428,1.4,24.982,4.161
		c5.486,1.771,11.318,3.783,16.801,6.49c5.981,2.955,11.972,3.514,17.554,3.677c14.769,0.431,26.642,5.77,34.354,15.442
		c1.202-0.059,2.29-0.166,3.255-0.261c1.155-0.115,2.152-0.213,3.1-0.213c0.756,0,1.416,0.065,2.017,0.201
		c8.761,1.991,15.646,7.324,21.049,16.302c5.079,8.438,7.342,17.81,7.049,29.313c0.851-1.747,1.968-2.182,2.868-2.182
		c1.553,0,3.028,1.296,3.891,2.51l0.446,0.628c3.233,4.544,6.898,9.696,7.808,15.052c3.778,22.284-1.103,44.771-14.921,68.742
		c-0.777,1.346-1.646,2.646-2.019,3.201l-0.044,0.067c0.486,0.751,0.951,1.396,1.37,1.976c0.865,1.198,1.549,2.146,1.842,3.229
		c4.116,15.123,1.975,29.721-6.028,41.104c-8.421,11.978-22.455,19.322-39.517,20.682c-1.964,0.157-4.055,0.23-6.582,0.23
		c-1.888,0-3.778-0.064-5.67-0.106c-1.886-0.042-3.771-0.106-5.655-0.106h-0.189l-1.534-2.277l0.138-0.185
		c0.458-0.66,0.881-1.401,1.291-2.126c0.912-1.611,1.856-3.274,3.299-4.225c12.477-8.217,15.767-13.011,19.557-27.774l0.069-0.413
		h8.529l0.192-0.537l-8.558-3.469l-2.399-14.367l7.488-4.269l-22.73,3.845l12.538,1.273l0.072,0.222
		c6.515,19.724,0.451,34.847-17.532,43.729c-1.407,0.695-2.856,2.712-3.165,4.402c-1.894,10.466-7.813,16.948-18.632,20.402
		c-7.931,2.535-15.4,7.233-20.33,10.546c-7.745,5.213-18.268,11.309-30.994,12.183c-1.211,0.084-2.394,0.127-3.515,0.127
		c-9.093,0-15.889-2.731-21.159-8.557l2.96,6.416l-0.323,0.148C344.652,416.641,335.723,418.514,326.5,418.514z M331.755,401.877
		c1.144,0.036,2.138,0.053,3.087,0.053c7.687,0,15.567-1.033,21.378-8.324L331.755,401.877z M311.224,370.757
		c4.911,4.982,10.122,7.505,15.521,7.505c4.532,0,9.241-1.786,13.998-5.31c2.267-1.679,4.268-3.827,6.202-5.904
		c1.234-1.325,2.512-2.696,3.855-3.945c1.347-1.253,3.085-2.69,4.584-2.69c0.065,0,0.13,0.002,0.193,0.008
		c0.715,0.06,1.43,0.09,2.125,0.09c7.604,0,14.067-3.532,20.34-11.12c2.644-3.198,5.137-6.617,7.55-9.924
		c1.948-2.672,3.965-5.435,6.053-8.074c3.222-4.07,6.809-6.048,10.968-6.048c2.245,0,4.607,0.567,7.225,1.733
		c5.965,2.659,9.755,6.69,10.96,11.656c1.365,5.625-0.588,12.054-5.652,18.632c0.724-0.077,1.395-0.17,1.831-0.51
		c4.059-3.158,6.726-8.073,7.317-13.484c0.557-5.095-0.824-10.067-3.788-13.646c-3.385-4.085-9.354-6.622-15.576-6.622
		c-5.202,0-9.794,1.706-12.929,4.803c-3.438,3.395-6.349,7.463-9.164,11.396c-1.023,1.43-2.047,2.858-3.094,4.258
		c-4.848,6.479-10.454,12.575-18.592,13.302c-6.524,0.587-10.174,3.562-14.998,8.033c-7.1,6.577-14.284,9.91-21.356,9.91
		C320.277,374.806,315.723,373.445,311.224,370.757z M407.628,377.818c5.795-4.506,6.12-12.214,5.913-19.77l-3.023-3.411
		L407.628,377.818z M290.006,338.354l0.585-0.639l-10.708-10.235l9.759-5.531l-13.688,4.626L290.006,338.354z M329.92,331.995
		c1.459,0.069,2.951,0.221,4.396,0.366c1.958,0.198,3.984,0.403,5.93,0.403c1.384,0,2.607-0.103,3.737-0.312
		c6.527-1.207,11.259-3.08,14.469-5.727c3.667-3.023,6.814-8.03,8.212-13.066c1.225-4.402,1.181-9.975-0.121-15.69
		c-0.781-3.436-2.478-6.647-4.272-10.047c-0.794-1.505-1.616-3.063-2.366-4.662l-0.143-0.302l0.293-0.159
		c6.74-3.702,13.948-8.418,14.153-17.584c0.258-11.616,7.085-19.289,14.425-25.848c4.027-3.599,8.386-5.502,12.603-5.502
		c6.755,0,12.456,4.93,15.25,13.186c0.622,1.839,1.103,3.757,1.567,5.612c0.617,2.461,1.254,5.006,2.225,7.355
		c1.844,4.472,4.531,9.041,10.479,9.235c-5.592-2.563-7.263-7.865-8.576-13.546c-0.263-1.132-0.504-2.271-0.744-3.409
		c-0.552-2.604-1.122-5.294-1.949-7.844c-2.746-8.456-9.654-13.919-17.598-13.919c-4.725,0-9.244,1.902-13.071,5.504
		c-3.115,2.93-5.678,6.578-8.156,10.106c-1.298,1.847-2.64,3.756-4.051,5.55c-0.597,0.759-1.383,1.357-2.472,2.187
		c-0.578,0.44-1.251,0.952-2.038,1.598c0.005,0.545,0.035,1.201,0.067,1.938c0.099,2.228,0.232,5.278-0.174,8.235
		c-0.807,5.886-4.342,10.516-11.123,14.567c-1.104,0.659-2.125,0.98-3.123,0.98c-1.902,0-3.335-1.18-4.72-2.319
		c-1.042-0.856-2.024-1.666-3.176-1.99c-0.349-0.099-0.693-0.221-1.437-0.486c-0.092-0.033-0.189-0.068-0.295-0.105
		c10.51,9.155,14.521,14.73,16.832,23.124c2.144,7.776,0.604,15.87-4.222,22.204c-4.662,6.12-11.654,9.63-19.185,9.63
		c-1.109,0-2.239-0.077-3.357-0.23c-2.392-0.324-4.708-0.981-7.161-1.677c-0.943-0.268-1.902-0.539-2.885-0.797
		c0.494,1.446,0.943,2.754,1.379,4.023l0.062-0.6L329.92,331.995z M240.286,309.105c0.679,0.321,1.352,0.648,2.013,0.969
		c4.948,2.402,9.621,4.67,15.408,4.67c0.291,0,0.584-0.007,0.881-0.019c7.001-0.288,12.494-2.839,15.468-7.183
		c2.926-4.274,3.314-9.923,1.124-16.336c-0.251-0.732-0.497-1.467-0.761-2.258l-0.583-1.74l0.353-0.105
		c6.244-1.85,8.771-6.196,10.825-12.608c3.221-10.069,6.963-13.14,16.016-13.14c1.057,0,2.195,0.042,3.481,0.128
		c0.786,0.052,1.57,0.129,2.354,0.206c0.717,0.071,1.434,0.142,2.151,0.192c1.156,0.079,2.268,0.118,3.305,0.118
		c12.129,0.001,17.472-5.381,19.051-19.196l0.027-0.242l0.236-0.062c9.309-2.424,16.255-7.865,18.581-14.556
		c1.374-3.956,0.952-8.041-1.169-11.688c1.086,5.229,0.535,9.908-1.621,13.622c-2.27,3.907-6.296,6.687-11.646,8.037
		c-0.925,0.233-1.713,0.347-2.41,0.348c-2.101,0-3.626-1.023-5.267-3.529c-1.835-2.798-4.379-5.226-6.837-7.571
		c-0.468-0.445-0.941-0.897-1.412-1.355c0.798,1.332,1.654,2.608,2.491,3.856c1.784,2.661,3.471,5.175,4.489,7.989
		c2.116,5.84,1.893,10.89-0.645,14.602c-2.607,3.815-7.417,5.915-13.908,6.072c-1.647,0.039-3.295,0.06-4.943,0.081
		c-3.032,0.037-6.167,0.076-9.238,0.239c-7.281,0.397-11.751,4.152-13.287,11.157c-1.604,7.325-3.879,14.657-12.3,16.909
		c0.771,10.177-0.319,16.061-3.631,19.645c-2.713,2.936-7.004,4.303-13.502,4.303C251.412,310.66,246.567,310.163,240.286,309.105z
		 M317.328,295.164c-8.085,0-14.902,6.191-21.333,19.436c0.904-1.102,1.788-2.2,2.655-3.276c3.226-4.005,6.272-7.788,9.794-11.184
		c2.678-2.584,5.908-3.841,9.875-3.841c2.695,0,5.478,0.563,8.215,1.213C323.237,295.936,320.206,295.164,317.328,295.164z
		 M393.627,300.174l8.919-11.735l12.242,1.82c-1.156-1.557-3.334-1.762-5.626-1.978c-3.39-0.32-7.195-0.68-7.75-5.827l-8.264,17.324
		C393.308,299.91,393.467,300.042,393.627,300.174z M436.52,296.807c3.276,1.09,6.566,1.642,9.813,1.642
		c10.546,0,20.317-5.682,28.259-16.432c2.778-3.758,4.589-8.886,4.724-13.382c0.363-11.995-7.442-20.372-14.283-26.327l-0.325-0.283
		l8.632-6.717c-0.077-0.108-0.154-0.215-0.232-0.322c-4.102,1.976-8.214,3.959-12.933,6.236
		c10.335,8.015,18.961,17.403,13.357,31.488c-6.515,16.365-17.141,24.321-32.483,24.321
		C439.587,297.031,438.072,296.956,436.52,296.807z M502.762,275.597l1.413-17.886l2.547-1.1l-6.707-0.79l2.407,19.709
		L502.762,275.597z M247.358,262.005c4.589-22.187,8.706-27.126,27.609-30.911c-1.977-0.213-3.829-0.336-5.528-0.336
		c-14.793,0-21.564,7.857-24.151,27.875l-0.04,0.367h-11.86L247.358,262.005z M398.852,224.461
		c-0.398-7.525-2.541-13.208-6.688-17.793c-1.719-1.901-1.936-5.941-1.601-8.822c0.386-3.318,1.519-5.922,3.028-6.964
		c5.213-3.601,11.438-5.585,17.533-5.585c11.979,0,21.305,7.396,23.756,18.84c0.556,2.604,1.101,5.21,1.681,7.989l0.238,1.143
		c0.24-9.281-2.766-18.18-8.265-24.211c-4.646-5.093-10.761-7.785-17.687-7.785c-5.966,0-12.457,1.966-19.291,5.843l-0.281,0.16
		l-0.185-0.265c-6.63-9.443-14.596-14.435-23.038-14.435c-4.845,0-9.689,1.638-14.42,4.873c5.047-1.065,9.561-1.606,13.435-1.606
		c7.69,0,13.246,2.133,16.514,6.339c4.208,5.415,4.788,14.076,1.768,26.456l3.412-2.575l0.198,0.359l-0.312,0.171l0.351-0.101
		C392.372,212.644,395.572,218.476,398.852,224.461z"/>
	<path fill="#FF6B6B" d="M472.823,177.995c3.722-0.165,6.219-0.794,8.459-0.289c9.375,2.132,15.978,8.089,20.822,16.138
		c5.735,9.528,7.56,19.966,6.892,31.723c1.346-6.487,5.118-4.607,6.932-2.058c3.384,4.765,7.257,10.017,8.193,15.533
		c4.179,24.649-2.626,47.249-14.879,68.506c-0.943,1.635-2.02,3.192-2.18,3.441c1.531,2.406,2.868,3.729,3.294,5.301
		c8.666,31.846-11.029,58.613-45.229,61.339c-5.925,0.473-11.917,0.066-17.88,0.066c-0.433-0.646-0.864-1.295-1.295-1.942
		c1.475-2.125,2.488-4.943,4.494-6.266c12.283-8.09,15.85-12.817,19.706-27.836c2.755,0,5.638,0,8.522,0
		c0.119-0.414,0.234-0.834,0.351-1.249c-2.813-1.161-5.623-2.329-8.666-3.588c-0.732-4.405-1.504-9.035-2.327-13.965
		c2.695-1.542,5.417-3.104,9.001-5.155c-9.655,1.628-18.28,3.089-27.289,4.605c5.047,0.515,9.988,1.013,14.929,1.512
		c6.489,19.651,0.456,34.502-17.353,43.299c-1.545,0.763-3.042,2.927-3.357,4.656c-1.931,10.667-7.96,16.797-18.39,20.127
		c-7.212,2.306-14.078,6.327-20.42,10.591c-9.473,6.374-19.306,11.33-30.821,12.122c-10.182,0.704-19.316-1.396-26.118-10.413
		c1.318,2.863,2.643,5.73,3.957,8.58c-32.116,14.846-78.825-2.232-87.415-36.117c-4.954,3.428-9.622,7.225-14.81,10.083
		c-4.971,2.744-10.481,4.518-15.46,6.595c7.683,1.696,14.049-0.708,27.305-10.449c4.324,6.4,8.651,12.813,12.959,19.193
		c-25.781,13.813-70.507,9.444-74.994-38.431c-1.045-11.177,0.433-22.587,0.752-33.89c0.801-0.438,1.6-0.871,2.4-1.309
		c11.089,6.131,22.179,12.262,32.811,18.141c-2.219,4.85-4.178,9.135-6.136,13.421c0.476,0.227,0.957,0.455,1.436,0.683
		c1.158-1.967,2.199-4.023,3.505-5.89c2.837-4.045,6.146-6.432,11.771-6.23c11.126,0.398,20.681-3.524,27.095-13.253
		c0.626-0.952,0.896-2.14,1.989-4.836c-13.861,16.686-29.751,18.861-46.811,8.273c-5.223-3.245-11.196-5.441-17.046-7.479
		c-8.209-2.856-13.228-8.231-15.819-16.464c-7.616-24.192,3.401-50.493,25.611-63.271c4.965-2.856,8.788-8.687,11.688-13.944
		c6.489-11.755,14.355-21.899,26.686-28.621c0.587,1.079,1.098,2.019,1.798,3.306c4.771-11.098,13.382-16.208,24.828-17.114
		c11.314-0.892,19.945-6.718,28.267-14.052c9.453-8.331,19.273-16.558,29.998-23.078c18.635-11.328,38.942-12.344,59.594-5.681
		c5.691,1.838,11.404,3.831,16.752,6.472c5.691,2.812,11.455,3.53,17.701,3.713C452.53,162.95,464.704,167.711,472.823,177.995z
		 M413.893,357.893c1.113-0.234,2.494-0.128,3.301-0.757c8.448-6.573,10.105-19.767,3.585-27.637
		c-6.597-7.96-21.515-9.267-29.028-1.846c-4.689,4.632-8.307,10.369-12.292,15.694c-4.754,6.354-10.227,12.437-18.339,13.161
		c-6.729,0.604-10.563,3.821-15.208,8.127c-10.763,9.968-23.17,13.931-36.854,4.287c9.659,11.239,20.518,12.743,31.897,4.314
		c3.74-2.77,6.64-6.67,10.087-9.874c1.263-1.175,3.072-2.711,4.506-2.59c9.915,0.836,16.941-4.109,22.769-11.157
		c4.786-5.792,8.939-12.104,13.607-18.004c4.888-6.175,10.62-7.399,17.77-4.21c13.098,5.838,14.82,17.943,4.395,30.727
		c-1.766-1.992-3.532-3.986-5.3-5.98c0.546,0.132,1.091,0.263,1.635,0.395c-1.125,9.013-2.252,18.029-3.248,26.048
		C413.613,374.157,414.126,366.166,413.893,357.893z M331.724,242.844c16.724-4.354,24.462-17.926,16.503-28.458
		c3.264,11.732-1.491,20.398-12.533,23.185c-3.393,0.857-5.208,0.157-7.294-3.031c-2.658-4.053-6.664-7.223-10.09-10.773
		c2.604,5.105,6.442,9.177,8.19,14.008c4.339,11.978-1.57,19.892-14.228,20.197c-4.731,0.113-9.471,0.07-14.191,0.32
		c-7.332,0.401-12.001,4.076-13.614,11.437c-1.652,7.544-4.034,14.646-12.33,16.716c1.796,22.816-5.419,27.124-34.533,21.831
		c6.767,2.915,12.877,7.136,20.999,6.806c14.369-0.59,21.564-10.375,16.914-23.987c-0.393-1.145-0.77-2.291-1.227-3.648
		c6.772-2.007,9.205-7.042,11.062-12.841c3.51-10.971,7.577-13.537,19.135-12.766c1.504,0.1,3.002,0.291,4.504,0.397
		C323.738,263.241,329.989,258.01,331.724,242.844z M346.462,275.338c11.625,9.939,15.806,15.669,18.149,24.182
		c4.711,17.096-9.115,33.516-26.373,31.158c-3.488-0.475-6.877-1.679-10.645-2.632c0.785,2.295,1.446,4.227,2.113,6.16
		c0.066-0.619,0.133-1.239,0.195-1.856c4.729,0.225,9.613,1.293,14.146,0.452c5.119-0.946,10.75-2.604,14.629-5.802
		c3.869-3.188,6.974-8.363,8.329-13.245c1.372-4.937,1.041-10.777-0.117-15.864c-1.146-5.04-4.251-9.634-6.664-14.78
		c7.017-3.853,14.131-8.646,14.338-17.887c0.252-11.333,6.754-18.841,14.307-25.591c10.706-9.568,22.673-6.074,27.278,7.532
		c1.445,4.272,2.089,8.843,3.8,12.989c2.215,5.372,5.409,10.08,12.554,9.396c-6.851-2.206-8.592-7.933-9.977-13.921
		c-0.874-3.77-1.511-7.617-2.701-11.282c-4.664-14.362-20.312-18.856-31.25-8.564c-4.773,4.491-8.135,10.472-12.242,15.695
		c-0.891,1.132-2.238,1.902-4.587,3.836c0,2.177,0.444,6.302-0.102,10.292c-0.916,6.675-5.303,10.935-10.954,14.311
		c-5.133,3.068-7.146-2.349-10.739-3.366C349.378,276.39,348.821,276.162,346.462,275.338z M352.027,178.167
		c27.909-6.39,40.111,2.441,32.735,31.358c0.729-0.547,1.88-1.417,3.886-2.933c3.636,6.628,7.068,12.884,10.615,19.357
		c-0.163-7.334-1.822-13.976-6.836-19.521c-2.684-2.97-1.979-12.948,1.365-15.255c15.154-10.469,36.66-6.013,40.74,13.036
		c0.798,3.74,1.572,7.483,2.464,11.736c2.087-22.594-15.303-46.34-45.615-29.141C380.345,171.082,365.696,167.861,352.027,178.167z
		 M459.501,241.152c10.709,8.225,19.216,17.563,13.699,31.426c-6.589,16.554-18.409,26.696-39.563,23.516
		c15.132,6.445,30.093,1.222,41.239-13.865c2.757-3.73,4.653-8.973,4.792-13.583c0.343-11.299-6.338-19.582-14.404-26.606
		c3.141-2.443,5.85-4.552,8.56-6.66c-0.201-0.283-0.403-0.563-0.606-0.842C468.879,236.627,464.541,238.719,459.501,241.152z
		 M244.936,258.512c-4.677,0-8.984,0-14.818,0c6.992,1.535,12.264,2.696,17.516,3.852c4.767-23.207,8.801-27.512,29.604-31.378
		C256.666,228.1,247.927,235.364,244.936,258.512z M294.501,316.951c4.903-5.799,9.097-11.645,14.19-16.557
		c5.968-5.759,13.426-3.592,20.533-1.862C314.69,290.154,304.098,295.756,294.501,316.951z M401.699,281.028
		c-3.073,6.439-6.033,12.644-8.991,18.85c0.327,0.267,0.65,0.534,0.978,0.806c2.931-3.857,5.864-7.719,9.017-11.862
		c4.336,0.644,8.927,1.325,12.773,1.899C412.838,285.165,401.65,291.6,401.699,281.028z M329.813,402.158
		c10.604,0.46,20.593,0.146,27.389-9.259C348.178,395.95,339.205,398.983,329.813,402.158z M499.607,255.415
		c0.873,7.14,1.682,13.779,2.493,20.414c0.328,0.064,0.657,0.13,0.983,0.191c0.47-5.927,0.938-11.854,1.429-18.069
		c0.354-0.153,1.372-0.591,3.565-1.537C504.344,255.976,502.021,255.699,499.607,255.415z M290.039,338.843
		c0.351-0.381,0.701-0.763,1.049-1.144c-3.48-3.331-6.968-6.662-10.614-10.146c4.081-2.313,6.889-3.905,9.696-5.496
		c-0.11-0.185-0.221-0.367-0.331-0.55c-4.442,1.499-8.891,3.003-14.597,4.934C280.532,330.874,285.288,334.859,290.039,338.843z"/>
	<path fill="#FF6B6B" d="M182.794,379.84c-11.743,0-21.088-4.142-28.568-12.663l-0.14-0.16l0.073-0.197
		c0.07-0.189,0.118-0.382,0.163-0.556c0.108-0.422,0.201-0.787,0.513-0.96c9.199-5.019,15.113-11.849,17.105-19.752
		c1.996-7.924,0.016-16.767-5.726-25.574c-2.517-3.862-4.817-7.954-7.251-12.288c-1.186-2.11-2.42-4.308-3.756-6.616l-0.333-0.577
		l6.519,0.441c-5.194-4.162-10.295-8.25-16.49-13.221c0.341,0.627,0.645,1.209,0.926,1.75c0.915,1.757,1.576,3.024,2.553,3.938
		c6.699,6.271,10.265,14.449,13.713,22.358c1.917,4.397,3.899,8.942,6.395,13.094c5.442,9.054,0.179,23.187-7.947,30.208
		c-3.627,3.135-7.857,4.724-12.571,4.724c-4.573,0-9.376-1.504-14.272-4.469c-8.32-5.038-13.226-11.695-14.995-20.354
		c-2.864-14.005-1.979-25.942,2.868-38.71l0.36-0.947l6.822,21.232l0.358-0.077c-0.366-1.352-0.695-2.718-1.025-4.084
		c-0.759-3.15-1.544-6.407-2.792-9.397c-7.722-18.468-3.939-35.395,11.566-51.75c5.806-6.122,12.561-9.227,20.075-9.227
		c2.779,0,5.687,0.434,8.643,1.289l0.274,0.078l-0.392,6.08c4.274-9.786,9.805-20.413,19.915-27.761
		c-8.241,2.175-14.002,7.922-18.04,17.942l-0.114,0.283l-1.705-0.412c-0.875-0.214-1.67-0.408-2.473-0.572
		c-8.824-1.814-10.033-3.574-8.626-12.55c2.828-18.003,20.247-32.647,38.829-32.647c4.579,0,8.971,0.888,13.055,2.641
		c9.517,4.079,14.377,10.293,14.857,18.997c0.676,12.22-3.297,20.021-12.501,24.551c-0.52,0.254-1.024,0.541-1.598,0.874
		c7.552-1.529,14.235-9.063,15.635-17.977c1.633-10.391-1.425-18.838-9.088-25.106c-2.696-2.208-4.08-4.313-2.653-7.98
		c1.966-5.068,3.899-10.151,5.826-15.218l1.902-4.996c-7.364,5.404-9.5,14.308-11.394,22.137L207.223,196h-31.007l0.202-0.561
		c3.457-8.405,9.019-15.406,16.531-20.742c2.31-1.643,4.429-3.675,6.479-5.624c0.764-0.726,1.527-1.46,2.301-2.17
		c17.455-15.995,38.649-24.111,62.996-24.111c1.318,0,2.641,0.021,3.976,0.067c0.56,0.019,1.079,0.238,1.798,0.539
		c0.393,0.167,0.853,0.359,1.418,0.562l0.6,0.212l-21.592,17.318l10.825,3.018l0.086-0.063l-6.057-3.453l0.431-0.324
		c2.896-2.185,5.613-4.387,8.24-6.517c5.483-4.444,10.663-8.644,16.395-11.787c12.253-6.719,24.737-10.126,37.105-10.126
		c13.752,0,27.466,4.195,40.761,12.47l0.571,0.356l-38.965,17.147l-0.627-3.305c-5.508,19.532-17.842,29.721-37.664,31.128
		c-7.354,0.525-13.412,3.418-18.52,8.845c-1.349,1.434-3.139,2.421-5.033,3.466c-0.882,0.487-1.795,0.991-2.692,1.557l-0.369,0.232
		l-2.008-5.341c0.128,4.081-1.457,7.298-5.25,11.068c-4.736,4.711-8.76,10.314-12.651,15.734c-2.123,2.956-4.316,6.011-6.609,8.899
		c-1.012,1.276-2.017,2.673-2.989,4.024c-2.979,4.141-6.06,8.421-10.196,10.566c-29.773,15.443-32.433,48.514-22.304,72.705
		c1.49,3.555,1.911,8.132,1.072,11.661c-3.107,13.066-3.042,26.191,0.198,40.123c0.197,0.824,0.3,1.669,0.431,2.737
		c0.067,0.549,0.143,1.159,0.241,1.861l0.047,0.335l-0.333,0.063C190.601,379.426,186.587,379.84,182.794,379.84z"/>
	<path fill="#FF6B6B" d="M194.997,378.225c-15.921,3.042-29.669,1.061-40.504-11.283c0.214-0.583,0.243-1.177,0.514-1.326
		c18.985-10.358,23.284-27.763,11.505-45.832c-3.716-5.701-6.877-11.766-10.998-18.888c3.388,0.229,5.115,0.347,6.983,0.472
		c-5.903-4.729-11.598-9.292-18.817-15.085c2.102,3.56,2.874,5.9,4.458,7.382c10.363,9.699,13.058,23.75,20.046,35.375
		c5.201,8.652,0.454,22.561-7.875,29.758c-7.026,6.07-16.521,6.218-26.427,0.219c-7.674-4.646-12.961-10.972-14.832-20.121
		c-2.561-12.524-2.38-24.731,2.852-38.513c2.527,7.866,4.57,14.22,6.61,20.574c0.346-0.072,0.695-0.147,1.04-0.224
		c-1.284-4.639-2.091-9.479-3.931-13.886c-8.331-19.925-2.422-36.689,11.496-51.37c7.571-7.982,17.104-11.098,28.362-7.841
		c-0.181,2.827-0.344,5.336-0.505,7.841c5.088-11.915,10.925-23.109,22.108-30.539c-10.375,2.023-16.243,9.052-20.077,18.564
		c-1.482-0.351-2.678-0.669-3.891-0.916c-8.633-1.775-9.723-3.361-8.347-12.147c3.66-23.294,30.347-38.769,51.394-29.735
		c8.245,3.534,14.113,9.092,14.642,18.69c0.576,10.418-2.146,19.214-12.304,24.212c-0.949,0.466-1.849,1.035-3.199,1.793
		c8.521-0.627,16.204-8.71,17.743-18.521c1.588-10.104-1.226-18.901-9.213-25.437c-2.79-2.284-3.831-4.276-2.547-7.577
		c2.752-7.096,5.439-14.218,8.137-21.287c-8.084,5.3-10.393,14.307-12.478,22.929c-10.177,0-20.037,0-30.197,0
		c3.304-8.035,8.712-15.088,16.409-20.554c3.178-2.259,5.92-5.145,8.814-7.795c18.894-17.315,41.307-24.826,66.72-23.943
		c0.781,0.026,1.546,0.523,3.109,1.08c-7.883,6.324-15.23,12.216-21.636,17.353c2.532,0.707,7.094,1.978,11.655,3.25
		c0.225-0.162,0.45-0.32,0.675-0.483c-1.42-0.807-2.841-1.621-6.07-3.461c8.964-6.761,16.159-13.648,24.592-18.276
		c26.599-14.585,52.956-12.946,77.507,2.335c-12.383,5.451-25.141,11.066-37.942,16.698c-0.058-0.293-0.396-2.091-0.83-4.392
		c-5.166,20.025-17.417,30.921-37.75,32.364c-7.365,0.526-13.591,3.473-18.753,8.956c-1.932,2.054-4.837,3.188-7.656,4.965
		c-1.123-2.988-2-5.32-2.878-7.656c1.081,5.611-0.393,9.275-4.808,13.665c-7.341,7.301-12.79,16.477-19.288,24.665
		c-4.065,5.123-7.654,11.688-13.071,14.496c-29.314,15.206-33.144,47.659-22.468,73.158c1.427,3.403,1.901,7.879,1.055,11.441
		c-3.216,13.523-2.923,26.868,0.198,40.286C194.622,374.881,194.706,376.158,194.997,378.225z"/>
	<path fill="#BF5151" d="M331.724,242.844c-1.734,15.166-7.985,20.397-22.733,19.387c-1.504-0.102-3-0.293-4.504-0.395
		c-11.558-0.771-15.625,1.797-19.137,12.766c-1.858,5.796-4.288,10.834-11.06,12.841c0.457,1.359,0.834,2.506,1.224,3.647
		c4.652,13.613-2.543,23.4-16.914,23.988c-8.124,0.332-14.231-3.889-20.997-6.804c29.111,5.293,36.327,0.985,34.533-21.833
		c8.293-2.067,10.676-9.172,12.328-16.716c1.612-7.358,6.284-11.035,13.614-11.435c4.723-0.253,9.461-0.207,14.194-0.322
		c12.657-0.304,18.564-8.218,14.228-20.197c-1.749-4.829-5.586-8.902-8.19-14.006c3.424,3.549,7.432,6.721,10.088,10.773
		c2.085,3.186,3.903,3.887,7.296,3.031c11.04-2.788,15.797-11.452,12.53-23.188C356.181,224.918,348.447,238.49,331.724,242.844z"/>
	<path fill="#BF5151" d="M346.462,275.338c2.359,0.824,2.916,1.049,3.489,1.21c3.596,1.015,5.607,6.435,10.742,3.366
		c5.649-3.377,10.036-7.637,10.954-14.311c0.547-3.991,0.099-8.118,0.099-10.29c2.35-1.937,3.699-2.706,4.588-3.838
		c4.109-5.224,7.467-11.207,12.24-15.696c10.941-10.291,26.589-5.797,31.251,8.563c1.191,3.667,1.826,7.516,2.7,11.285
		c1.385,5.988,3.128,11.712,9.979,13.92c-7.142,0.683-10.341-4.024-12.556-9.394c-1.708-4.147-2.354-8.72-3.797-12.991
		c-4.606-13.605-16.572-17.1-27.279-7.534c-7.552,6.752-14.054,14.263-14.305,25.594c-0.206,9.238-7.323,14.031-14.337,17.887
		c2.413,5.146,5.515,9.742,6.661,14.78c1.156,5.089,1.489,10.928,0.119,15.863c-1.354,4.88-4.462,10.055-8.331,13.248
		c-3.878,3.198-9.509,4.853-14.631,5.8c-4.53,0.838-9.414-0.23-14.144-0.454c-0.065,0.619-0.132,1.241-0.195,1.856
		c-0.665-1.93-1.326-3.861-2.114-6.158c3.771,0.951,7.158,2.154,10.647,2.632c17.253,2.355,31.081-14.063,26.373-31.158
		C362.268,291.007,358.087,285.277,346.462,275.338z"/>
	<path fill="#BF5151" d="M414.065,358.11c10.444-12.76,8.723-24.866-4.373-30.708c-7.15-3.186-12.882-1.963-17.77,4.213
		c-4.668,5.897-8.824,12.209-13.609,18.003c-5.827,7.048-12.852,11.993-22.769,11.157c-1.434-0.122-3.244,1.418-4.504,2.59
		c-3.449,3.204-6.347,7.103-10.09,9.877c-11.379,8.426-22.237,6.924-31.895-4.314c13.682,9.644,26.09,5.68,36.852-4.291
		c4.647-4.303,8.481-7.521,15.209-8.123c8.114-0.727,13.587-6.808,18.338-13.163c3.986-5.326,7.605-11.063,12.293-15.692
		c7.513-7.423,22.431-6.114,29.025,1.846c6.525,7.87,4.866,21.061-3.58,27.637c-0.809,0.626-2.188,0.52-3.304,0.754L414.065,358.11z
		"/>
	<path fill="#BF5151" d="M352.027,178.167c13.669-10.306,28.317-7.085,39.354,8.64c30.31-17.199,47.699,6.547,45.615,29.143
		c-0.892-4.252-1.666-7.998-2.464-11.736c-4.08-19.049-25.586-23.507-40.74-13.038c-3.344,2.307-4.049,12.285-1.365,15.255
		c5.014,5.547,6.673,12.189,6.836,19.522c-3.547-6.476-6.977-12.731-10.615-19.359c-2.006,1.519-3.157,2.389-3.886,2.936
		C392.139,180.608,379.937,171.777,352.027,178.167z"/>
	<path fill="#BF5151" d="M459.501,241.152c5.04-2.434,9.378-4.525,13.717-6.615c0.201,0.278,0.401,0.559,0.606,0.842
		c-2.713,2.108-5.421,4.219-8.56,6.66c8.064,7.024,14.747,15.308,14.403,26.606c-0.138,4.607-2.037,9.853-4.794,13.583
		c-11.146,15.089-26.104,20.313-41.236,13.867c21.153,3.179,32.974-6.964,39.563-23.518
		C478.717,258.715,470.21,249.377,459.501,241.152z"/>
	<path fill="#BF5151" d="M244.936,258.512c2.991-23.147,11.73-30.412,32.301-27.526c-20.805,3.866-24.839,8.171-29.604,31.378
		c-5.251-1.155-10.523-2.316-17.516-3.852C235.951,258.512,240.259,258.512,244.936,258.512z"/>
	<path fill="#BF5151" d="M413.893,357.893c0.233,8.273-0.279,16.268-6.719,20.7c0.996-8.018,2.123-17.034,3.248-26.05
		c-0.544-0.13-1.089-0.263-1.635-0.393c1.768,1.994,3.532,3.986,5.29,5.969C414.065,358.11,413.893,357.893,413.893,357.893z"/>
	<path fill="#BF5151" d="M294.501,316.951c9.597-21.195,20.189-26.797,34.723-18.421c-7.106-1.729-14.564-3.896-20.533,1.864
		C303.598,305.307,299.404,311.152,294.501,316.951z"/>
	<path fill="#BF5151" d="M401.699,281.028c-0.049,10.571,11.139,4.134,13.776,9.692c-3.847-0.574-8.438-1.256-12.775-1.899
		c-3.15,4.144-6.084,8.005-9.017,11.862c-0.327-0.271-0.651-0.539-0.979-0.806C395.666,293.672,398.626,287.47,401.699,281.028z"/>
	<path fill="#BF5151" d="M329.813,402.158c9.393-3.175,18.365-6.208,27.389-9.259C350.405,402.307,340.416,402.62,329.813,402.158z"
		/>
	<path fill="#BF5151" d="M499.607,255.415c2.413,0.284,4.736,0.561,8.471,0.999c-2.193,0.944-3.212,1.381-3.565,1.537
		c-0.493,6.219-0.959,12.143-1.429,18.069c-0.326-0.063-0.655-0.127-0.983-0.191C501.289,269.194,500.48,262.557,499.607,255.415z"
		/>
	<path fill="#BF5151" d="M290.039,338.843c-4.751-3.983-9.507-7.969-14.796-12.402c5.706-1.931,10.151-3.435,14.597-4.934
		c0.11,0.183,0.221,0.365,0.331,0.55c-2.808,1.591-5.616,3.184-9.696,5.496c3.646,3.484,7.133,6.815,10.614,10.146
		C290.74,338.082,290.39,338.462,290.039,338.843z"/>
</g>
<g opacity="0.8">
	<path fill="#FBB03B" d="M103.784,309.769l0.053-0.656c0.712-8.851,1.445-17.927,2.715-26.878l-51.144,36.622l47.511,15.078
		C102.551,326.226,103.091,318.369,103.784,309.769z"/>
	<path fill="#FBB03B" d="M108.49,271.154c3.426-14.952,11.877-27.047,25.17-35.966c1.871-1.253,3.605-3.897,4.036-6.151
		c2.728-14.38,8.975-25.939,19.099-35.342c1.506-1.4,2.826-3.172,3.716-4.987c4.87-9.921,12.085-18.104,22.06-25.019
		c2.208-1.528,4.072-3.661,5.875-5.723c1.11-1.271,2.258-2.584,3.487-3.762c17.978-17.23,39.85-25.967,65.009-25.967
		c3.136,0,6.375,0.136,9.626,0.402c0.556,0.047,1.13,0.073,1.71,0.073c1.948,0,3.583-0.296,4.858-0.881
		c15.296-7.001,30.212-10.55,44.335-10.55c15.609,0,30.914,4.331,45.486,12.871c2.44,1.43,5.673,1.729,7.954,1.729
		c0.362,0,0.72-0.008,1.069-0.022c1.652-0.066,3.311-0.101,4.934-0.101c17.583,0,33.307,3.812,48.068,11.653
		c2.055,1.087,4.867,1.711,7.716,1.711c0.46,0,0.913-0.016,1.355-0.047c1.24-0.09,2.496-0.137,3.733-0.137
		c11.164,0,21.891,3.479,34.778,11.283l0.139,0.084c1.497,0.908,3.194,1.938,4.815,2.059c20.41,1.506,40.068,20.112,45.725,43.281
		c0.657,2.692,2.101,5.552,4.035,8.072l42.823-58.101l-73.607,0.506l23.226-69.85l-69.848,23.229l0.505-73.608l-59.254,43.676
		L368.856,5.41L326,65.258L283.141,5.41l-22.264,70.162l-59.255-43.676l0.506,73.608l-69.852-23.229l23.229,69.85l-73.612-0.506
		l43.678,59.256l-70.165,22.267L108.49,271.154z"/>
	<path fill="#FBB03B" d="M528.875,211.652c9.723,11.146,11.7,24.902,12.359,38.133c0.045,0.89,0.032,1.795,0.021,2.668
		c-0.006,0.407-0.012,0.814-0.012,1.221c-0.134,7.118-0.745,13.901-1.826,20.41l57.177-40.941L528.875,211.652z"/>
	<path fill="#FBB03B" d="M529.618,345.454c-3.956,17.353-16.159,31.44-35.803,40.484c-11.093,5.106-22.801,7.654-35.792,7.789
		c-2.183,0.024-4.527,1.272-6.552,2.44c-3.146,1.811-6.297,3.739-9.345,5.604c-3.209,1.963-6.527,3.993-9.848,5.894
		c-1.887,1.079-3.9,2.018-5.848,2.926c-3.006,1.401-6.113,2.851-8.743,4.82c-15.326,11.478-29.007,16.824-43.056,16.824
		c-4.729,0-9.579-0.629-14.411-1.87c-0.305-0.078-0.649-0.118-1.024-0.118c-0.857,0-1.9,0.207-3.102,0.615
		c-8.752,2.975-17.734,4.481-26.699,4.481c-15.128,0.002-30.529-4.134-47.086-12.638c-2.56-1.315-4.871-1.929-7.272-1.929
		c-1.379,0-2.866,0.2-4.542,0.61c-9.834,2.415-18.457,3.59-26.36,3.59c-14.364,0-26.67-3.878-37.618-11.854
		c-2.623-1.91-4.9-4.434-7.103-6.874c-2.963-3.284-5.762-6.386-9.339-8.146c-3.164-1.561-7.082-1.792-10.872-2.016
		c-3.749-0.222-7.625-0.451-10.886-1.944c-13.342-6.118-26.482-13.273-39.19-20.194c-2.58-1.405-5.158-2.81-7.738-4.205
		c-4.369-2.364-7.715-5.486-10.292-8.983l-29.204,39.619l73.612-0.506l-23.229,69.85l69.852-23.228l-0.506,73.607l59.255-43.675
		l22.264,70.162L326,486.742l42.856,59.848l22.268-70.162l59.254,43.675l-0.505-73.607l69.848,23.228l-23.226-69.85l73.607,0.506
		L529.618,345.454z"/>
	<path fill="#FBB03B" d="M528.868,306.79c-0.902,1.793-1.164,4.374-0.637,6.276c2.625,9.453,3.378,18.418,2.37,26.732l65.992-20.942
		l-57.788-41.379C536.775,287.904,533.484,297.613,528.868,306.79z"/>
</g>
</svg>
