<?xml version="1.0" encoding="utf-8"?>
<!-- Generator: Adobe Illustrator 16.0.0, SVG Export Plug-In . SVG Version: 6.00 Build 0)  -->
<!DOCTYPE svg PUBLIC "-//W3C//DTD SVG 1.1//EN" "http://www.w3.org/Graphics/SVG/1.1/DTD/svg11.dtd">
<svg version="1.1" id="Layer_1" xmlns="http://www.w3.org/2000/svg" xmlns:xlink="http://www.w3.org/1999/xlink" x="0px" y="0px"
	 width="630px" height="325px" viewBox="0 0 630 325" enable-background="new 0 0 630 325" xml:space="preserve">
<g opacity="0.75">
	<path fill="#BF5151" d="M171.23,288.904c-11.149,0-22.499-3.046-34.7-9.314c-1.886-0.967-3.59-1.42-5.358-1.42
		c-1.017,0-2.111,0.149-3.347,0.45c-7.248,1.779-13.602,2.646-19.426,2.646c-10.586,0-19.653-2.855-27.723-8.736
		c-1.933-1.407-3.611-3.268-5.234-5.063c-2.184-2.421-4.246-4.707-6.883-6.004c-2.332-1.151-5.219-1.321-8.011-1.485
		c-2.763-0.163-5.619-0.333-8.023-1.434c-9.833-4.51-19.517-9.783-28.881-14.883c-1.901-1.037-3.801-2.069-5.702-3.1
		c-9.877-5.347-12.763-15.897-13.443-23.807c-0.562-6.518-0.12-13.092,0.468-20.392l0.039-0.485
		c0.695-8.648,1.417-17.59,3.055-26.223c2.247-11.832,8.613-21.338,18.924-28.256c1.379-0.924,2.657-2.873,2.974-4.533
		c2.011-10.598,6.615-19.116,14.075-26.045c1.109-1.033,2.082-2.337,2.739-3.676c3.588-7.31,8.905-13.342,16.257-18.436
		c1.627-1.127,3.001-2.699,4.33-4.218c0.818-0.936,1.664-1.904,2.569-2.772c13.248-12.698,29.368-19.136,47.907-19.136
		c2.311,0,4.699,0.1,7.095,0.296c0.409,0.034,0.833,0.054,1.261,0.054c1.436,0,2.64-0.219,3.581-0.648
		c11.272-5.159,22.264-7.774,32.672-7.774c11.506,0,22.783,3.191,33.521,9.485c1.799,1.054,4.18,1.275,5.862,1.275
		c0.267,0,0.53-0.005,0.789-0.017c1.218-0.051,2.44-0.075,3.635-0.075c12.959,0,24.547,2.809,35.424,8.588
		c1.514,0.801,3.586,1.261,5.687,1.261c0.339,0,0.672-0.013,0.999-0.035c0.915-0.067,1.839-0.101,2.751-0.101
		c8.229,0,16.132,2.563,25.631,8.315l0.102,0.061c1.104,0.67,2.354,1.428,3.549,1.517c15.041,1.108,29.528,14.821,33.698,31.896
		c0.579,2.379,1.985,4.939,3.859,7.028c7.427,8.273,8.905,18.561,9.397,28.447c0.033,0.655,0.023,1.323,0.015,1.966
		c-0.004,0.301-0.007,0.601-0.007,0.899c-0.279,14.693-3.261,27.495-9.121,39.144c-0.664,1.322-0.856,3.224-0.468,4.624
		c6.575,23.682-2.669,43.255-25.364,53.706c-8.174,3.763-16.803,5.641-26.377,5.738c-1.608,0.019-3.335,0.939-4.829,1.799
		c-2.317,1.335-4.64,2.755-6.886,4.131c-2.365,1.447-4.811,2.941-7.257,4.344c-1.39,0.796-2.874,1.486-4.309,2.155
		c-2.216,1.035-4.505,2.101-6.442,3.554c-11.295,8.459-21.377,12.4-31.73,12.4c-3.484,0-7.059-0.465-10.62-1.379
		c-0.225-0.058-0.479-0.089-0.754-0.089c-0.631,0-1.4,0.153-2.284,0.456C184.456,287.795,177.835,288.904,171.23,288.904z
		 M123.849,245.59c4.389,17.323,23.841,30.388,45.246,30.388c6.625,0,13.04-1.325,18.57-3.836l-2.807-6.086l0.447-0.267
		c3.946,5.229,9.181,7.664,16.475,7.664c0.813,0,1.671-0.032,2.551-0.092c9.252-0.639,16.93-5.087,22.585-8.891
		c3.651-2.457,9.19-5.945,15.113-7.838c7.768-2.481,12.018-7.131,13.377-14.626c0.254-1.412,1.428-3.036,2.615-3.622
		c12.938-6.389,17.328-17.256,12.707-31.43l-10.832-1.097l-0.017-0.52l20.11-3.396l0.175,0.487l-6.478,3.709l1.659,9.97
		c2.192,0.907,6.471,2.676,6.471,2.676l-0.356,1.382l-0.215,0.165h-6.082c-2.786,10.467-5.409,14.323-14.582,20.368
		c-0.958,0.63-1.623,1.749-2.266,2.887c-0.278,0.49-0.563,0.968-0.875,1.434l0.777,1.157c1.346,0.002,2.692,0.022,4.039,0.054
		c1.391,0.029,2.781,0.057,4.167,0.057c1.847,0,3.376-0.057,4.811-0.168c12.414-0.991,22.621-6.327,28.734-15.023
		c5.808-8.258,7.358-18.863,4.368-29.856c-0.192-0.702-0.671-1.366-1.274-2.204c-0.34-0.468-0.724-0.997-1.125-1.629l-0.09-0.144
		l0.215-0.326c0.271-0.405,0.906-1.354,1.477-2.34c10.12-17.554,13.697-34.012,10.934-50.313c-0.651-3.829-3.318-7.578-5.671-10.883
		l-0.321-0.453c-0.705-0.991-1.662-1.629-2.443-1.629c-1.025,0-1.784,1.053-2.196,3.046l-0.52-0.067
		c0.527-9.261-1.076-16.641-5.043-23.225c-3.904-6.489-8.869-10.34-15.178-11.773c-0.405-0.09-0.854-0.135-1.37-0.135
		c-0.672,0-1.395,0.071-2.233,0.155c-0.753,0.073-1.607,0.159-2.562,0.2l-0.134,0.006l-0.083-0.105
		c-5.581-7.07-14.228-10.973-25.006-11.289c-4.177-0.125-8.66-0.544-13.151-2.763c-4.025-1.987-8.296-3.459-12.309-4.754
		c-6.253-2.018-12.392-3.039-18.251-3.039c-9.031,0-17.592,2.422-25.454,7.201c-7.938,4.823-15.296,11.012-22.068,16.98
		c-5.674,4.998-12.141,9.721-20.983,10.418c-8.864,0.703-14.776,4.777-18.078,12.456l-0.213,0.496l-1.456-2.68
		c-7.78,4.304-13.75,10.75-19.33,20.862c-1.862,3.374-4.79,8.12-8.714,10.377c-16.356,9.408-24.244,28.892-18.754,46.323
		c1.92,6.104,5.572,9.906,11.494,11.965c4.259,1.482,8.743,3.13,12.617,5.537c5.053,3.136,9.972,4.725,14.621,4.725
		c7.028,0,13.601-3.624,19.536-10.77l0.444,0.268c-0.3,0.74-0.515,1.326-0.691,1.806c-0.297,0.806-0.492,1.501-0.799,1.969
		c-4.333,6.566-10.747,10.062-19.062,10.062c0,0-0.002,0-0.003,0c-0.375,0-0.75-0.167-1.128-0.182
		c-0.159-0.008-0.316-0.092-0.47-0.092c-3.39,0-5.776,1.304-7.978,4.449c-0.656,0.936-1.23,1.937-1.787,2.925
		c-0.258,0.461-0.519,0.913-0.787,1.367l-0.123,0.201l-1.509-0.719l4.532-9.907l-23.842-13.179l-1.512,0.82
		c-0.075,2.579-0.234,5.206-0.388,7.748c-0.338,5.615-0.689,11.426-0.163,17.044c2.881,30.746,27.11,33.137,34.467,33.137
		c7.026,0,14.173-1.733,20.16-4.884l-9.237-13.677c-8.019,5.868-12.448,7.958-16.855,7.958c-1.048,0-2.114-0.125-3.257-0.376
		l-0.81-0.181l0.765-0.319c1.098-0.456,2.229-0.894,3.377-1.334c2.673-1.033,5.436-2.101,7.99-3.508
		c2.643-1.462,5.157-3.29,7.59-5.057c1.093-0.795,2.19-1.591,3.306-2.364L123.849,245.59z M42.631,238.383
		c5.389,6.084,12.115,8.99,20.559,8.99l0,0c2.692,0,5.54-0.235,8.698-0.825c-0.058-0.428-0.104-0.781-0.147-1.128
		c-0.095-0.764-0.167-1.353-0.303-1.932c-2.409-10.345-2.457-20.088-0.146-29.802c0.594-2.504,0.295-5.746-0.763-8.264
		c-7.555-18.041-5.558-42.71,16.678-54.248c2.936-1.523,5.17-4.625,7.33-7.626c0.721-1,1.465-2.035,2.219-2.986
		c1.682-2.121,3.296-4.367,4.858-6.541c2.879-4.01,5.857-8.158,9.378-11.658c3.281-3.265,4.223-5.931,3.47-9.837l0.502-0.142
		l2.008,5.348c0.588-0.358,1.174-0.684,1.746-0.999c1.356-0.749,2.638-1.457,3.575-2.451c3.857-4.1,8.434-6.285,13.991-6.68
		c14.725-1.047,23.749-8.786,27.584-23.66l0.509,0.017l0.55,2.917l27.206-11.971c-9.582-5.873-19.45-8.851-29.341-8.851
		c-9.024,0-18.14,2.489-27.093,7.396c-4.188,2.296-7.992,5.38-12.021,8.646c-1.839,1.49-3.736,3.029-5.753,4.563l4.485,2.561
		l-0.932,0.663l-9.2-2.563l15.982-12.82c-0.237-0.092-0.446-0.18-0.634-0.26c-0.498-0.209-0.827-0.348-1.143-0.36
		c-0.973-0.034-1.943-0.051-2.905-0.051c-17.811,0-33.315,5.931-46.081,17.626c-0.568,0.522-1.128,1.055-1.689,1.587
		c-1.522,1.45-3.096,3.081-4.832,4.313c-5.344,3.795-9.332,8.695-11.848,14.802h21.654c1.462-6.107,3.163-12.993,9.256-16.986
		l0.676-0.509l-1.96,5.114c-1.429,3.761-2.865,7.517-4.325,11.278c-0.83,2.136-0.358,3.513,1.799,5.28
		c5.801,4.747,8.117,11.131,6.884,18.984c-1.168,7.434-6.892,13.394-13.315,13.867l-0.147-0.49c0.347-0.194,0.654-0.373,0.936-0.537
		c0.53-0.308,0.975-0.566,1.433-0.792c6.572-3.234,9.407-8.825,8.922-17.594c-0.342-6.194-3.819-10.627-10.632-13.548
		c-2.943-1.262-6.112-1.903-9.414-1.903c-13.449,0-26.054,10.595-28.099,23.619c-0.991,6.322-0.269,7.373,5.944,8.652
		c0.593,0.122,1.18,0.265,1.828,0.422c0.265,0.066,0.54,0.133,0.829,0.202c3.255-7.95,7.997-12.285,14.903-13.632l0.196,0.476
		c-8.546,5.676-12.841,14.534-16.199,22.39l-0.502-0.12l0.36-5.567c-2.062-0.579-4.086-0.873-6.02-0.873
		c-5.39,0-10.239,2.233-14.417,6.635c-11.27,11.884-14.024,24.174-8.423,37.576c0.937,2.242,1.521,4.665,2.085,7.006
		c0.263,1.093,0.526,2.183,0.823,3.259l0.074,0.266l-1.268,0.277l-4.713-14.668c-3.302,9.044-3.862,17.571-1.828,27.528
		c1.273,6.23,4.811,11.025,10.812,14.66c3.526,2.133,6.974,3.218,10.247,3.218c3.344,0,6.347-1.131,8.921-3.354
		c5.832-5.039,9.627-15.149,5.75-21.597c-1.855-3.09-3.322-6.454-4.742-9.709c-2.52-5.78-5.126-11.76-9.986-16.307
		c-0.783-0.733-1.288-1.7-1.985-3.035c-0.374-0.717-0.798-1.531-1.347-2.459l0.388-0.335l14.518,11.633l-5.49-0.371
		c0.893,1.549,1.725,3.03,2.528,4.457c1.79,3.186,3.48,6.194,5.327,9.025c4.313,6.619,5.795,13.28,4.288,19.266
		c-1.504,5.969-5.951,11.119-12.859,14.885c-0.038,0.036-0.089,0.215-0.124,0.35C42.691,238.197,42.664,238.274,42.631,238.383z"/>
	<path fill="#BF5151" d="M327.089,155.023c-0.258,13.652-2.908,26.731-9.091,39.026c-0.686,1.359-0.895,3.351-0.488,4.813
		c6.556,23.602-2.526,42.945-25.222,53.396c-8.334,3.836-17.094,5.621-26.269,5.718c-1.667,0.018-3.44,0.958-4.958,1.834
		c-4.762,2.741-9.375,5.742-14.143,8.47c-3.533,2.022-7.563,3.32-10.778,5.729c-12.603,9.439-26.033,15.113-42.128,10.976
		c-0.971-0.25-2.19,0.032-3.189,0.372c-18.999,6.458-36.941,2.855-54.172-5.995c-3.112-1.599-5.64-1.79-8.889-0.991
		c-16.388,4.021-32.502,4.462-46.933-6.05c-4.425-3.221-7.435-8.77-12.155-11.094c-4.686-2.31-11.25-0.726-16.042-2.922
		c-11.788-5.404-23.156-11.799-34.567-17.975c-8.665-4.688-12.474-13.906-13.307-23.598c-0.578-6.723-0.076-13.59,0.468-20.349
		c0.718-8.923,1.423-17.902,3.09-26.681c2.247-11.843,8.651-21.27,18.813-28.085c1.455-0.975,2.756-2.979,3.086-4.703
		c1.927-10.163,6.39-18.839,13.996-25.901c1.128-1.047,2.12-2.373,2.796-3.752c3.73-7.598,9.223-13.521,16.17-18.337
		c2.657-1.839,4.555-4.738,6.932-7.016c15.358-14.719,33.783-20.494,54.799-18.769c1.641,0.135,3.516,0.05,4.97-0.619
		c22.283-10.196,44.236-11.029,65.954,1.699c1.884,1.105,4.529,1.388,6.792,1.294c13.736-0.556,26.71,1.993,38.926,8.482
		c1.964,1.039,4.576,1.419,6.827,1.257c10.468-0.759,19.545,2.921,28.229,8.178c1.164,0.706,2.472,1.52,3.766,1.616
		c14.239,1.05,29.089,13.785,33.463,31.698c0.624,2.562,2.141,5.16,3.917,7.141c7.286,8.118,8.819,18.007,9.333,28.286
		C327.129,153.117,327.089,154.07,327.089,155.023z M276.929,99.251c-5.984-7.579-14.958-11.087-25.204-11.389
		c-4.603-0.136-8.852-0.665-13.042-2.737c-3.943-1.944-8.154-3.416-12.348-4.768c-15.217-4.912-30.186-4.164-43.919,4.187
		c-7.904,4.804-15.137,10.865-22.104,17.006c-6.134,5.405-12.496,9.696-20.831,10.355c-8.435,0.668-14.781,4.434-18.297,12.614
		c-0.516-0.95-0.895-1.642-1.326-2.438c-9.087,4.955-14.884,12.43-19.666,21.092c-2.138,3.876-4.956,8.172-8.616,10.277
		c-16.368,9.417-24.486,28.8-18.875,46.626c1.909,6.067,5.609,10.03,11.656,12.134c4.314,1.503,8.712,3.119,12.566,5.511
		c12.57,7.8,24.281,6.199,34.496-6.099c-0.805,1.986-1.004,2.862-1.468,3.566c-4.728,7.169-11.766,10.058-19.968,9.764
		c-4.145-0.149-6.584,1.612-8.67,4.592c-0.964,1.375-1.729,2.892-2.584,4.34c-0.354-0.166-0.706-0.334-1.061-0.501
		c1.447-3.157,2.89-6.316,4.524-9.893c-7.836-4.331-16.009-8.849-24.18-13.366c-0.591,0.321-1.181,0.642-1.771,0.965
		c-0.235,8.33-1.326,16.741-0.554,24.974c3.307,35.286,36.267,38.504,55.267,28.323c-3.177-4.699-6.367-9.428-9.552-14.143
		c-9.769,7.179-14.461,8.948-20.122,7.698c3.67-1.527,7.728-2.836,11.392-4.857c3.824-2.108,7.266-4.904,10.918-7.43
		c6.326,24.967,40.747,37.556,64.416,26.615c-0.969-2.102-1.945-4.214-2.917-6.325c5.016,6.645,11.746,8.193,19.249,7.676
		c8.486-0.586,15.733-4.238,22.714-8.935c4.671-3.144,9.731-6.106,15.049-7.806c7.685-2.455,12.129-6.972,13.553-14.832
		c0.232-1.275,1.334-2.871,2.475-3.434c13.125-6.479,17.571-17.425,12.786-31.906c-3.637-0.371-7.28-0.734-10.999-1.115
		c6.637-1.12,12.994-2.194,20.111-3.396c-2.64,1.513-4.646,2.663-6.633,3.801c0.604,3.63,1.174,7.046,1.712,10.291
		c2.244,0.929,4.313,1.787,6.389,2.643c-0.088,0.307-0.172,0.613-0.256,0.923c-2.126,0-4.253,0-6.282,0
		c-2.844,11.066-5.471,14.552-14.523,20.514c-1.479,0.971-2.225,3.048-3.311,4.615c0.318,0.479,0.636,0.957,0.952,1.435
		c4.395,0,8.812,0.299,13.177-0.051c25.205-2.008,39.719-21.736,33.333-45.202c-0.316-1.158-1.302-2.133-2.429-3.909
		c0.118-0.186,0.91-1.331,1.605-2.534c9.032-15.666,14.043-32.323,10.966-50.489c-0.69-4.061-3.544-7.935-6.038-11.442
		c-1.335-1.879-4.118-3.266-5.109,1.514c0.492-8.665-0.851-16.354-5.079-23.375c-3.571-5.934-8.437-10.324-15.346-11.893
		C281.511,98.666,279.671,99.13,276.929,99.251z M72.184,246.812c-0.215-1.524-0.277-2.464-0.487-3.369
		c-2.302-9.887-2.517-19.723-0.146-29.688c0.623-2.624,0.277-5.924-0.777-8.43c-7.87-18.794-5.048-42.707,16.557-53.916
		c3.991-2.07,6.637-6.908,9.632-10.682c4.79-6.034,8.804-12.796,14.216-18.177c3.253-3.237,4.338-5.936,3.542-10.072
		c0.645,1.722,1.29,3.442,2.121,5.644c2.079-1.312,4.22-2.147,5.643-3.66c3.803-4.042,8.393-6.212,13.821-6.599
		c14.984-1.064,24.012-9.095,27.819-23.854c0.319,1.696,0.57,3.022,0.611,3.238c9.437-4.15,18.838-8.289,27.964-12.304
		c-18.094-11.262-37.517-12.47-57.121-1.723c-6.214,3.406-11.518,8.483-18.123,13.468c2.38,1.359,3.427,1.955,4.471,2.552
		c-0.165,0.119-0.331,0.237-0.495,0.354c-3.363-0.934-6.724-1.871-8.59-2.393c4.719-3.786,10.138-8.129,15.943-12.788
		c-1.15-0.412-1.715-0.777-2.289-0.797c-18.73-0.648-35.249,4.887-49.172,17.646c-2.132,1.955-4.148,4.082-6.494,5.746
		c-5.672,4.028-9.658,9.226-12.093,15.147c7.486,0,14.754,0,22.253,0c1.535-6.354,3.239-12.994,9.194-16.896
		c-1.987,5.207-3.966,10.458-5.997,15.686c-0.945,2.433-0.177,3.901,1.878,5.583c5.887,4.817,7.961,11.301,6.792,18.745
		c-1.136,7.231-6.798,13.186-13.075,13.649c0.992-0.559,1.656-0.978,2.357-1.323c7.485-3.684,9.492-10.167,9.067-17.844
		c-0.391-7.072-4.715-11.167-10.79-13.773c-15.511-6.656-35.181,4.747-37.875,21.916c-1.015,6.476-0.213,7.64,6.15,8.951
		c0.894,0.183,1.776,0.417,2.868,0.676c2.824-7.01,7.147-12.191,14.795-13.681c-8.243,5.475-12.542,13.723-16.295,22.506
		c0.121-1.846,0.238-3.695,0.375-5.779c-8.299-2.398-15.322-0.102-20.901,5.779c-10.259,10.815-14.611,23.175-8.474,37.857
		c1.357,3.247,1.952,6.814,2.898,10.231c-0.255,0.056-0.51,0.114-0.764,0.168c-1.505-4.684-3.01-9.367-4.872-15.16
		c-3.855,10.153-3.99,19.146-2.102,28.377c1.378,6.743,5.275,11.405,10.933,14.831c7.299,4.418,14.295,4.312,19.474-0.165
		c6.138-5.303,9.636-15.551,5.804-21.927c-5.15-8.57-7.138-18.92-14.773-26.072c-1.168-1.091-1.737-2.816-3.286-5.437
		c5.32,4.265,9.52,7.628,13.868,11.112c-1.377-0.092-2.65-0.179-5.148-0.348c3.039,5.251,5.368,9.717,8.108,13.92
		c8.679,13.318,5.512,26.146-8.479,33.778c-0.201,0.11-0.221,0.548-0.38,0.978C50.318,247.593,60.449,249.053,72.184,246.812z"/>
	<path fill="#FF6B6B" d="M169.094,276.503c-21.485,0-41.034-13.051-45.662-30.417c-1.005,0.702-1.995,1.422-2.983,2.143
		c-2.445,1.776-4.973,3.616-7.645,5.088c-2.575,1.423-5.344,2.489-8.021,3.525c-0.875,0.337-1.742,0.673-2.591,1.016
		c0.79,0.131,1.546,0.198,2.292,0.198c4.323,0,8.711-2.1,16.768-8.019l0.22-0.162l9.865,14.61l-0.256,0.137
		c-6.112,3.276-13.451,5.079-20.663,5.079c-7.469,0.003-32.065-2.419-34.988-33.606c-0.531-5.664-0.177-11.498,0.161-17.139
		c0.156-2.584,0.316-5.253,0.392-7.87l0.004-0.15l2.027-1.106l24.518,13.557l-4.516,9.877l0.608,0.288
		c0.222-0.379,0.438-0.765,0.655-1.151c0.565-1.003,1.147-2.04,1.818-2.999c2.316-3.303,4.832-4.711,8.41-4.711
		c0.159,0,0.322,0.004,0.487,0.008c0.374,0.015,0.743,0.021,1.109,0.021c8.131,0,14.4-3.254,18.631-9.67
		c0.27-0.412,0.446-0.891,0.738-1.683c0.046-0.128,0.099-0.266,0.153-0.411c-5.779,6.504-12.145,9.797-18.942,9.797
		c-4.749,0-9.759-1.618-14.898-4.807c-3.818-2.374-8.273-4.01-12.509-5.485c-6.007-2.09-9.875-6.114-11.822-12.303
		c-5.561-17.664,2.427-37.401,18.994-46.934c3.81-2.193,6.684-6.858,8.515-10.176c5.69-10.307,11.787-16.846,19.771-21.196
		l0.229-0.125l1.196,2.199c3.424-7.558,9.416-11.577,18.301-12.281c8.688-0.686,15.073-5.35,20.679-10.291
		c6.788-5.982,14.17-12.187,22.143-17.034c7.943-4.829,16.599-7.279,25.725-7.279c5.91,0,12.106,1.033,18.408,3.066
		c4.044,1.305,8.342,2.789,12.383,4.782c4.407,2.178,8.822,2.589,12.935,2.708c10.885,0.317,19.634,4.252,25.318,11.381
		c0.887-0.044,1.689-0.125,2.399-0.193c0.854-0.084,1.587-0.157,2.284-0.157c0.557,0,1.042,0.05,1.486,0.149
		c6.455,1.469,11.53,5.397,15.511,12.013c3.744,6.218,5.411,13.124,5.195,21.603c0.627-1.287,1.45-1.607,2.114-1.607
		c1.143,0,2.232,0.955,2.867,1.849l0.329,0.463c2.383,3.348,5.083,7.146,5.754,11.092c2.785,16.421-0.813,32.994-10.997,50.66
		c-0.571,0.993-1.213,1.951-1.486,2.359l-0.031,0.05c0.357,0.554,0.701,1.028,1.009,1.455c0.637,0.884,1.142,1.582,1.358,2.381
		c3.032,11.144,1.454,21.903-4.443,30.293c-6.207,8.824-16.549,14.238-29.123,15.239c-1.446,0.118-2.988,0.17-4.85,0.17
		c-1.392,0-2.786-0.12-4.178-0.153c-1.391-0.029-2.781-0.151-4.169-0.151h-0.138l-1.132-1.606l0.102-0.101
		c0.337-0.486,0.648-1.014,0.951-1.545c0.673-1.188,1.369-2.406,2.43-3.107c9.195-6.054,11.618-9.544,14.413-20.423l0.052-0.262
		h6.284l0.144-0.435l-6.306-2.576l-1.768-10.598l5.517-3.149l-16.749,2.83l9.239,0.939l0.054,0.161
		c4.801,14.534,0.332,25.678-12.921,32.225c-1.037,0.514-2.105,1.999-2.333,3.245c-1.397,7.714-5.759,12.491-13.731,15.036
		c-5.845,1.867-11.35,5.329-14.982,7.771c-5.708,3.839-13.464,8.331-22.842,8.975c-0.893,0.063-1.763,0.096-2.59,0.096
		c-6.701,0-11.709-2.015-15.593-6.307l2.18,4.729l-0.236,0.11C182.471,275.121,175.891,276.503,169.094,276.503z M172.966,264.242
		c0.844,0.025,1.575,0.038,2.276,0.038c5.663,0,11.472-0.761,15.755-6.134L172.966,264.242z M157.836,241.309
		c3.619,3.67,7.459,5.529,11.438,5.529c3.341,0,6.81-1.316,10.318-3.913c1.669-1.235,3.144-2.82,4.569-4.351
		c0.91-0.977,1.852-1.988,2.841-2.908c0.992-0.921,2.273-1.982,3.378-1.982c0.048,0,0.095,0.003,0.142,0.008
		c0.527,0.045,1.054,0.066,1.567,0.066c5.603,0,10.367-2.603,14.988-8.195c1.948-2.357,3.787-4.878,5.563-7.314
		c1.437-1.97,2.922-4.005,4.461-5.95c2.374-2.997,5.018-4.456,8.083-4.456c1.655,0,3.396,0.419,5.325,1.278
		c4.396,1.96,7.188,4.93,8.076,8.59c1.006,4.146-0.432,8.883-4.166,13.732c0.533-0.057,1.03-0.127,1.349-0.376
		c2.99-2.327,4.958-5.949,5.393-9.938c0.412-3.755-0.607-7.419-2.791-10.055c-2.496-3.01-6.893-4.882-11.479-4.882
		c-3.833,0-7.216,1.257-9.527,3.541c-2.535,2.498-4.68,5.499-6.754,8.396c-0.754,1.054-1.508,2.106-2.279,3.139
		c-3.572,4.775-7.704,9.268-13.701,9.801c-4.81,0.433-7.499,2.627-11.053,5.922c-5.233,4.847-10.528,7.303-15.74,7.303
		C164.509,244.292,161.152,243.29,157.836,241.309z M228.882,246.513c4.271-3.321,4.51-9.002,4.357-14.57l-2.228-2.515
		L228.882,246.513z M142.2,217.428l0.431-0.469l-7.89-7.541l7.191-4.079l-10.087,3.409L142.2,217.428z M171.615,212.742
		c1.073,0.053,2.175,0.162,3.239,0.271c1.441,0.145,2.936,0.296,4.371,0.296c1.02,0,1.921-0.074,2.754-0.23
		c4.809-0.891,8.296-2.271,10.662-4.221c2.701-2.229,5.021-5.916,6.052-9.629c0.902-3.245,0.87-7.351-0.089-11.563
		c-0.575-2.531-1.826-4.898-3.149-7.404c-0.584-1.108-1.19-2.256-1.743-3.435l-0.105-0.222l0.216-0.118
		c4.968-2.728,10.279-6.203,10.43-12.958c0.191-8.56,5.222-14.215,10.631-19.049c2.969-2.652,6.181-4.055,9.287-4.055
		c4.978,0,9.179,3.632,11.239,9.717c0.458,1.356,0.814,2.77,1.155,4.137c0.457,1.813,0.925,3.688,1.639,5.421
		c1.36,3.295,3.339,6.663,7.723,6.806c-4.12-1.889-5.353-5.797-6.319-9.982c-0.193-0.834-0.372-1.673-0.55-2.513
		c-0.407-1.917-0.826-3.903-1.436-5.779c-2.023-6.232-7.113-10.257-12.969-10.257c-3.481,0-6.813,1.401-9.631,4.055
		c-2.296,2.16-4.186,4.848-6.013,7.447c-0.956,1.361-1.943,2.769-2.986,4.09c-0.439,0.559-1.018,0.999-1.82,1.611
		c-0.426,0.325-0.922,0.703-1.503,1.177c0.004,0.403,0.025,0.885,0.05,1.428c0.072,1.642,0.171,3.89-0.128,6.068
		c-0.594,4.34-3.199,7.751-8.195,10.735c-0.813,0.487-1.568,0.724-2.301,0.724c-1.403,0-2.458-0.867-3.479-1.707
		c-0.767-0.633-1.491-1.228-2.34-1.468c-0.257-0.073-0.512-0.163-1.06-0.358c-0.067-0.023-0.14-0.052-0.217-0.077
		c7.746,6.746,10.702,10.856,12.406,17.042c1.578,5.729,0.444,11.695-3.111,16.365c-3.435,4.51-8.59,7.094-14.139,7.094
		c-0.817,0-1.649-0.055-2.473-0.166c-1.763-0.241-3.47-0.726-5.278-1.236c-0.695-0.199-1.402-0.397-2.126-0.589
		c0.364,1.066,0.694,2.03,1.017,2.965l0.045-0.443L171.615,212.742z M105.559,195.874c0.501,0.236,0.997,0.478,1.484,0.713
		c3.647,1.771,7.09,3.441,11.355,3.441c0.214,0,0.43-0.005,0.648-0.014c5.16-0.213,9.208-2.093,11.399-5.293
		c2.156-3.149,2.442-7.313,0.829-12.04c-0.185-0.539-0.368-1.08-0.562-1.662l-0.43-1.284l0.26-0.076
		c4.601-1.363,6.463-4.568,7.979-9.292c2.373-7.42,5.131-9.684,11.801-9.684c0.779,0,1.618,0.03,2.564,0.093
		c0.58,0.038,1.157,0.095,1.736,0.153c0.529,0.052,1.057,0.103,1.585,0.141c0.853,0.059,1.672,0.087,2.437,0.087
		c8.939,0.001,12.875-3.965,14.039-14.147l0.019-0.177l0.174-0.046c6.861-1.787,11.98-5.797,13.694-10.728
		c1.014-2.915,0.702-5.926-0.861-8.614c0.8,3.854,0.394,7.302-1.195,10.04c-1.672,2.879-4.639,4.928-8.583,5.922
		c-0.681,0.172-1.261,0.254-1.776,0.255c-1.547,0-2.673-0.753-3.881-2.6c-1.353-2.062-3.228-3.851-5.039-5.579
		c-0.344-0.328-0.693-0.661-1.042-1c0.588,0.982,1.219,1.923,1.836,2.842c1.316,1.961,2.558,3.813,3.309,5.888
		c1.56,4.305,1.396,8.025-0.474,10.76c-1.922,2.813-5.466,4.359-10.25,4.475c-1.216,0.028-2.43,0.044-3.645,0.06
		c-2.233,0.026-4.544,0.056-6.808,0.176c-5.366,0.292-8.66,3.06-9.792,8.223c-1.183,5.397-2.858,10.8-9.065,12.46
		c0.569,7.502-0.235,11.835-2.676,14.477c-1.999,2.164-5.162,3.172-9.952,3.172C113.758,197.019,110.188,196.651,105.559,195.874z
		 M162.334,185.599c-5.96,0-10.982,4.563-15.721,14.322c0.667-0.811,1.318-1.619,1.956-2.414c2.378-2.951,4.623-5.74,7.217-8.24
		c1.974-1.907,4.355-2.831,7.277-2.831c1.986,0,4.036,0.415,6.054,0.893C166.69,186.167,164.457,185.599,162.334,185.599z
		 M218.564,189.291l6.573-8.646l9.021,1.341c-0.851-1.147-2.454-1.297-4.144-1.456c-2.499-0.237-5.303-0.502-5.712-4.295
		l-6.09,12.768C218.328,189.097,218.446,189.195,218.564,189.291z M250.174,186.81c2.416,0.803,4.841,1.211,7.231,1.211
		c7.771,0,14.974-4.187,20.827-12.108c2.047-2.771,3.381-6.55,3.48-9.862c0.268-8.842-5.484-15.015-10.527-19.402l-0.239-0.209
		l6.36-4.95c-0.056-0.081-0.114-0.159-0.17-0.237c-3.024,1.457-6.054,2.918-9.532,4.597c7.617,5.906,13.975,12.825,9.844,23.206
		c-4.8,12.059-12.629,17.923-23.939,17.923C252.435,186.976,251.318,186.92,250.174,186.81z M298.991,171.179l1.042-13.181
		l1.875-0.81l-4.941-0.583l1.773,14.525L298.991,171.179z M110.771,161.319c3.382-16.35,6.415-20.069,20.347-22.859
		c-1.458-0.156-2.823-0.288-4.074-0.288c-10.902,0-15.892,5.928-17.799,20.68l-0.029,0.409h-8.74L110.771,161.319z M222.414,133.495
		c-0.294-5.545-1.874-9.734-4.929-13.113c-1.265-1.401-1.426-4.378-1.18-6.501c0.287-2.447,1.12-4.365,2.232-5.133
		c3.842-2.654,8.431-4.115,12.922-4.115c8.827,0,15.7,5.45,17.506,13.884c0.411,1.919,0.811,3.838,1.238,5.887l0.175,0.844
		c0.178-6.841-2.038-13.397-6.09-17.843c-3.423-3.754-7.929-5.738-13.033-5.738c-4.398,0-9.179,1.449-14.217,4.308l-0.206,0.118
		l-0.136-0.196c-4.887-6.959-10.756-10.637-16.979-10.637c-3.569,0-7.142,1.207-10.628,3.591c3.721-0.784,7.045-1.184,9.902-1.184
		c5.667,0,9.76,1.572,12.17,4.672c3.101,3.989,3.529,10.372,1.303,19.496l2.516-1.898l0.146,0.266l-0.23,0.126l0.258-0.073
		C217.638,124.786,219.997,129.083,222.414,133.495z"/>
	<path fill="#FF6B6B" d="M276.929,99.251c2.742-0.122,4.582-0.585,6.233-0.213c6.911,1.572,11.775,5.961,15.346,11.894
		c4.226,7.022,5.571,14.714,5.078,23.377c0.992-4.78,3.771-3.396,5.109-1.516c2.492,3.512,5.347,7.383,6.038,11.447
		c3.079,18.165-1.936,34.82-10.965,50.486c-0.694,1.206-1.488,2.351-1.605,2.538c1.128,1.772,2.112,2.744,2.426,3.905
		c6.387,23.467-8.127,43.194-33.333,45.203c-4.365,0.349-8.782,0.05-13.177,0.05c-0.318-0.476-0.636-0.956-0.953-1.433
		c1.086-1.566,1.834-3.644,3.311-4.618c9.052-5.96,11.682-9.445,14.523-20.514c2.03,0,4.155,0,6.28,0
		c0.088-0.303,0.172-0.614,0.258-0.921c-2.073-0.856-4.142-1.717-6.387-2.644c-0.538-3.248-1.109-6.657-1.713-10.291
		c1.983-1.137,3.991-2.287,6.633-3.798c-7.116,1.198-13.473,2.277-20.111,3.394c3.719,0.379,7.36,0.745,11,1.114
		c4.783,14.482,0.336,25.426-12.787,31.908c-1.139,0.563-2.242,2.158-2.474,3.432c-1.425,7.862-5.867,12.379-13.552,14.835
		c-5.317,1.698-10.376,4.662-15.051,7.803c-6.979,4.699-14.227,8.352-22.713,8.935c-7.504,0.519-14.236-1.029-19.247-7.675
		c0.972,2.112,1.947,4.225,2.917,6.323c-23.67,10.941-58.091-1.644-64.421-26.614c-3.649,2.526-7.09,5.323-10.913,7.43
		c-3.665,2.022-7.724,3.33-11.393,4.858c5.661,1.251,10.353-0.521,20.123-7.699c3.186,4.715,6.375,9.443,9.55,14.144
		c-18.999,10.179-51.96,6.964-55.268-28.322c-0.771-8.235,0.318-16.646,0.554-24.973c0.591-0.324,1.178-0.642,1.769-0.966
		c8.171,4.521,16.344,9.038,24.18,13.37c-1.636,3.572-3.08,6.73-4.522,9.889c0.351,0.167,0.706,0.335,1.059,0.504
		c0.854-1.45,1.621-2.964,2.583-4.341c2.09-2.982,4.529-4.739,8.674-4.593c8.199,0.293,15.24-2.598,19.969-9.765
		c0.462-0.702,0.66-1.577,1.467-3.565c-10.214,12.296-21.925,13.901-34.499,6.096c-3.849-2.389-8.25-4.008-12.562-5.51
		c-6.051-2.104-9.749-6.065-11.659-12.132c-5.612-17.828,2.507-37.211,18.875-46.628c3.659-2.106,6.478-6.401,8.614-10.276
		c4.783-8.663,10.579-16.138,19.666-21.092c0.433,0.795,0.809,1.487,1.325,2.435c3.516-8.178,9.862-11.944,18.296-12.613
		c8.338-0.657,14.699-4.951,20.832-10.355c6.966-6.14,14.204-12.202,22.108-17.007c13.733-8.349,28.698-9.097,43.918-4.187
		c4.195,1.354,8.405,2.824,12.345,4.77c4.195,2.072,8.443,2.602,13.045,2.736C261.974,88.165,270.945,91.672,276.929,99.251z
		 M233.499,231.827c0.82-0.173,1.838-0.094,2.433-0.557c6.225-4.845,7.447-14.569,2.641-20.368
		c-4.862-5.867-15.856-6.829-21.392-1.361c-3.457,3.414-6.122,7.642-9.06,11.568c-3.503,4.682-7.537,9.164-13.514,9.697
		c-4.959,0.447-7.785,2.816-11.208,5.991c-7.932,7.345-17.075,10.267-27.16,3.158c7.118,8.283,15.121,9.391,23.506,3.182
		c2.756-2.042,4.893-4.918,7.433-7.279c0.93-0.862,2.264-1.998,3.32-1.907c7.307,0.615,12.487-3.029,16.78-8.225
		c3.526-4.269,6.588-8.919,10.027-13.267c3.602-4.552,7.826-5.453,13.094-3.104c9.653,4.304,10.922,13.224,3.239,22.645
		c-1.302-1.469-2.602-2.938-3.907-4.406c0.403,0.095,0.805,0.193,1.206,0.288c-0.828,6.643-1.659,13.289-2.395,19.197
		C233.293,243.814,233.67,237.924,233.499,231.827z M172.944,147.041c12.324-3.209,18.026-13.211,12.162-20.972
		c2.405,8.647-1.1,15.033-9.239,17.085c-2.497,0.633-3.835,0.116-5.374-2.233c-1.959-2.988-4.91-5.322-7.435-7.94
		c1.921,3.762,4.749,6.763,6.037,10.324c3.197,8.826-1.157,14.659-10.484,14.885c-3.487,0.085-6.98,0.051-10.459,0.237
		c-5.404,0.296-8.845,3.003-10.033,8.429c-1.216,5.559-2.973,10.793-9.087,12.317c1.324,16.815-3.994,19.988-25.449,16.089
		c4.987,2.146,9.49,5.258,15.476,5.015c10.589-0.435,15.892-7.645,12.465-17.679c-0.289-0.844-0.566-1.689-0.904-2.688
		c4.991-1.478,6.784-5.19,8.152-9.463c2.587-8.084,5.584-9.976,14.102-9.407c1.108,0.072,2.212,0.216,3.318,0.293
		C167.059,162.075,171.666,158.218,172.944,147.041z M183.806,170.987c8.568,7.324,11.648,11.548,13.375,17.823
		c3.471,12.596-6.717,24.697-19.436,22.959c-2.571-0.349-5.067-1.235-7.844-1.938c0.577,1.691,1.064,3.114,1.557,4.539
		c0.049-0.457,0.099-0.912,0.146-1.368c3.483,0.166,7.083,0.953,10.426,0.334c3.772-0.698,7.921-1.92,10.781-4.275
		c2.851-2.349,5.139-6.163,6.136-9.763c1.012-3.635,0.769-7.939-0.086-11.688c-0.845-3.714-3.132-7.1-4.911-10.892
		c5.172-2.84,10.414-6.372,10.566-13.182c0.186-8.353,4.979-13.886,10.544-18.86c7.892-7.052,16.708-4.476,20.103,5.55
		c1.066,3.149,1.54,6.518,2.801,9.574c1.632,3.958,3.987,7.429,9.251,6.924c-5.05-1.625-6.333-5.846-7.353-10.26
		c-0.643-2.778-1.113-5.613-1.99-8.314c-3.436-10.584-14.968-13.896-23.029-6.312c-3.518,3.311-5.996,7.718-9.022,11.567
		c-0.657,0.833-1.651,1.401-3.381,2.827c0,1.604,0.327,4.644-0.075,7.585c-0.675,4.918-3.908,8.057-8.073,10.547
		c-3.782,2.26-5.267-1.73-7.915-2.481C185.954,171.764,185.545,171.596,183.806,170.987z M187.907,99.378
		c20.566-4.708,29.56,1.799,24.124,23.11c0.536-0.403,1.385-1.043,2.863-2.161c2.68,4.884,5.208,9.495,7.823,14.265
		c-0.12-5.405-1.344-10.299-5.037-14.384c-1.979-2.19-1.458-9.543,1.006-11.244c11.168-7.715,27.017-4.431,30.024,9.608
		c0.588,2.756,1.158,5.515,1.815,8.65c1.537-16.651-11.278-34.15-33.615-21.475C208.775,94.157,197.98,91.783,187.907,99.378z
		 M267.109,145.796c7.893,6.062,14.163,12.943,10.096,23.159c-4.854,12.199-13.566,19.675-29.156,17.33
		c11.152,4.75,22.179,0.901,30.393-10.219c2.032-2.748,3.429-6.611,3.531-10.01c0.253-8.326-4.67-14.431-10.616-19.608
		c2.316-1.8,4.311-3.355,6.308-4.908c-0.149-0.21-0.296-0.416-0.447-0.621C274.022,142.46,270.824,144.002,267.109,145.796z
		 M108.985,158.589c-3.447,0-6.621,0-10.92,0c5.153,1.131,9.038,1.986,12.909,2.838c3.514-17.102,6.486-20.274,21.818-23.125
		C117.63,136.176,111.19,141.53,108.985,158.589z M145.513,201.655c3.613-4.272,6.705-8.581,10.457-12.2
		c4.399-4.244,9.893-2.647,15.131-1.372C160.391,181.906,152.586,186.034,145.513,201.655z M224.513,175.184
		c-2.264,4.743-4.447,9.316-6.626,13.891c0.241,0.195,0.48,0.394,0.72,0.596c2.16-2.846,4.322-5.691,6.646-8.744
		c3.196,0.475,6.578,0.979,9.413,1.398C232.721,178.229,224.477,182.975,224.513,175.184z M171.535,264.448
		c7.815,0.338,15.176,0.108,20.186-6.823C185.071,259.873,178.458,262.109,171.535,264.448z M296.668,156.305
		c0.642,5.262,1.239,10.155,1.835,15.045c0.243,0.048,0.486,0.096,0.727,0.141c0.346-4.368,0.69-8.734,1.052-13.316
		c0.261-0.114,1.011-0.437,2.628-1.133C300.158,156.719,298.444,156.516,296.668,156.305z M142.225,217.788
		c0.258-0.281,0.516-0.563,0.774-0.844c-2.564-2.454-5.134-4.909-7.821-7.477c3.007-1.704,5.076-2.879,7.146-4.051
		c-0.082-0.136-0.164-0.271-0.245-0.405c-3.274,1.105-6.553,2.213-10.758,3.637C135.218,211.914,138.724,214.854,142.225,217.788z"
		/>
	<path fill="#FF6B6B" d="M63.189,248.002c-8.653,0-15.542-3.053-21.053-9.331l-0.103-0.119l0.054-0.146
		c0.051-0.141,0.088-0.282,0.121-0.41c0.08-0.312,0.148-0.581,0.378-0.709c6.778-3.698,11.137-8.732,12.605-14.557
		c1.471-5.836,0.013-12.355-4.219-18.848c-1.856-2.846-3.55-5.86-5.345-9.054c-0.873-1.555-1.783-3.174-2.768-4.876l-0.245-0.426
		l4.803,0.326c-3.827-3.068-7.586-6.079-12.152-9.742c0.251,0.461,0.475,0.891,0.683,1.289c0.674,1.294,1.162,2.231,1.881,2.903
		c4.937,4.621,7.563,10.647,10.106,16.475c1.414,3.241,2.874,6.591,4.712,9.65c4.011,6.672,0.133,17.087-5.856,22.264
		c-2.673,2.31-5.79,3.479-9.265,3.479c-3.372,0-6.911-1.106-10.519-3.292c-6.132-3.712-9.748-8.62-11.051-15.002
		c-2.11-10.32-1.458-19.117,2.114-28.525l0.265-0.697l5.028,15.646l0.264-0.057c-0.27-0.995-0.511-2-0.754-3.008
		c-0.561-2.322-1.139-4.723-2.058-6.926c-5.69-13.609-2.903-26.083,8.523-38.136c4.279-4.511,9.257-6.8,14.795-6.8
		c2.048,0,4.19,0.319,6.369,0.95l0.202,0.057l-0.289,4.481c3.149-7.212,7.226-15.043,14.676-20.458
		c-6.074,1.603-10.32,5.838-13.295,13.223l-0.084,0.208l-1.257-0.305c-0.645-0.157-1.23-0.302-1.822-0.421
		c-6.502-1.336-7.394-2.634-6.357-9.249c2.084-13.268,14.921-24.06,28.616-24.06c3.374,0,6.611,0.655,9.621,1.947
		c7.014,3.006,10.596,7.585,10.949,13.999c0.498,9.006-2.43,14.754-9.213,18.092c-0.382,0.187-0.754,0.398-1.177,0.644
		c5.565-1.127,10.49-6.678,11.521-13.249c1.204-7.656-1.05-13.882-6.697-18.502c-1.987-1.627-3.007-3.179-1.955-5.882
		c1.45-3.734,2.874-7.48,4.294-11.214l1.402-3.682c-5.426,3.981-7.001,10.361-8.396,16.131l-0.048,0.069H58.34l0.148-0.231
		c2.548-6.195,6.647-11.264,12.183-15.196c1.701-1.21,3.263-2.662,4.775-4.099c0.562-0.535,1.125-1.053,1.695-1.578
		c12.862-11.788,28.483-17.756,46.424-17.756c0.973,0,1.946,0.02,2.93,0.054c0.413,0.015,0.796,0.178,1.326,0.4
		c0.289,0.122,0.628,0.266,1.043,0.415l0.441,0.156l-15.913,12.764l7.977,2.224l0.065-0.046l-4.465-2.544l0.318-0.239
		c2.134-1.61,4.136-3.232,6.072-4.802c4.042-3.276,7.858-6.37,12.082-8.686c9.032-4.952,18.23-7.462,27.346-7.462
		c10.134,0,20.241,3.092,30.037,9.189l0.422,0.263l-28.714,12.639l-0.463-2.435c-4.059,14.395-13.148,21.903-27.755,22.94
		c-5.419,0.388-9.885,2.519-13.648,6.52c-0.996,1.057-2.313,1.785-3.708,2.554c-0.65,0.359-1.324,0.731-1.984,1.146l-0.271,0.171
		l-1.479-3.936c0.095,3.008-1.073,5.377-3.869,8.158c-3.492,3.471-6.455,7.603-9.324,11.595c-1.564,2.179-3.181,4.43-4.87,6.559
		c-0.745,0.94-1.487,1.97-2.203,2.965c-2.195,3.052-4.466,6.206-7.514,7.787c-21.942,11.38-23.901,35.753-16.437,53.581
		c1.098,2.621,1.407,5.993,0.79,8.595c-2.289,9.629-2.242,19.3,0.147,29.568c0.146,0.605,0.221,1.229,0.316,2.018
		c0.05,0.403,0.105,0.854,0.178,1.369l0.036,0.246l-0.244,0.05C68.943,247.696,65.986,248.002,63.189,248.002z"/>
	<path fill="#FF6B6B" d="M72.184,246.812c-11.734,2.241-21.865,0.779-29.851-8.315c0.158-0.431,0.179-0.868,0.379-0.978
		c13.99-7.633,17.16-20.46,8.479-33.776c-2.74-4.202-5.069-8.668-8.106-13.918c2.497,0.168,3.769,0.255,5.146,0.347
		c-4.35-3.483-8.548-6.847-13.867-11.117c1.548,2.624,2.119,4.349,3.285,5.441c7.637,7.147,9.622,17.501,14.773,26.072
		c3.834,6.375,0.334,16.623-5.803,21.928c-5.178,4.475-12.175,4.582-19.476,0.16c-5.656-3.425-9.552-8.085-10.93-14.828
		c-1.888-9.229-1.754-18.228,2.102-28.38c1.862,5.795,3.368,10.479,4.871,15.161c0.255-0.054,0.512-0.108,0.766-0.164
		c-0.946-3.421-1.542-6.985-2.897-10.233c-6.14-14.683-1.786-27.038,8.472-37.857c5.579-5.883,12.605-8.177,20.901-5.778
		c-0.134,2.083-0.253,3.933-0.373,5.778c3.75-8.779,8.051-17.029,16.293-22.505c-7.647,1.49-11.97,6.67-14.795,13.68
		c-1.091-0.258-1.973-0.491-2.867-0.675c-6.361-1.308-7.165-2.477-6.15-8.952c2.696-17.167,22.363-28.572,37.875-21.915
		c6.075,2.604,10.399,6.701,10.792,13.774c0.423,7.677-1.582,14.159-9.067,17.843c-0.7,0.344-1.363,0.762-2.358,1.321
		c6.28-0.461,11.942-6.419,13.075-13.649c1.17-7.445-0.903-13.93-6.789-18.745c-2.057-1.683-2.824-3.152-1.878-5.584
		c2.028-5.229,4.009-10.478,5.996-15.688c-5.958,3.906-7.659,10.543-9.197,16.896c-7.499,0-14.767,0-22.253,0
		c2.435-5.922,6.421-11.119,12.092-15.146c2.343-1.665,4.363-3.791,6.497-5.745c13.924-12.76,30.441-18.296,49.169-17.646
		c0.575,0.019,1.139,0.387,2.291,0.796c-5.81,4.662-11.223,9.001-15.945,12.788c1.867,0.521,5.229,1.457,8.588,2.395
		c0.167-0.119,0.333-0.237,0.497-0.356c-1.046-0.595-2.093-1.194-4.472-2.551c6.605-4.982,11.907-10.059,18.123-13.468
		c19.602-10.748,39.026-9.542,57.119,1.722c-9.126,4.016-18.526,8.155-27.962,12.305c-0.042-0.216-0.291-1.541-0.611-3.236
		c-3.808,14.758-12.835,22.786-27.82,23.852c-5.428,0.386-10.016,2.559-13.821,6.599c-1.423,1.514-3.564,2.349-5.642,3.659
		c-0.828-2.202-1.475-3.92-2.122-5.643c0.796,4.135-0.29,6.836-3.543,10.071c-5.41,5.38-9.424,12.142-14.214,18.178
		c-2.995,3.776-5.641,8.612-9.633,10.683c-21.604,11.206-24.426,35.124-16.558,53.916c1.052,2.507,1.401,5.806,0.777,8.431
		c-2.37,9.968-2.153,19.799,0.146,29.689C71.907,244.348,71.969,245.287,72.184,246.812z"/>
	<path fill="#BF5151" d="M172.944,147.041c-1.278,11.177-5.885,15.032-16.753,14.288c-1.109-0.075-2.211-0.216-3.318-0.291
		c-8.518-0.569-11.515,1.324-14.103,9.407c-1.369,4.271-3.161,7.984-8.151,9.463c0.338,1.002,0.615,1.847,0.901,2.688
		c3.429,10.032-1.874,17.245-12.465,17.679c-5.986,0.244-10.487-2.865-15.473-5.013c21.454,3.899,26.771,0.726,25.449-16.091
		c6.111-1.524,7.869-6.759,9.085-12.319c1.189-5.423,4.632-8.132,10.034-8.426c3.479-0.187,6.972-0.153,10.46-0.237
		c9.328-0.224,13.682-6.057,10.484-14.885c-1.289-3.559-4.116-6.562-6.037-10.323c2.523,2.616,5.476,4.954,7.434,7.94
		c1.538,2.349,2.877,2.864,5.377,2.234c8.136-2.054,11.643-8.44,9.235-17.087C190.967,133.832,185.269,143.833,172.944,147.041z"/>
	<path fill="#BF5151" d="M183.806,170.987c1.739,0.607,2.147,0.775,2.571,0.894c2.652,0.746,4.132,4.742,7.917,2.481
		c4.163-2.49,7.396-5.629,8.072-10.549c0.403-2.941,0.072-5.981,0.072-7.583c1.732-1.427,2.725-1.993,3.382-2.828
		c3.029-3.85,5.503-8.26,9.02-11.568c8.062-7.584,19.595-4.271,23.03,6.31c0.879,2.703,1.346,5.538,1.99,8.316
		c1.021,4.414,2.306,8.632,7.354,10.26c-5.262,0.501-7.621-2.967-9.252-6.925c-1.26-3.056-1.734-6.425-2.798-9.574
		c-3.397-10.026-12.214-12.603-20.104-5.552c-5.565,4.976-10.357,10.51-10.542,18.861c-0.153,6.81-5.398,10.34-10.566,13.181
		c1.778,3.794,4.064,7.179,4.91,10.893c0.852,3.751,1.097,8.054,0.088,11.692c-0.999,3.595-3.29,7.407-6.14,9.76
		c-2.858,2.358-7.009,3.578-10.783,4.276c-3.338,0.615-6.938-0.169-10.423-0.336c-0.048,0.456-0.098,0.913-0.145,1.367
		c-0.488-1.421-0.978-2.846-1.557-4.537c2.78,0.7,5.275,1.588,7.846,1.94c12.714,1.736,22.906-10.364,19.436-22.963
		C195.453,182.535,192.372,178.313,183.806,170.987z"/>
	<path fill="#BF5151" d="M233.626,231.987c7.695-9.403,6.428-18.325-3.224-22.63c-5.269-2.348-9.493-1.446-13.095,3.104
		c-3.439,4.348-6.502,8.998-10.029,13.269c-4.294,5.193-9.47,8.838-16.78,8.223c-1.056-0.093-2.389,1.043-3.319,1.908
		c-2.542,2.362-4.677,5.234-7.436,7.28c-8.386,6.207-16.388,5.103-23.504-3.182c10.084,7.106,19.227,4.188,27.157-3.162
		c3.425-3.169,6.251-5.543,11.208-5.987c5.978-0.532,10.014-5.018,13.514-9.698c2.938-3.926,5.604-8.157,9.06-11.565
		c5.537-5.471,16.531-4.507,21.391,1.36c4.808,5.798,3.585,15.521-2.637,20.367c-0.597,0.461-1.613,0.382-2.435,0.555
		L233.626,231.987z"/>
	<path fill="#BF5151" d="M187.907,99.378c10.073-7.595,20.867-5.22,29.002,6.368c22.336-12.675,35.152,4.824,33.615,21.476
		c-0.658-3.135-1.228-5.895-1.815-8.65c-3.007-14.039-18.856-17.323-30.024-9.609c-2.464,1.701-2.985,9.055-1.006,11.244
		c3.693,4.088,4.917,8.982,5.037,14.387c-2.615-4.773-5.142-9.383-7.823-14.266c-1.479,1.118-2.327,1.76-2.863,2.164
		C217.468,101.177,208.475,94.668,187.907,99.378z"/>
	<path fill="#BF5151" d="M267.109,145.796c3.715-1.792,6.913-3.335,10.109-4.875c0.15,0.204,0.295,0.411,0.448,0.621
		c-2,1.553-3.997,3.109-6.308,4.908c5.943,5.176,10.868,11.282,10.615,19.608c-0.102,3.396-1.501,7.261-3.532,10.011
		c-8.214,11.12-19.237,14.971-30.389,10.219c15.589,2.345,24.299-5.131,29.156-17.33
		C281.272,158.737,275.001,151.856,267.109,145.796z"/>
	<path fill="#BF5151" d="M108.985,158.589c2.205-17.059,8.645-22.412,23.805-20.286c-15.333,2.851-18.305,6.021-21.818,23.125
		c-3.87-0.852-7.755-1.707-12.909-2.838C102.365,158.589,105.538,158.589,108.985,158.589z"/>
	<path fill="#BF5151" d="M233.499,231.827c0.171,6.097-0.205,11.988-4.95,15.255c0.733-5.906,1.565-12.554,2.394-19.197
		c-0.402-0.096-0.803-0.195-1.206-0.288c1.303,1.472,2.603,2.938,3.9,4.4C233.626,231.987,233.499,231.827,233.499,231.827z"/>
	<path fill="#BF5151" d="M145.513,201.655c7.073-15.621,14.879-19.749,25.587-13.575c-5.237-1.273-10.731-2.873-15.131,1.373
		C152.218,193.074,149.125,197.381,145.513,201.655z"/>
	<path fill="#BF5151" d="M224.513,175.184c-0.036,7.791,8.208,3.045,10.152,7.142c-2.834-0.421-6.217-0.925-9.415-1.398
		c-2.321,3.054-4.483,5.899-6.644,8.743c-0.241-0.2-0.48-0.4-0.721-0.596C220.067,184.5,222.249,179.929,224.513,175.184z"/>
	<path fill="#BF5151" d="M171.535,264.448c6.923-2.339,13.536-4.576,20.186-6.823C186.712,264.559,179.351,264.788,171.535,264.448z
		"/>
	<path fill="#BF5151" d="M296.668,156.305c1.777,0.209,3.49,0.414,6.241,0.737c-1.617,0.696-2.366,1.018-2.628,1.133
		c-0.364,4.582-0.707,8.948-1.053,13.316c-0.24-0.046-0.483-0.093-0.726-0.141C297.907,166.461,297.31,161.569,296.668,156.305z"/>
	<path fill="#BF5151" d="M142.225,217.788c-3.501-2.935-7.007-5.871-10.905-9.14c4.205-1.424,7.48-2.531,10.758-3.637
		c0.082,0.135,0.164,0.27,0.245,0.405c-2.07,1.172-4.138,2.348-7.146,4.051c2.687,2.567,5.257,5.021,7.821,7.477
		C142.741,217.227,142.483,217.508,142.225,217.788z"/>
</g>
<g>
	<g>
		<g enable-background="new    ">
			<g enable-background="new    ">
				<g>
					<defs>
						<path id="SVGID_1_" d="M253.821,161.943l10.573-0.594c-3.097,0.174-5.481,4.094-5.39,8.979
							c0.094,5.077,2.816,9.281,6.082,9.396c0.118,0.004,0.234,0.003,0.351-0.004l-10.572,0.595
							c-0.116,0.006-0.234,0.008-0.352,0.004c-3.265-0.114-5.987-4.318-6.081-9.396
							C248.342,166.036,250.725,162.118,253.821,161.943z"/>
					</defs>
					<clipPath id="SVGID_2_">
						<use xlink:href="#SVGID_1_"  overflow="visible"/>
					</clipPath>
					<g clip-path="url(#SVGID_2_)" enable-background="new    ">
						<path fill="#D4D4D4" d="M253.821,161.943l10.573-0.594c-0.19,0.011-0.378,0.035-0.562,0.073l-10.572,0.595
							C253.444,161.979,253.632,161.954,253.821,161.943"/>
						<path fill="#D6D6D6" d="M253.26,162.017l10.572-0.595c-0.313,0.066-0.619,0.17-0.912,0.31l-10.573,0.595
							C252.641,162.187,252.947,162.082,253.26,162.017"/>
						<path fill="#D7D7D7" d="M252.348,162.326l10.573-0.595c-0.333,0.159-0.651,0.362-0.951,0.607l-10.572,0.594
							C251.697,162.688,252.016,162.484,252.348,162.326"/>
						<path fill="#D9D9D9" d="M251.397,162.935l10.572-0.595c-0.443,0.361-0.848,0.811-1.209,1.335l-10.572,0.593
							C250.548,163.743,250.955,163.293,251.397,162.935"/>
						<path fill="#DBDBDB" d="M250.188,164.268l10.572-0.594c-0.595,0.865-1.064,1.934-1.369,3.142l-10.572,0.595
							C249.124,166.204,249.592,165.134,250.188,164.268"/>
						<path fill="#D9D9D9" d="M248.819,167.41l10.572-0.595c-0.176,0.699-0.296,1.443-0.353,2.221l-10.572,0.595
							C248.524,168.854,248.643,168.109,248.819,167.41"/>
						<path fill="#D7D7D7" d="M248.466,169.631l10.572-0.595c-0.03,0.421-0.042,0.852-0.034,1.292
							c0.002,0.119,0.006,0.24,0.012,0.358l-10.573,0.595c-0.005-0.118-0.008-0.239-0.011-0.359
							C248.425,170.483,248.437,170.052,248.466,169.631"/>
						<path fill="#D6D6D6" d="M248.444,171.281l10.573-0.595c0.022,0.505,0.069,0.998,0.14,1.48l-10.571,0.595
							C248.513,172.278,248.465,171.785,248.444,171.281"/>
						<path fill="#D4D4D4" d="M248.585,172.76l10.571-0.594c0.073,0.496,0.173,0.979,0.294,1.443l-10.572,0.594
							C248.757,173.738,248.659,173.257,248.585,172.76"/>
						<path fill="#D3D3D3" d="M248.878,174.205l10.572-0.595c0.142,0.547,0.317,1.07,0.519,1.563l-10.573,0.594
							C249.195,175.274,249.021,174.75,248.878,174.205"/>
						<path fill="#D1D1D1" d="M249.397,175.768l10.573-0.595c1.089,2.661,2.987,4.476,5.117,4.55
							c0.118,0.004,0.234,0.003,0.351-0.004l-10.572,0.596c-0.116,0.006-0.234,0.006-0.352,0.002
							C252.384,180.243,250.486,178.429,249.397,175.768"/>
					</g>
				</g>
			</g>
			<g>
				<path fill="#F1F1F1" d="M264.744,161.346c3.266,0.114,5.987,4.327,6.082,9.396c0.095,5.075-2.475,9.096-5.739,8.982
					c-3.266-0.113-5.987-4.317-6.082-9.396C258.911,165.261,261.479,161.231,264.744,161.346z"/>
			</g>
		</g>
	</g>
</g>
<path fill="none" stroke="#424242" stroke-width="11" stroke-miterlimit="10" d="M485.903,237.177
	c-18.045-9.022-65.245,33.439-107.741,30.783c-50.952-3.185-56.79-103.495-112.519-97.126"/>
<ellipse transform="matrix(0.0994 0.995 -0.995 0.0994 409.0723 -110.3249)" fill="#424242" cx="265.483" cy="170.821" rx="5.895" ry="1.907"/>
<g>
	
		<rect x="455.65" y="161.28" fill="#FFFFFF" stroke="#C9C9C9" stroke-width="7" stroke-linejoin="round" stroke-miterlimit="10" width="130.564" height="130.563"/>
	<polygon fill="#FFFFFF" stroke="#C9C9C9" stroke-width="7" stroke-linejoin="round" stroke-miterlimit="10" points="
		625.667,266.366 585.153,292.905 585.153,162.342 625.667,135.802 	"/>
	<polygon fill="#FFFFFF" stroke="#C9C9C9" stroke-width="7" stroke-linejoin="round" stroke-miterlimit="10" points="586.215,161.9 
		455.65,161.9 494.926,135.273 625.49,135.273 	"/>
	<g>
		<path fill="#46B8B0" d="M497.191,223.116c6.135-0.177,6.756-3.379,6.756-6.046c0-2.223-0.266-4.533-0.532-6.933
			c-0.268-2.4-0.445-4.802-0.445-7.024c0-8.356,5.245-12.002,13.513-12.002h3.113v7.558h-1.601c-4.002,0-5.424,2.4-5.424,6.311
			c0,1.601,0.268,3.201,0.444,5.067c0.179,1.778,0.445,3.824,0.445,6.045c0.089,6.757-2.667,9.247-7.557,10.314v0.177
			c4.89,1.067,7.646,3.646,7.557,10.403c0,2.312-0.267,4.355-0.445,6.222c-0.177,1.778-0.444,3.469-0.444,4.979
			c0,3.913,1.334,6.401,5.424,6.401h1.601v7.468h-3.202c-7.913,0-13.424-3.201-13.424-12.091c0-2.224,0.178-4.624,0.445-7.024
			c0.267-2.4,0.532-4.71,0.532-6.935c0-2.489-0.621-5.866-6.756-6.045V223.116z"/>
		<path fill="#46B8B0" d="M547.689,229.962c-6.045,0.179-6.756,3.558-6.756,6.046c0,2.224,0.267,4.533,0.533,6.935
			s0.533,4.8,0.533,7.023c0,8.89-5.511,12.092-13.513,12.092h-3.201v-7.47h1.601c4.09-0.087,5.423-2.488,5.423-6.4
			c0-1.511-0.179-3.201-0.444-4.978c-0.178-1.868-0.445-3.912-0.445-6.223c-0.088-6.757,2.667-9.337,7.646-10.402v-0.179
			c-4.979-1.065-7.734-3.557-7.646-10.313c0-2.223,0.268-4.269,0.445-6.045c0.266-1.868,0.444-3.469,0.444-5.068
			c0-3.911-1.422-6.223-5.423-6.312h-1.601v-7.558h3.112c8.357,0,13.602,3.646,13.602,12.004c0,2.222-0.267,4.622-0.533,7.022
			c-0.267,2.401-0.533,4.712-0.533,6.935c0,2.668,0.711,5.868,6.756,6.045V229.962z"/>
	</g>
</g>
</svg>
