<?xml version="1.0" encoding="utf-8"?>
<!-- Generator: Adobe Illustrator 16.0.0, SVG Export Plug-In . SVG Version: 6.00 Build 0)  -->
<!DOCTYPE svg PUBLIC "-//W3C//DTD SVG 1.1//EN" "http://www.w3.org/Graphics/SVG/1.1/DTD/svg11.dtd">
<svg version="1.1" id="Layer_1" xmlns="http://www.w3.org/2000/svg" xmlns:xlink="http://www.w3.org/1999/xlink" x="0px" y="0px"
	 width="631px" height="278px" viewBox="0 0 631 278" enable-background="new 0 0 631 278" xml:space="preserve">
<g opacity="0.8">
	<path fill="#556270" d="M124.266,125.73H71.304c-1.366,0-2.475,1.109-2.475,2.476V154.1c0,1.366,1.108,2.479,2.475,2.479h20.661
		v32.17c0,0-4.64,1.582-17.464,1.582c-15.132,0-36.269-5.529-36.269-52.01c0-46.49,22.01-52.607,42.674-52.607
		c17.887,0,25.593,3.148,30.497,4.666c1.541,0.472,2.966-1.061,2.966-2.429l5.908-25.018c0-0.641-0.216-1.411-0.946-1.934
		c-1.991-1.422-14.14-8.219-44.83-8.219c-35.356,0-71.623,15.043-71.623,87.353c0,72.312,41.522,83.088,76.512,83.088
		c28.972,0,46.547-12.381,46.547-12.381c0.724-0.399,0.802-1.412,0.802-1.876v-80.758C126.739,126.84,125.632,125.73,124.266,125.73
		z"/>
	<path fill="#556270" d="M397.203,61.445c0-1.378-1.092-2.49-2.458-2.49h-29.82c-1.362,0-2.47,1.112-2.47,2.49
		c0,0.006,0.008,57.629,0.008,57.629h-46.481V61.445c0-1.378-1.097-2.49-2.46-2.49h-29.819c-1.357,0-2.463,1.112-2.463,2.49v156.041
		c0,1.377,1.106,2.496,2.463,2.496h29.819c1.363,0,2.46-1.119,2.46-2.496v-66.744h46.481c0,0-0.08,66.739-0.08,66.744
		c0,1.377,1.105,2.496,2.47,2.496h29.89c1.366,0,2.458-1.119,2.461-2.496V61.445z"/>
	<g>
		<g>
			<path fill="#556270" d="M180.537,81.921c0-10.737-8.608-19.414-19.23-19.414c-10.61,0-19.225,8.677-19.225,19.414
				c0,10.727,8.615,19.427,19.225,19.427C171.929,101.348,180.537,92.647,180.537,81.921z"/>
			<path fill="#556270" d="M178.405,184.57c0-3.998,0-72.03,0-72.03c0-1.366-1.104-2.485-2.467-2.485h-29.727
				c-1.364,0-2.583,1.406-2.583,2.775c0,0,0,86.673,0,103.195c0,3.032,1.89,3.935,4.335,3.935c0,0,12.688,0,26.783,0
				c2.938,0,3.659-1.443,3.659-3.983C178.405,210.445,178.405,188.776,178.405,184.57z"/>
		</g>
	</g>
	<path fill="#556270" d="M510.533,110.29h-29.592c-1.356,0-2.462,1.118-2.462,2.495v76.512c0,0-7.518,5.5-18.188,5.5
		s-13.502-4.842-13.502-15.289c0-10.46,0-66.723,0-66.723c0-1.377-1.103-2.495-2.461-2.495h-30.032
		c-1.355,0-2.466,1.118-2.466,2.495c0,0,0,40.745,0,71.775c0,31.031,17.295,38.624,41.088,38.624
		c19.519,0,35.256-10.783,35.256-10.783s0.75,5.683,1.088,6.356c0.34,0.672,1.223,1.351,2.178,1.351l19.105-0.085
		c1.356,0,2.466-1.119,2.466-2.491l-0.009-104.747C513.003,111.408,511.897,110.29,510.533,110.29z"/>
	<path fill="#556270" d="M591.412,106.785c-16.808,0-28.239,7.498-28.239,7.498V61.445c0-1.378-1.101-2.49-2.46-2.49h-29.904
		c-1.36,0-2.465,1.112-2.465,2.49v156.041c0,1.377,1.104,2.496,2.468,2.496c0.003,0,20.741,0,20.748,0
		c0.935,0,1.642-0.481,2.165-1.324c0.515-0.839,1.26-7.195,1.26-7.195s12.228,11.588,35.376,11.588
		c27.177,0,42.762-13.784,42.762-61.883C633.122,113.07,608.231,106.785,591.412,106.785z M579.74,194.702
		c-10.264-0.313-17.226-4.97-17.226-4.97v-49.415c0,0,6.868-4.209,15.294-4.962c10.656-0.954,20.925,2.264,20.925,27.684
		C598.733,189.846,594.1,195.136,579.74,194.702z"/>
	<path fill="#556270" d="M264.109,110.041h-22.369c0,0-0.033-29.546-0.033-29.551c0-1.12-0.577-1.679-1.87-1.679h-30.482
		c-1.186,0-1.821,0.522-1.821,1.661v30.537c0,0-15.277,3.688-16.31,3.986c-1.028,0.298-1.785,1.246-1.785,2.378v19.19
		c0,1.379,1.102,2.493,2.465,2.493h15.629c0,0,0,20.07,0,46.166c0,34.29,24.053,37.658,40.282,37.658
		c7.417,0,16.288-2.381,17.753-2.922c0.885-0.325,1.4-1.243,1.4-2.237l0.024-21.11c0-1.377-1.162-2.491-2.472-2.491
		c-1.303,0-4.638,0.53-8.071,0.53c-10.987,0-14.71-5.108-14.71-11.722c0-6.607-0.001-43.872-0.001-43.872h22.37
		c1.364,0,2.468-1.114,2.468-2.493v-24.037C266.578,111.15,265.473,110.041,264.109,110.041z"/>
</g>
</svg>
