<?xml version="1.0" encoding="utf-8"?>
<!-- Generator: Adobe Illustrator 16.0.0, SVG Export Plug-In . SVG Version: 6.00 Build 0)  -->
<!DOCTYPE svg PUBLIC "-//W3C//DTD SVG 1.1//EN" "http://www.w3.org/Graphics/SVG/1.1/DTD/svg11.dtd">
<svg version="1.1" id="Layer_1" xmlns="http://www.w3.org/2000/svg" xmlns:xlink="http://www.w3.org/1999/xlink" x="0px" y="0px"
	 width="631px" height="260.987px" viewBox="0 0 631 260.987" enable-background="new 0 0 631 260.987" xml:space="preserve">
<g>
	<path fill-rule="evenodd" clip-rule="evenodd" fill="#444444" d="M109.209,131.646c0-1.857-0.979-3.566-2.585-4.492l-42.8-24.632
		c-0.724-0.423-1.536-0.644-2.356-0.677c-0.074,0-0.382,0-0.443,0c-0.818,0.033-1.629,0.254-2.363,0.677l-42.8,24.632
		c-1.596,0.926-2.588,2.635-2.588,4.492l0.094,66.326c0,0.925,0.479,1.783,1.29,2.232c0.795,0.479,1.777,0.479,2.568,0
		l25.437-14.565c1.609-0.955,2.587-2.642,2.587-4.485V150.17c0-1.848,0.979-3.561,2.582-4.476l10.831-6.239
		c0.808-0.468,1.689-0.696,2.591-0.696c0.882,0,1.787,0.229,2.571,0.696l10.827,6.239c1.603,0.915,2.585,2.628,2.585,4.476v30.983
		c0,1.844,0.992,3.544,2.591,4.485l25.429,14.565c0.798,0.479,1.794,0.479,2.585,0c0.787-0.449,1.283-1.308,1.283-2.232
		L109.209,131.646z"/>
	<path fill-rule="evenodd" clip-rule="evenodd" fill="#444444" d="M337.753,40.474c-0.801-0.449-1.776-0.437-2.57,0.025
		c-0.788,0.464-1.274,1.315-1.274,2.229v65.686c0,0.644-0.346,1.241-0.901,1.566c-0.56,0.324-1.251,0.324-1.813,0l-10.718-6.178
		c-1.602-0.919-3.569-0.919-5.166,0.004l-42.819,24.708c-1.6,0.925-2.586,2.631-2.586,4.479v49.431c0,1.848,0.986,3.553,2.584,4.479
		l42.814,24.729c1.603,0.925,3.573,0.925,5.172,0l42.824-24.729c1.599-0.926,2.585-2.631,2.585-4.479V59.205
		c0-1.874-1.013-3.6-2.652-4.516L337.753,40.474z M333.781,166.183c0,0.462-0.248,0.889-0.647,1.12l-14.702,8.471
		c-0.399,0.231-0.889,0.231-1.288,0l-14.702-8.471c-0.4-0.231-0.647-0.658-0.647-1.12v-16.975c0-0.464,0.247-0.889,0.646-1.12
		l14.701-8.491c0.402-0.231,0.892-0.231,1.294,0l14.699,8.491c0.399,0.231,0.647,0.656,0.647,1.12V166.183z"/>
	<path fill-rule="evenodd" clip-rule="evenodd" fill="#444444" d="M490.938,148.766c1.595-0.927,2.573-2.629,2.573-4.473v-11.978
		c0-1.844-0.979-3.546-2.573-4.472l-42.543-24.702c-1.599-0.929-3.577-0.932-5.179-0.007l-42.804,24.709
		c-1.599,0.926-2.585,2.632-2.585,4.479v49.418c0,1.857,0.999,3.572,2.611,4.491l42.536,24.237c1.568,0.898,3.492,0.904,5.068,0.029
		l25.727-14.301c0.818-0.455,1.328-1.311,1.331-2.241c0.007-0.933-0.489-1.794-1.297-2.26l-43.071-24.723
		c-0.805-0.458-1.301-1.317-1.301-2.242v-15.488c0-0.921,0.493-1.775,1.294-2.238l13.405-7.729c0.798-0.46,1.783-0.46,2.581,0
		l13.411,7.729c0.803,0.463,1.295,1.317,1.295,2.238v12.186c0,0.927,0.496,1.781,1.297,2.243c0.802,0.459,1.787,0.457,2.588-0.007
		L490.938,148.766z"/>
	<path fill-rule="evenodd" clip-rule="evenodd" fill="#B3DB5A" d="M187.066,102.878c1.599-0.927,3.57-0.927,5.169,0l42.812,24.705
		c1.601,0.921,2.586,2.628,2.586,4.479v49.447c0,1.848-0.986,3.554-2.585,4.479l-42.812,24.726c-1.601,0.925-3.572,0.925-5.172,0
		l-42.802-24.726c-1.599-0.925-2.584-2.631-2.584-4.479v-49.451c0-1.847,0.985-3.554,2.586-4.475L187.066,102.878z"/>
	<path fill="#B3DB5A" d="M574.063,211.417c-1.476,0-2.943-0.386-4.233-1.134l-13.479-7.975c-2.011-1.123-1.029-1.521-0.365-1.752
		c2.686-0.933,3.229-1.147,6.095-2.773c0.298-0.171,0.694-0.104,1.002,0.073l10.355,6.148c0.375,0.212,0.904,0.212,1.25,0
		l40.369-23.3c0.376-0.216,0.617-0.644,0.617-1.09v-46.59c0-0.455-0.241-0.884-0.627-1.111l-40.353-23.284
		c-0.373-0.216-0.869-0.216-1.244,0l-40.343,23.29c-0.393,0.222-0.641,0.664-0.641,1.105v46.59c0,0.446,0.248,0.864,0.638,1.075
		l11.058,6.393c6,2.998,9.674-0.536,9.674-4.086v-45.994c0-0.651,0.523-1.168,1.174-1.168h5.118c0.641,0,1.171,0.517,1.171,1.168
		v45.994c0,8.008-4.361,12.601-11.954,12.601c-2.333,0-4.17,0-9.298-2.524l-10.587-6.097c-2.615-1.509-4.233-4.338-4.233-7.361
		v-46.59c0-3.03,1.618-5.852,4.233-7.36l40.37-23.324c2.554-1.448,5.95-1.448,8.484,0l40.367,23.324
		c2.613,1.516,4.239,4.33,4.239,7.36v46.59c0,3.023-1.626,5.839-4.239,7.361l-40.367,23.307
		C577.023,211.031,575.559,211.417,574.063,211.417z"/>
	<path fill="#8CC84B" d="M586.534,179.32c-17.667,0-21.367-8.109-21.367-14.907c0-0.651,0.52-1.167,1.166-1.167h5.221
		c0.582,0,1.068,0.422,1.159,0.989c0.788,5.313,3.138,7.998,13.821,7.998c8.504,0,12.124-1.925,12.124-6.437
		c0-2.601-1.025-4.531-14.243-5.828c-11.046-1.09-17.878-3.535-17.878-12.371c0-8.143,6.866-13.002,18.378-13.002
		c12.933,0,19.332,4.488,20.143,14.119c0.03,0.336-0.087,0.653-0.308,0.898c-0.223,0.23-0.53,0.371-0.855,0.371h-5.239
		c-0.543,0-1.022-0.384-1.133-0.911c-1.257-5.588-4.314-7.375-12.607-7.375c-9.286,0-10.365,3.235-10.365,5.654
		c0,2.937,1.274,3.792,13.811,5.451c12.406,1.643,18.3,3.963,18.3,12.686C606.66,174.285,599.325,179.32,586.534,179.32z"/>
	<path fill-rule="evenodd" clip-rule="evenodd" fill="#B3DB5A" d="M445.173,146.448c0.309-0.177,0.685-0.177,0.992,0l8.217,4.74
		c0.308,0.177,0.496,0.503,0.496,0.858v9.489c0,0.353-0.188,0.682-0.496,0.858l-8.217,4.74c-0.308,0.178-0.684,0.178-0.992,0
		l-8.209-4.74c-0.309-0.177-0.496-0.506-0.496-0.858v-9.489c0-0.355,0.188-0.682,0.496-0.858L445.173,146.448z"/>
</g>
</svg>
