<?xml version="1.0" encoding="utf-8"?>
<!-- Generator: Adobe Illustrator 16.0.0, SVG Export Plug-In . SVG Version: 6.00 Build 0)  -->
<!DOCTYPE svg PUBLIC "-//W3C//DTD SVG 1.1//EN" "http://www.w3.org/Graphics/SVG/1.1/DTD/svg11.dtd">
<svg version="1.1" id="Layer_1" xmlns="http://www.w3.org/2000/svg" xmlns:xlink="http://www.w3.org/1999/xlink" x="0px" y="0px"
	 width="630px" height="349px" viewBox="0 0 630 349" enable-background="new 0 0 630 349" xml:space="preserve">
<g>
	<path fill-rule="evenodd" clip-rule="evenodd" fill="#111111" d="M317.246,309.473c-0.229,0.255-0.467,0.394-0.482,0.55
		c-1.125,12.319-10.738,16.939-23.225,19.134c-4.685,0.826-9.303,1.994-13.879,3.208c-6.806,1.803-12.188-0.254-16.146-4.781
		c-11.037-12.628-13.688-26.863-9.962-42.114c1.678-6.875,8.341-8.994,14.769-10.52c-54.713-48.101-109.12-95.933-164.754-144.845
		c-0.031,9.338-7.543,10.901-14.707,12.81c-1.872,0.497-3.759,0.959-5.644,1.429c-15.969,3.975-22.273,1.176-27.245-12.595
		c-1.474-4.082-2.772-8.455-2.659-12.666c0.24-8.84-0.858-14.536,14.302-19.28c-1.957-1.757-3.661-3.323-5.41-4.852
		c-10.644-9.3-20.121-19.283-25.259-31.81c-7.531-18.355-1.452-34.81,17.131-45.908C67.702,9.093,83.26,5.25,99.471,4.149
		c12.101-0.82,24.456-0.715,36.527,0.372c22.17,2.001,40.09,11.81,56.105,24.651c5.406,4.335,11.14,8.522,17.349,11.94
		c68.193,37.536,136.609,74.76,208.906,106.348c37.16,16.235,75.133,30.799,114.6,42.474c16.951,5.015,33.109,11.671,47.332,21.329
		c19.682,13.365,25.929,29.697,19.244,50.368c-8.188,25.323-26.895,43.39-52.987,56.165c-27.455,13.442-57.423,19.369-88.674,21.363
		c-36.263,2.315-71.497-1.387-105.015-13.84C340.716,320.808,329.285,314.881,317.246,309.473z M434.316,319.593
		c36.985,0.112,65.957-3.574,93.518-13.599c26.291-9.563,47.262-24.098,57.963-47.669c8.718-19.198,4.297-34.766-15.805-45.687
		c-15.531-8.437-32.749-14.724-49.666-21.088c-19.155-7.209-39.126-12.84-58.155-20.267c-18.417-7.187-36.826-14.401-54.749-22.614
		C342.427,118.891,279.961,85.521,218,51.426c-12.824-7.057-24.926-15.162-36.813-23.371c-13.941-9.626-29.112-16.364-47.031-18.273
		C114.609,7.7,95.267,8.766,76.518,13.678c-7.964,2.088-15.864,5.553-22.535,9.84c-14.343,9.219-17.685,22.012-8.538,35.244
		c5.821,8.419,13.54,16.123,21.668,23.06c21.549,18.385,43.8,36.16,65.738,54.21c52.076,42.847,104.265,85.593,156.15,128.607
		C331.646,299.989,380.894,321.377,434.316,319.593z M41.269,60.144c3.57,11.271,13.382,21.662,24.711,31.21
		c14.04,11.834,28.18,23.582,42.081,35.536c56.995,49.001,113.72,98.237,170.933,147.05c39.288,33.521,84.975,56.054,141.823,58.557
		c40.467,1.782,79.801-1.738,116.628-17.46c24.379-10.408,42.841-25.883,52.225-48.218c2.843-6.764,3.755-14.126,5.552-21.214
		c-0.696-0.146-1.393-0.292-2.09-0.438c-1.595,11.994-6.147,22.987-14.417,32.718c-11.393,13.404-26.662,22.605-43.93,29.49
		c-23.398,9.329-48.17,14.008-73.772,16.2c-60.488,5.18-114.516-7.467-159.639-43.305c-36.739-29.178-72.844-58.956-108.789-88.86
		C149.259,155.363,106.271,119.018,63.45,82.53C54.859,75.21,47.677,66.67,41.269,60.144z M283.966,321.856
		c-0.952-0.976-1.201-1.117-1.188-1.235c0.116-1.087,0.288-2.168,0.423-3.252c1.411-11.23,1.037-22.302-7.495-31.602
		c-2.212-2.412-7.197-4.865-10.159-4.314c-3.011,0.56-6.466,4.501-7.349,7.482c-3.59,12.1-0.023,23.348,7.7,33.678
		c2.807,3.755,6.936,5.905,12.258,4.729c8.625-1.906,17.311-3.756,25.663-6.363c6.393-1.994,10.041-14.028,5.623-17.238
		c-10.399-7.556-21.023-14.883-31.539-22.308C286.869,293.919,289.561,307.021,283.966,321.856z M79.521,135.872
		c-0.551-0.05-1.102-0.1-1.652-0.151c0.217-1.628,0.55-3.252,0.634-4.887c0.39-7.612-0.386-15.119-6.163-21.265
		c-1.788-1.9-5.587-3.845-7.981-3.472c-2.338,0.363-5.178,3.418-5.853,5.714c-2.887,9.82-0.212,19.009,6.77,27.001
		c1.649,1.889,5.719,3.642,8.235,3.269c7.024-1.045,13.93-2.967,20.662-5.065c4.84-1.509,7.74-8.418,4.7-11.177
		c-8.415-7.632-17.27-14.905-25.951-22.321C80.988,113.741,83.011,124.394,79.521,135.872z"/>
	<path fill-rule="evenodd" clip-rule="evenodd" fill="#333333" d="M434.316,319.593c-53.423,1.784-102.67-19.604-145.314-54.954
		c-51.886-43.015-104.075-85.761-156.15-128.607c-21.938-18.05-44.189-35.825-65.738-54.21c-8.128-6.937-15.847-14.641-21.668-23.06
		c-9.147-13.232-5.806-26.025,8.538-35.244c6.671-4.287,14.571-7.752,22.535-9.84c18.75-4.912,38.091-5.978,57.638-3.896
		c17.919,1.909,33.09,8.647,47.031,18.273c11.887,8.209,23.989,16.314,36.813,23.371c61.962,34.096,124.427,67.465,189.422,97.244
		c17.923,8.213,36.332,15.428,54.749,22.614c19.029,7.427,39,13.058,58.155,20.267c16.917,6.364,34.135,12.651,49.666,21.088
		c20.102,10.921,24.522,26.488,15.805,45.687c-10.701,23.571-31.672,38.106-57.963,47.669
		C500.273,316.019,471.302,319.705,434.316,319.593z M491.533,203.806c-0.323-0.602-0.646-1.204-0.969-1.804
		c-45.801,16.968-91.6,33.936-137.4,50.904c0.259,0.514,0.515,1.026,0.774,1.54C401.398,240.762,447.692,224.738,491.533,203.806z
		 M86.597,77.486c0.251,0.53,0.502,1.06,0.755,1.591c32.536-11.338,65.072-22.675,97.608-34.013
		c-0.294-0.621-0.589-1.242-0.883-1.863C150.459,52.268,118.025,63.818,86.597,77.486z"/>
	<path fill-rule="evenodd" clip-rule="evenodd" fill="#C69C6D" d="M41.269,60.144C47.677,66.67,54.859,75.21,63.45,82.53
		c42.821,36.487,85.809,72.833,129.135,108.879c35.945,29.904,72.049,59.683,108.789,88.86
		c45.123,35.838,99.15,48.484,159.639,43.305c25.603-2.192,50.374-6.871,73.772-16.2c17.268-6.885,32.537-16.086,43.93-29.49
		c8.27-9.73,12.822-20.724,14.417-32.718c0.697,0.146,1.394,0.293,2.09,0.438c-1.797,7.088-2.709,14.45-5.552,21.214
		c-9.384,22.335-27.846,37.81-52.225,48.218c-36.827,15.722-76.161,19.242-116.628,17.46
		c-56.849-2.503-102.535-25.035-141.823-58.557c-57.212-48.813-113.938-98.049-170.933-147.05
		c-13.9-11.954-28.041-23.702-42.081-35.536C54.651,81.806,44.838,71.415,41.269,60.144z"/>
	<path fill-rule="evenodd" clip-rule="evenodd" fill="#C44D58" d="M283.966,321.856c5.594-14.836,2.902-27.938-6.071-40.42
		c10.525,7.422,21.148,14.749,31.548,22.305c4.418,3.21,0.77,15.244-5.623,17.238c-8.353,2.607-17.039,4.457-25.663,6.363
		c-5.323,1.176-9.452-0.975-12.258-4.729c-7.723-10.33-11.291-21.578-7.7-33.678c0.883-2.981,4.338-6.923,7.349-7.482
		c2.961-0.551,7.946,1.902,10.159,4.314c8.532,9.3,8.906,20.371,7.495,31.602c-0.136,1.084-0.307,2.165-0.423,3.252
		C282.766,320.739,283.015,320.881,283.966,321.856z M262.936,308.419l-0.082-0.088c0.998,2.18,1.492,4.696,3.096,6.471
		c3.416,3.782,8.239,3.011,9.674-1.685c2.178-7.121,1.257-14.125-4.01-20.2c-3.436-3.962-8.697-3.478-9.603,1.193
		C261.123,298.709,262.534,303.636,262.936,308.419z"/>
	<path fill-rule="evenodd" clip-rule="evenodd" fill="#C44D58" d="M79.521,135.872c3.49-11.479,1.467-22.131-6.6-32.354
		c8.681,7.416,17.536,14.689,25.951,22.321c3.04,2.759,0.14,9.668-4.7,11.177c-6.731,2.099-13.638,4.021-20.662,5.065
		c-2.516,0.373-6.586-1.38-8.235-3.269c-6.982-7.992-9.657-17.181-6.77-27.001c0.675-2.296,3.515-5.351,5.853-5.714
		c2.394-0.373,6.194,1.571,7.981,3.472c5.777,6.146,6.553,13.652,6.163,21.265c-0.083,1.635-0.417,3.259-0.634,4.887
		C78.42,135.772,78.971,135.822,79.521,135.872z M64.502,130.985c0.448,0.497,0.896,0.993,1.344,1.491
		c3.002,3.203,4.756,1.089,6.172-1.205c2.573-4.166,0.612-13.59-3.439-16.818c-3.272-2.612-6.32-2.021-7.409,1.515
		C59.538,121.268,59.3,126.658,64.502,130.985z"/>
	<path fill-rule="evenodd" clip-rule="evenodd" d="M491.533,203.806c-43.841,20.933-90.135,36.956-137.595,50.641
		c-0.26-0.514-0.516-1.026-0.774-1.54c45.801-16.969,91.6-33.937,137.4-50.904C490.888,202.602,491.21,203.204,491.533,203.806z"/>
	<path fill-rule="evenodd" clip-rule="evenodd" d="M86.597,77.486c31.428-13.668,63.863-25.219,97.48-34.285
		c0.294,0.621,0.589,1.242,0.883,1.863c-32.537,11.338-65.073,22.675-97.608,34.013C87.099,78.546,86.848,78.017,86.597,77.486z"/>
	<path fill-rule="evenodd" clip-rule="evenodd" d="M262.936,308.419c-0.402-4.783-1.813-9.71-0.924-14.309
		c0.906-4.671,6.167-5.155,9.603-1.193c5.268,6.075,6.188,13.079,4.01,20.2c-1.435,4.695-6.258,5.467-9.674,1.685
		c-1.604-1.774-2.099-4.291-3.095-6.471c2.343,2.359,4.685,4.717,7.81,7.861c1.187-3.168,1.819-4.856,2.443-6.521
		c-9.426-3.3-10.043-6.765-2.543-12.69c-1.642-1.306-3.28-2.608-6.755-5.368C263.471,298.107,263.202,303.263,262.936,308.419z"/>
	<path fill-rule="evenodd" clip-rule="evenodd" d="M64.502,130.985c-5.202-4.327-4.964-9.718-3.332-15.018
		c1.089-3.536,4.136-4.127,7.409-1.515c4.051,3.229,6.012,12.652,3.439,16.818c-1.416,2.294-3.17,4.408-6.172,1.205
		c1.542-1.196,3.086-2.391,4.897-3.795c-7.675-3.437-8.108-5.4-2.884-11.143c-1.744-0.359-3.247-0.67-6.598-1.36
		C62.492,121.803,63.497,126.394,64.502,130.985z"/>
	<path fill-rule="evenodd" clip-rule="evenodd" fill="#FFFFFF" d="M64.502,130.985c-1.005-4.592-2.01-9.183-3.24-14.807
		c3.351,0.69,4.854,1.001,6.598,1.36c-5.224,5.742-4.791,7.706,2.884,11.143c-1.811,1.404-3.355,2.599-4.897,3.795
		C65.397,131.979,64.95,131.482,64.502,130.985z"/>
	<path fill-rule="evenodd" clip-rule="evenodd" fill="#FFFFFF" d="M262.936,308.419c0.267-5.156,0.536-10.312,0.874-16.807
		c3.475,2.76,5.113,4.063,6.755,5.368c-7.5,5.926-6.883,9.391,2.543,12.69c-0.624,1.665-1.256,3.354-2.443,6.521
		c-3.125-3.145-5.466-5.502-7.81-7.861C262.854,308.331,262.936,308.419,262.936,308.419z"/>
</g>
</svg>
