<?xml version="1.0" encoding="utf-8"?>
<!-- Generator: Adobe Illustrator 16.0.0, SVG Export Plug-In . SVG Version: 6.00 Build 0)  -->
<!DOCTYPE svg PUBLIC "-//W3C//DTD SVG 1.1//EN" "http://www.w3.org/Graphics/SVG/1.1/DTD/svg11.dtd">
<svg version="1.1" id="Layer_1" xmlns="http://www.w3.org/2000/svg" xmlns:xlink="http://www.w3.org/1999/xlink" x="0px" y="0px"
	 width="630px" height="303px" viewBox="0 0 630 303" enable-background="new 0 0 630 303" xml:space="preserve">
<g opacity="0.85">
	<path fill="#B3DB5A" d="M172.231,82.323c-13.042-14.438-26.083-18.63-45.645-18.63c-37.727,0-53.562,15.603-53.562,39.589
		c0,23.754,15.37,30.042,52.165,37.494c36.795,7.452,60.083,15.37,60.083,44.479c0,26.781-22.124,41.686-58.22,41.686
		c-26.548,0-46.576-8.15-64.275-25.616l3.493-3.027c16.768,17.232,35.864,24.685,61.015,24.685c32.836,0,53.33-12.342,53.33-37.027
		s-17-33.302-55.193-40.754c-36.562-6.986-57.055-13.973-57.055-41.453c0-28.644,22.589-44.479,57.754-44.479
		c20.959,0,36.097,5.589,49.138,19.795L172.231,82.323z"/>
	<path fill="#B3DB5A" d="M303.102,225.777l-51.466-69.165L218.8,186.421v39.356h-4.658V55.775h4.658v124.357l82.439-74.754h6.288
		l-52.398,47.973l53.562,72.426H303.102z"/>
	<path fill="#B3DB5A" d="M331.975,73.707V55.775h4.658v17.932H331.975z M331.975,225.777V104.913h4.658v120.864H331.975z"/>
	<path fill="#B3DB5A" d="M376.451,55.775h4.657v152.07c0,9.082,6.055,14.671,15.37,14.671c3.493,0,8.85-0.931,12.809-2.096
		l1.63,3.727c-4.191,1.397-11.877,2.794-16.068,2.794c-10.945,0-18.397-7.685-18.397-19.096V55.775z"/>
	<path fill="#B3DB5A" d="M428.845,55.775h4.658v152.07c0,9.082,6.055,14.671,15.37,14.671c3.493,0,8.849-0.931,12.808-2.096
		l1.631,3.727c-4.192,1.397-11.877,2.794-16.069,2.794c-10.945,0-18.397-7.685-18.397-19.096V55.775z"/>
	<path fill="#B3DB5A" d="M467.966,221.12l92.22-111.55H469.13v-4.657h96.878v4.657l-91.987,111.55h91.056v4.657h-97.11V221.12z"/>
</g>
</svg>
