<?xml version="1.0" encoding="utf-8"?>
<!-- Generator: Adobe Illustrator 16.0.0, SVG Export Plug-In . SVG Version: 6.00 Build 0)  -->
<!DOCTYPE svg PUBLIC "-//W3C//DTD SVG 1.1//EN" "http://www.w3.org/Graphics/SVG/1.1/DTD/svg11.dtd">
<svg version="1.1" id="Layer_1" xmlns="http://www.w3.org/2000/svg" xmlns:xlink="http://www.w3.org/1999/xlink" x="0px" y="0px"
	 width="632px" height="369px" viewBox="0 0 632 369" enable-background="new 0 0 632 369" xml:space="preserve">
<g>
	<path opacity="0.7" fill="#FF6B6B" d="M448,3c-52.061,0-98.979,21.988-132,57.174c30.383,32.375,49,75.924,49,123.826
		c0,47.903-18.617,91.451-49,123.826C349.021,343.013,395.939,365,448,365c99.963,0,181-81.036,181-181C629,84.037,547.963,3,448,3z
		"/>
	<path opacity="0.7" fill="#4ECDC4" d="M316,60.174C282.979,24.988,236.061,3,184,3C84.037,3,3,84.037,3,184
		c0,99.964,81.037,181,181,181c52.061,0,98.979-21.987,132-57.174c-30.383-32.375-49-75.923-49-123.826
		C267,136.098,285.617,92.549,316,60.174z"/>
	<path opacity="0.7" fill="#FF6B6B" d="M316,60.174C285.617,92.549,267,136.098,267,184c0,47.903,18.617,91.451,49,123.826
		c30.383-32.375,49-75.923,49-123.826C365,136.098,346.383,92.549,316,60.174z"/>
	<path opacity="0.7" fill="#8CABA5" d="M316,60.174C285.617,92.549,267,136.098,267,184c0,47.903,18.617,91.451,49,123.826
		c30.383-32.375,49-75.923,49-123.826C365,136.098,346.383,92.549,316,60.174z"/>
</g>
<g>
	<path fill="#FFFFFF" d="M131.936,194v-25.557h8.315c8.063,0,12.059,5.687,12.059,12.742c0,7.739-4.679,12.814-12.059,12.814
		H131.936z M140.251,169.595h-7.091v23.253h7.091c7.127,0,10.835-5.04,10.835-11.663
		C151.086,174.455,147.198,169.595,140.251,169.595z"/>
	<path fill="#FFFFFF" d="M155.876,184.533c0-5.255,3.924-9.539,8.963-9.539c5.111,0,9.071,4.355,9.107,9.647
		c0,0.108-0.036,0.504-0.036,0.54h-16.774c0.324,4.607,3.78,8.135,7.883,8.135c2.771,0,5.435-1.548,6.443-3.779l1.116,0.288
		c-1.08,2.627-4.248,4.535-7.595,4.535C159.908,194.36,155.876,189.896,155.876,184.533z M172.722,184.137
		c-0.324-4.715-3.636-8.063-7.847-8.063s-7.523,3.419-7.775,8.063H172.722z"/>
	<path fill="#FFFFFF" d="M176.432,191.408l0.684-0.828c1.979,1.835,4.031,2.735,6.623,2.735c3.492,0,5.867-1.583,5.867-4.247
		c0-2.52-2.196-3.168-6.263-4.14c-4.104-0.972-6.047-1.548-6.047-4.536c0-3.708,3.096-5.399,6.695-5.399
		c2.988,0,5.292,1.116,6.299,2.664l-0.828,0.612c-1.044-1.44-3.275-2.232-5.579-2.232c-2.952,0-5.399,1.26-5.399,4.176
		c0,2.339,1.512,2.808,5.111,3.635c4.571,1.08,7.235,1.836,7.235,5.076c0,3.312-2.808,5.435-7.055,5.435
		C180.895,194.36,178.339,193.388,176.432,191.408z"/>
	<path fill="#FFFFFF" d="M195.188,170.747v-3.024h1.224v3.024H195.188z M195.188,194v-18.718h1.224V194H195.188z"/>
	<path fill="#FFFFFF" d="M200.911,184.713c0-5.076,3.563-9.719,8.675-9.719c3.347,0,5.759,2.016,7.523,4.536v-4.248h1.152v19.294
		c0,5.039-4.067,7.451-8.531,7.451c-4.391,0-6.695-1.764-8.171-4.391l0.9-0.504c1.512,2.664,4.319,3.815,7.271,3.815
		c3.959,0,7.307-2.16,7.307-6.371v-4.392c-1.548,2.448-4.391,4.139-7.199,4.139C204.655,194.324,200.911,189.537,200.911,184.713z
		 M217.037,187.809v-6.443c-1.152-3.024-4.247-5.219-7.307-5.219c-4.787,0-7.595,4.463-7.595,8.567c0,4.499,3.492,8.495,7.919,8.495
		C213.402,193.208,216.75,190.364,217.037,187.809z"/>
	<path fill="#FFFFFF" d="M238.889,194h-1.224v-10.438c0-5.111-1.368-7.415-4.536-7.415c-3.419,0-6.875,2.627-7.883,6.155V194h-1.224
		v-18.718h1.152v4.68c1.547-2.952,4.823-4.968,8.171-4.968c3.923,0,5.543,2.844,5.543,8.423V194z"/>
</g>
<g>
	<path fill="#FFFFFF" d="M388.769,194v-25.557h8.315c8.063,0,12.059,5.687,12.059,12.742c0,7.739-4.68,12.814-12.059,12.814H388.769
		z M397.084,169.595h-7.092v23.253h7.092c7.127,0,10.834-5.04,10.834-11.663C407.918,174.455,404.031,169.595,397.084,169.595z"/>
	<path fill="#FFFFFF" d="M412.709,184.533c0-5.255,3.924-9.539,8.963-9.539c5.111,0,9.07,4.355,9.106,9.647
		c0,0.108-0.036,0.504-0.036,0.54h-16.773c0.324,4.607,3.779,8.135,7.883,8.135c2.771,0,5.436-1.548,6.443-3.779l1.115,0.288
		c-1.08,2.627-4.247,4.535-7.595,4.535C416.74,194.36,412.709,189.896,412.709,184.533z M429.555,184.137
		c-0.324-4.715-3.636-8.063-7.848-8.063c-4.211,0-7.522,3.419-7.774,8.063H429.555z"/>
	<path fill="#FFFFFF" d="M440.283,194l-7.99-18.718h1.295l7.307,17.314l7.308-17.314h1.26L441.471,194H440.283z"/>
	<path fill="#FFFFFF" d="M451.912,184.533c0-5.255,3.924-9.539,8.963-9.539c5.111,0,9.07,4.355,9.107,9.647
		c0,0.108-0.037,0.504-0.037,0.54h-16.773c0.324,4.607,3.779,8.135,7.883,8.135c2.771,0,5.436-1.548,6.443-3.779l1.116,0.288
		c-1.08,2.627-4.247,4.535-7.595,4.535C455.943,194.36,451.912,189.896,451.912,184.533z M468.758,184.137
		c-0.324-4.715-3.635-8.063-7.847-8.063s-7.522,3.419-7.774,8.063H468.758z"/>
	<path fill="#FFFFFF" d="M474.268,167.723h1.188v23.073c0,1.404,0.937,2.268,2.34,2.268c0.54,0,1.368-0.144,1.98-0.36l0.287,1.008
		c-0.72,0.252-1.979,0.468-2.735,0.468c-1.835,0-3.06-1.224-3.06-3.132V167.723z"/>
	<path fill="#FFFFFF" d="M481.324,184.713c0-5.255,4.031-9.719,8.998-9.719c5.004,0,9.035,4.464,9.035,9.719
		c0,5.219-3.995,9.646-9.035,9.646C485.248,194.36,481.324,189.933,481.324,184.713z M490.287,193.208
		c4.247,0,7.811-3.887,7.811-8.531s-3.563-8.531-7.775-8.531c-4.211,0-7.774,3.923-7.774,8.603
		C482.548,189.393,486.039,193.208,490.287,193.208z"/>
	<path fill="#FFFFFF" d="M505.047,189.825v11.842h-1.224v-26.385h1.152v3.888c1.548-2.448,4.354-4.176,7.198-4.176
		c5.256,0,9,4.86,9,9.683c0,5.183-3.456,9.683-8.64,9.683C509.259,194.36,506.631,192.308,505.047,189.825z M519.914,184.677
		c0-4.463-3.492-8.531-7.884-8.531c-2.771,0-6.731,2.556-6.983,5.399v6.443c1.26,2.916,4.141,5.219,7.308,5.219
		C516.962,193.208,519.914,188.925,519.914,184.677z"/>
</g>
</svg>
