<?xml version="1.0" encoding="utf-8"?>
<!-- Generator: Adobe Illustrator 16.0.0, SVG Export Plug-In . SVG Version: 6.00 Build 0)  -->
<!DOCTYPE svg PUBLIC "-//W3C//DTD SVG 1.1//EN" "http://www.w3.org/Graphics/SVG/1.1/DTD/svg11.dtd">
<svg version="1.1" id="Layer_1" xmlns="http://www.w3.org/2000/svg" xmlns:xlink="http://www.w3.org/1999/xlink" x="0px" y="0px"
	 width="632px" height="369px" viewBox="0 0 632 369" enable-background="new 0 0 632 369" xml:space="preserve">
<g>
	<circle opacity="0.7" fill="#FF6B6B" cx="449" cy="185" r="181"/>
	<g>
		<path fill="#FFFFFF" d="M399.936,195v-25.557h8.315c8.063,0,12.059,5.687,12.059,12.742c0,7.739-4.679,12.814-12.059,12.814
			H399.936z M408.251,170.595h-7.091v23.253h7.091c7.128,0,10.835-5.04,10.835-11.663
			C419.086,175.455,415.198,170.595,408.251,170.595z"/>
		<path fill="#FFFFFF" d="M423.876,185.533c0-5.255,3.924-9.539,8.963-9.539c5.111,0,9.071,4.355,9.106,9.647
			c0,0.108-0.035,0.504-0.035,0.54h-16.774c0.324,4.607,3.78,8.135,7.884,8.135c2.771,0,5.435-1.548,6.443-3.779l1.115,0.288
			c-1.08,2.627-4.248,4.535-7.596,4.535C427.908,195.36,423.876,190.896,423.876,185.533z M440.723,185.137
			c-0.324-4.715-3.637-8.063-7.848-8.063s-7.523,3.419-7.775,8.063H440.723z"/>
		<path fill="#FFFFFF" d="M444.432,192.408l0.684-0.828c1.98,1.835,4.031,2.735,6.623,2.735c3.492,0,5.867-1.583,5.867-4.247
			c0-2.52-2.195-3.168-6.263-4.14c-4.104-0.972-6.048-1.548-6.048-4.536c0-3.708,3.096-5.399,6.695-5.399
			c2.988,0,5.292,1.116,6.3,2.664l-0.828,0.612c-1.044-1.44-3.275-2.232-5.579-2.232c-2.951,0-5.399,1.26-5.399,4.176
			c0,2.339,1.512,2.808,5.111,3.635c4.571,1.08,7.235,1.836,7.235,5.076c0,3.312-2.808,5.435-7.055,5.435
			C448.895,195.36,446.34,194.388,444.432,192.408z"/>
		<path fill="#FFFFFF" d="M463.188,171.747v-3.024h1.225v3.024H463.188z M463.188,195v-18.718h1.225V195H463.188z"/>
		<path fill="#FFFFFF" d="M468.911,185.713c0-5.076,3.563-9.719,8.675-9.719c3.348,0,5.76,2.016,7.523,4.536v-4.248h1.152v19.294
			c0,5.039-4.068,7.451-8.531,7.451c-4.392,0-6.695-1.764-8.172-4.391l0.9-0.504c1.512,2.664,4.319,3.815,7.271,3.815
			c3.959,0,7.307-2.16,7.307-6.371v-4.392c-1.548,2.448-4.391,4.139-7.199,4.139C472.654,195.324,468.911,190.537,468.911,185.713z
			 M485.037,188.809v-6.443c-1.152-3.024-4.247-5.219-7.307-5.219c-4.787,0-7.596,4.463-7.596,8.567c0,4.499,3.492,8.495,7.92,8.495
			C481.402,194.208,484.75,191.364,485.037,188.809z"/>
		<path fill="#FFFFFF" d="M506.889,195h-1.224v-10.438c0-5.111-1.368-7.415-4.536-7.415c-3.419,0-6.875,2.627-7.883,6.155V195
			h-1.224v-18.718h1.152v4.68c1.548-2.952,4.823-4.968,8.171-4.968c3.924,0,5.543,2.844,5.543,8.423V195z"/>
	</g>
</g>
<g>
	<circle opacity="0.7" fill="#4ECDC4" cx="185" cy="185" r="181"/>
	<g>
		<path fill="#FFFFFF" d="M118.769,198v-25.557h8.315c8.063,0,12.059,5.687,12.059,12.742c0,7.739-4.679,12.814-12.059,12.814
			H118.769z M127.083,173.595h-7.091v23.253h7.091c7.127,0,10.835-5.04,10.835-11.663
			C137.918,178.455,134.031,173.595,127.083,173.595z"/>
		<path fill="#FFFFFF" d="M142.708,188.533c0-5.255,3.924-9.539,8.963-9.539c5.111,0,9.071,4.355,9.107,9.647
			c0,0.108-0.036,0.504-0.036,0.54h-16.773c0.324,4.607,3.779,8.135,7.883,8.135c2.771,0,5.435-1.548,6.443-3.779l1.116,0.288
			c-1.08,2.627-4.248,4.535-7.595,4.535C146.74,198.36,142.708,193.896,142.708,188.533z M159.555,188.137
			c-0.324-4.715-3.636-8.063-7.847-8.063s-7.523,3.419-7.775,8.063H159.555z"/>
		<path fill="#FFFFFF" d="M170.283,198l-7.991-18.718h1.295l7.307,17.314l7.307-17.314h1.26L171.471,198H170.283z"/>
		<path fill="#FFFFFF" d="M181.912,188.533c0-5.255,3.924-9.539,8.963-9.539c5.111,0,9.071,4.355,9.107,9.647
			c0,0.108-0.036,0.504-0.036,0.54h-16.774c0.324,4.607,3.78,8.135,7.883,8.135c2.771,0,5.435-1.548,6.443-3.779l1.116,0.288
			c-1.08,2.627-4.248,4.535-7.595,4.535C185.944,198.36,181.912,193.896,181.912,188.533z M198.758,188.137
			c-0.324-4.715-3.636-8.063-7.847-8.063s-7.523,3.419-7.775,8.063H198.758z"/>
		<path fill="#FFFFFF" d="M204.268,171.723h1.188v23.073c0,1.404,0.936,2.268,2.34,2.268c0.54,0,1.368-0.144,1.979-0.36l0.288,1.008
			c-0.72,0.252-1.98,0.468-2.736,0.468c-1.835,0-3.06-1.224-3.06-3.132V171.723z"/>
		<path fill="#FFFFFF" d="M211.324,188.713c0-5.255,4.032-9.719,8.999-9.719c5.003,0,9.035,4.464,9.035,9.719
			c0,5.219-3.995,9.646-9.035,9.646C215.248,198.36,211.324,193.933,211.324,188.713z M220.287,197.208
			c4.248,0,7.811-3.887,7.811-8.531s-3.563-8.531-7.775-8.531s-7.775,3.923-7.775,8.603
			C212.548,193.393,216.039,197.208,220.287,197.208z"/>
		<path fill="#FFFFFF" d="M235.047,193.825v11.842h-1.224v-26.385h1.152v3.888c1.547-2.448,4.355-4.176,7.199-4.176
			c5.255,0,8.999,4.86,8.999,9.683c0,5.183-3.456,9.683-8.639,9.683C239.259,198.36,236.631,196.308,235.047,193.825z
			 M249.914,188.677c0-4.463-3.492-8.531-7.883-8.531c-2.771,0-6.731,2.556-6.983,5.399v6.443c1.26,2.916,4.14,5.219,7.307,5.219
			C246.962,197.208,249.914,192.925,249.914,188.677z"/>
	</g>
</g>
</svg>
