<?xml version="1.0" encoding="utf-8"?>
<!-- Generator: Adobe Illustrator 16.0.0, SVG Export Plug-In . SVG Version: 6.00 Build 0)  -->
<!DOCTYPE svg PUBLIC "-//W3C//DTD SVG 1.1//EN" "http://www.w3.org/Graphics/SVG/1.1/DTD/svg11.dtd">
<svg version="1.1" id="Layer_1" xmlns="http://www.w3.org/2000/svg" xmlns:xlink="http://www.w3.org/1999/xlink" x="0px" y="0px"
	 width="633px" height="297px" viewBox="0 0 633 297" enable-background="new 0 0 633 297" xml:space="preserve">
<g opacity="0.8">
	<polygon fill="#E56060" points="21.093,261.206 2.921,57.389 202.597,57.389 184.405,261.175 102.637,283.844 	"/>
	<polygon fill="#FF6B6B" points="102.758,266.517 168.833,248.198 184.377,74.054 102.758,74.054 	"/>
	<polygon fill="#EBEBEB" points="102.758,149.646 69.68,149.646 67.396,124.05 102.758,124.05 102.758,99.052 102.672,99.052 
		40.077,99.052 40.675,105.758 46.819,174.645 102.758,174.645 	"/>
	<polygon fill="#EBEBEB" points="102.758,214.567 102.648,214.598 74.809,207.08 73.029,187.143 59.501,187.143 47.937,187.143 
		51.438,226.392 102.644,240.607 102.758,240.576 	"/>
	<polygon fill="#FFFFFF" points="102.672,149.646 102.672,174.645 133.454,174.645 130.552,207.063 102.672,214.589 
		102.672,240.595 153.918,226.392 154.293,222.17 160.168,156.359 160.778,149.646 154.042,149.646 	"/>
	<polygon fill="#FFFFFF" points="102.672,99.052 102.672,114.576 102.672,123.987 102.672,124.05 162.972,124.05 162.972,124.05 
		163.053,124.05 163.554,118.43 164.693,105.758 165.291,99.052 	"/>
	<g>
		<path d="M60.379,2.525V43h-2.907V23.618H31.933V43h-2.908V2.525h2.908v18.47h25.539V2.525H60.379z"/>
		<path d="M99.48,5.147H84.659V43h-2.907V5.147H66.93V2.525H99.48V5.147z"/>
		<path d="M142.687,43V7.998l-15.962,27.306h-1.824L108.939,7.998V43h-2.908V2.525h2.908l16.874,28.959l16.874-28.959h2.907V43
			H142.687z"/>
		<path d="M156.305,43V2.525h2.908v37.853h24.171V43H156.305z"/>
	</g>
</g>
<g opacity="0.8">
	<polygon fill="#4C5865" points="450.789,260.854 432.647,57.363 632,57.363 613.84,260.82 532.202,283.453 	"/>
	<polygon fill="#556270" points="532.156,265.902 598.122,247.614 613.645,73.752 532.156,73.752 	"/>
	<polygon fill="#EBEBEB" points="532.118,214.053 532.01,214.085 504.214,206.58 502.437,186.676 488.933,186.676 477.385,186.676 
		480.881,225.861 532.003,240.053 532.118,240.021 	"/>
	<polygon fill="#EBEBEB" points="535.479,174.185 535.479,149.228 504.748,149.228 508.353,110.06 535.55,109.335 535.479,83.383 
		485.788,83.383 483.941,101.778 478.075,167.482 477.469,174.185 484.192,174.185 	"/>
	<polygon fill="#FFFFFF" points="535.311,109.369 535.42,109.339 562.679,110.979 564.991,136.748 578.495,136.748 590.044,136.748 
		585.678,88.528 535.426,83.372 535.311,83.402 	"/>
	<polyline fill="#FFFFFF" points="587.471,109.446 585.332,83.383 532.651,83.383 532.651,99.568 532.651,109.382 532.651,109.446 
		587.471,109.446 	"/>
	<polygon fill="#FFFFFF" points="532.031,149.239 532.031,174.196 562.763,174.196 559.866,206.562 532.031,214.076 
		532.031,240.042 583.194,225.861 583.569,221.646 589.435,155.94 590.044,149.239 583.318,149.239 	"/>
	<path fill="#FFFFFF" d="M584.265,108.342"/>
	<g>
		<path d="M502.385,39.448c1.882,1.255,4.618,2.167,7.867,2.167c8.779,0,9.862-6.557,9.862-17.844V3.249h2.907v20.522
			c0,12.313-1.425,20.522-12.77,20.522c-3.477,0-6.385-0.854-8.779-2.508L502.385,39.448z"/>
		<path d="M556.938,9.919c-2.623-2.907-6.271-4.39-11.117-4.39c-7.924,0-11.344,3.25-11.344,8.323c0,5.188,3.591,6.556,11.857,8.266
			c8.779,1.882,14.252,3.991,14.252,11.174c0,7.126-5.872,10.717-14.48,10.717c-6.328,0-11.629-1.995-16.019-6.042l1.539-2.338
			c3.363,3.534,8.437,5.814,14.594,5.814c7.012,0,11.287-2.622,11.287-7.81c0-5.358-4.161-7.183-12.655-9.007
			c-8.665-1.824-13.34-3.763-13.34-10.375c0-7.297,5.814-11.345,14.309-11.345c5.245,0,9.293,1.596,12.599,4.731L556.938,9.919z"/>
	</g>
</g>
<g opacity="0.8">
	<polygon fill="#46B8B0" points="240.124,261.313 222.72,57.424 413.962,57.424 396.54,261.279 318.223,283.955 	"/>
	<polygon fill="#4ECDC4" points="318.341,266.623 381.625,248.298 396.513,74.096 318.341,74.096 	"/>
	<g>
		<polygon fill="#FFFFFF" points="318.341,147.963 350.022,147.963 352.209,122.355 318.341,122.355 318.341,97.351 318.424,97.351 
			378.374,97.351 377.801,104.06 371.917,172.967 318.341,172.967 		"/>
		<polygon fill="#EBEBEB" points="318.484,212.903 318.38,212.935 291.715,205.414 290.011,185.472 277.056,185.472 
			265.979,185.472 269.333,224.734 318.374,238.954 318.484,238.922 		"/>
		<polygon fill="#FFFFFF" points="347.987,171.908 345.104,205.397 318.402,212.926 318.402,238.941 367.482,224.734 
			367.844,220.51 372.008,171.908 		"/>
		<polygon fill="#EBEBEB" points="318.424,97.351 318.424,112.881 318.424,122.296 318.424,122.355 260.671,122.355 
			260.671,122.355 260.593,122.355 260.114,116.736 259.022,104.06 258.45,97.351 		"/>
		<polygon fill="#EBEBEB" points="318.341,147.966 318.341,163.497 318.341,172.909 318.341,172.971 292.09,172.971 292.09,172.971 
			292.015,172.971 291.535,167.352 290.444,154.674 289.871,147.966 		"/>
	</g>
	<g>
		<path d="M287.037,1.298c7.183,0,12.428,3.706,14.879,8.836l-2.394,1.368c-2.793-5.586-7.981-7.524-12.713-7.524
			c-10.261,0-16.019,9.121-16.019,17.672c0,9.521,7.068,18.015,16.189,18.015c4.846,0,10.546-2.395,13.34-7.924l2.451,1.196
			c-2.679,6.101-9.805,9.406-16.019,9.406c-11.06,0-18.87-10.603-18.87-20.864C267.883,11.73,274.895,1.298,287.037,1.298z"/>
		<path d="M333.493,8.253c-2.622-2.907-6.271-4.39-11.116-4.39c-7.924,0-11.345,3.25-11.345,8.323c0,5.188,3.591,6.556,11.857,8.266
			c8.779,1.882,14.252,3.991,14.252,11.174c0,7.126-5.872,10.717-14.479,10.717c-6.328,0-11.63-1.995-16.019-6.042l1.539-2.338
			c3.363,3.534,8.437,5.814,14.593,5.814c7.012,0,11.287-2.622,11.287-7.81c0-5.358-4.16-7.183-12.655-9.007
			c-8.665-1.824-13.34-3.763-13.34-10.375c0-7.297,5.815-11.345,14.309-11.345c5.244,0,9.292,1.596,12.598,4.731L333.493,8.253z"/>
		<path d="M368.319,8.253c-2.622-2.907-6.271-4.39-11.116-4.39c-7.924,0-11.345,3.25-11.345,8.323c0,5.188,3.591,6.556,11.857,8.266
			c8.779,1.882,14.252,3.991,14.252,11.174c0,7.126-5.872,10.717-14.479,10.717c-6.328,0-11.63-1.995-16.02-6.042l1.539-2.338
			c3.363,3.534,8.438,5.814,14.594,5.814c7.012,0,11.287-2.622,11.287-7.81c0-5.358-4.16-7.183-12.654-9.007
			c-8.666-1.824-13.34-3.763-13.34-10.375c0-7.297,5.814-11.345,14.309-11.345c5.244,0,9.292,1.596,12.598,4.731L368.319,8.253z"/>
	</g>
</g>
</svg>
