<?xml version="1.0" encoding="utf-8"?>
<!-- Generator: Adobe Illustrator 16.0.0, SVG Export Plug-In . SVG Version: 6.00 Build 0)  -->
<!DOCTYPE svg PUBLIC "-//W3C//DTD SVG 1.1//EN" "http://www.w3.org/Graphics/SVG/1.1/DTD/svg11.dtd">
<svg version="1.1" id="Layer_1" xmlns="http://www.w3.org/2000/svg" xmlns:xlink="http://www.w3.org/1999/xlink" x="0px" y="0px"
	 width="631px" height="490px" viewBox="0 0 631 490" enable-background="new 0 0 631 490" xml:space="preserve">
<path opacity="0.8" fill="#464342" d="M312.609,23.109c-127.098,0-230.5,103.398-230.5,230.494
	c0,127.098,103.402,230.507,230.5,230.507c127.093,0,230.5-103.409,230.5-230.507C543.109,126.508,439.702,23.109,312.609,23.109z
	 M105.372,253.604c0-30.046,6.445-58.567,17.946-84.341l98.857,270.847C153.038,406.525,105.372,335.63,105.372,253.604z
	 M312.609,460.852c-20.342,0-39.977-2.98-58.549-8.443l62.186-180.677l63.697,174.517c0.418,1.025,0.934,1.968,1.483,2.857
	C359.887,456.688,336.741,460.852,312.609,460.852z M341.17,156.438c12.475-0.655,23.717-1.969,23.717-1.969
	c11.167-1.321,9.85-17.732-1.321-17.078c0,0-33.567,2.635-55.236,2.635c-20.364,0-54.579-2.635-54.579-2.635
	c-11.176-0.654-12.486,16.417-1.315,17.078c0,0,10.572,1.313,21.736,1.969l32.285,88.467l-45.357,136.013l-75.464-224.479
	c12.487-0.655,23.718-1.969,23.718-1.969c11.16-1.321,9.84-17.732-1.326-17.078c0,0-33.56,2.635-55.231,2.635
	c-3.89,0-8.473-0.095-13.337-0.253c37.055-56.254,100.748-93.407,173.151-93.407c53.949,0,103.072,20.628,139.941,54.412
	c-0.894-0.054-1.765-0.169-2.685-0.169c-20.356,0-34.801,17.736-34.801,36.782c0,17.078,9.854,31.528,20.356,48.607
	c7.882,13.8,17.085,31.532,17.085,57.152c0,17.733-6.821,38.317-15.768,66.993l-20.676,69.063L341.17,156.438z M494.459,154.182
	c16.176,29.517,25.382,63.39,25.382,99.422c0,76.455-41.435,143.202-103.044,179.125l63.296-183.01
	c11.822-29.564,15.76-53.206,15.76-74.225C495.853,167.861,495.35,160.782,494.459,154.182z"/>
</svg>
