<?xml version="1.0" encoding="utf-8"?>
<!-- Generator: Adobe Illustrator 16.0.0, SVG Export Plug-In . SVG Version: 6.00 Build 0)  -->
<!DOCTYPE svg PUBLIC "-//W3C//DTD SVG 1.1//EN" "http://www.w3.org/Graphics/SVG/1.1/DTD/svg11.dtd">
<svg version="1.1" id="Layer_1" xmlns="http://www.w3.org/2000/svg" xmlns:xlink="http://www.w3.org/1999/xlink" x="0px" y="0px"
	 width="56.693px" height="56.693px" viewBox="0 0 56.693 56.693" enable-background="new 0 0 56.693 56.693" xml:space="preserve">
<g>
	<path fill="#FFFFFF" d="M14.227,21.521c0,5.159,0,10.157,0,15.222c2.634-2.532,5.206-5.004,7.825-7.521
		C19.443,26.654,16.883,24.135,14.227,21.521z"/>
	<path fill="#FFFFFF" d="M28.912,33.967c-0.684,0.698-1.358,0.696-2.047-0.006c-0.979-0.999-1.925-2.029-2.902-3.063
		c-2.638,2.537-5.145,4.946-7.715,7.418c7.808,0,15.506,0,23.288,0c-2.572-2.472-5.079-4.881-7.716-7.413
		C30.839,31.939,29.891,32.969,28.912,33.967z"/>
	<path fill="#FFFFFF" d="M38.792,20.665c-7.319,0-14.502,0-21.803,0c3.676,3.629,7.277,7.183,10.904,10.763
		C31.537,27.829,35.129,24.282,38.792,20.665z"/>
	<path fill="#FFFFFF" d="M27.708,4.821c-13.601,0-24.625,11.025-24.625,24.625c0,13.602,11.023,24.625,24.625,24.625
		c13.598,0,24.623-11.023,24.623-24.625C52.331,15.847,41.304,4.821,27.708,4.821z M44.127,39.349
		c-0.004,1.093-0.471,1.553-1.575,1.553c-4.885,0.001-9.771,0.001-14.656,0.001c-4.851,0-9.701,0-14.551,0
		c-1.278-0.001-1.695-0.412-1.696-1.703c-0.002-3.658,0.008-7.317,0.002-10.977c-0.004-2.818-0.028-5.636-0.038-8.454
		c-0.004-1.368,0.428-1.802,1.774-1.802c9.684,0,19.367,0,29.05,0c1.282,0,1.734,0.448,1.731,1.739
		C44.157,26.254,44.141,32.802,44.127,39.349z"/>
	<path fill="#FFFFFF" d="M33.887,29.373c2.471,2.374,5.041,4.845,7.653,7.355c0-5.067,0-10.066,0-15.064
		c-0.064-0.042-0.13-0.083-0.194-0.124C38.867,24.143,36.389,26.746,33.887,29.373z"/>
</g>
<path fill-rule="evenodd" clip-rule="evenodd" d="M91.145,41.153c-4.851,0-9.701,0-14.551,0c-1.279-0.001-1.695-0.412-1.696-1.703
	c-0.002-3.658,0.009-7.317,0.002-10.977c-0.005-2.818-0.028-5.636-0.038-8.454c-0.004-1.368,0.429-1.802,1.775-1.802
	c9.684,0,19.366,0,29.05,0c1.282,0,1.734,0.448,1.731,1.739c-0.012,6.548-0.027,13.095-0.042,19.643
	c-0.004,1.093-0.471,1.553-1.575,1.553C100.917,41.153,96.031,41.153,91.145,41.153z M102.042,20.915c-7.319,0-14.502,0-21.803,0
	c3.676,3.629,7.277,7.184,10.903,10.763C94.787,28.079,98.379,24.532,102.042,20.915z M79.499,38.565c7.808,0,15.506,0,23.287,0
	c-2.572-2.472-5.079-4.881-7.716-7.413c-0.981,1.037-1.929,2.066-2.908,3.064c-0.684,0.698-1.358,0.696-2.047-0.006
	c-0.979-0.999-1.925-2.029-2.901-3.063C84.575,33.684,82.069,36.094,79.499,38.565z M85.302,29.472
	c-2.609-2.568-5.168-5.088-7.824-7.702c0,5.159,0,10.157,0,15.222C80.112,34.461,82.683,31.989,85.302,29.472z M104.791,36.978
	c0-5.067,0-10.066,0-15.064c-0.064-0.042-0.13-0.083-0.194-0.124c-2.479,2.604-4.957,5.207-7.459,7.833
	C99.608,31.997,102.178,34.468,104.791,36.978z"/>
</svg>
