<?xml version="1.0" encoding="utf-8"?>
<!-- Generator: Adobe Illustrator 16.0.0, SVG Export Plug-In . SVG Version: 6.00 Build 0)  -->
<!DOCTYPE svg PUBLIC "-//W3C//DTD SVG 1.1//EN" "http://www.w3.org/Graphics/SVG/1.1/DTD/svg11.dtd">
<svg version="1.1" id="Layer_1" xmlns="http://www.w3.org/2000/svg" xmlns:xlink="http://www.w3.org/1999/xlink" x="0px" y="0px"
	 width="56.693px" height="56.693px" viewBox="0 0 56.693 56.693" enable-background="new 0 0 56.693 56.693" xml:space="preserve">
<path fill="#FFFFFF" d="M28.347,5.157c-13.601,0-24.625,11.027-24.625,24.625c0,13.6,11.023,24.623,24.625,24.623
	s24.625-11.023,24.625-24.623C52.972,16.184,41.948,5.157,28.347,5.157z M34.966,44.126c-1.016,0-6.633-0.133-8.067-0.133
	s-8.912-2.332-8.912-10.559c0-1.466-0.001-2.938-0.005-4.404c-0.006-1.367-0.034-2.732-0.039-4.09
	c-0.001-0.396-0.003-0.793-0.005-1.189c-0.011-2.071-0.186-4.404,0.48-6.395c0.511-1.519,1.716-2.125,3.202-2.125
	c3.594,0,3.834,3.664,3.844,7.344h10.388c1.645,0,2.873,1.668,2.873,4.221c0,2.552-2.662,3.123-4.056,3.123h-9.319
	c-0.048,1.563-0.099,2.834-0.099,3.607c0,1.625,0.636,3.385,4.604,3.385h5.578c1.393,0,3.459,1.055,3.459,4.002
	C38.892,43.856,35.979,44.126,34.966,44.126z"/>
</svg>
