<?xml version="1.0" encoding="utf-8"?>
<!-- Generator: Adobe Illustrator 16.0.0, SVG Export Plug-In . SVG Version: 6.00 Build 0)  -->
<!DOCTYPE svg PUBLIC "-//W3C//DTD SVG 1.1//EN" "http://www.w3.org/Graphics/SVG/1.1/DTD/svg11.dtd">
<svg version="1.1" id="Layer_1" xmlns="http://www.w3.org/2000/svg" xmlns:xlink="http://www.w3.org/1999/xlink" x="0px" y="0px"
	 width="630px" height="325px" viewBox="0 0 630 325" enable-background="new 0 0 630 325" xml:space="preserve">
<g opacity="0.8">
	<path fill="#BF5151" d="M495.534,142.14c-0.296,15.649-3.334,30.644-10.422,44.736c-0.786,1.562-1.024,3.841-0.56,5.518
		c7.514,27.055-2.896,49.23-28.91,61.208c-9.554,4.398-19.597,6.444-30.114,6.553c-1.911,0.021-3.942,1.099-5.682,2.102
		c-5.459,3.144-10.747,6.585-16.213,9.712c-4.051,2.317-8.67,3.803-12.356,6.564c-14.448,10.821-29.842,17.322-48.293,12.582
		c-1.114-0.285-2.51,0.037-3.656,0.427c-21.779,7.401-42.347,3.273-62.099-6.873c-3.566-1.833-6.464-2.051-10.189-1.138
		c-18.787,4.613-37.258,5.118-53.8-6.934c-5.072-3.693-8.523-10.052-13.934-12.716c-5.371-2.648-12.895-0.833-18.388-3.349
		c-13.513-6.196-26.546-13.526-39.626-20.604c-9.932-5.376-14.298-15.941-15.254-27.051c-0.664-7.709-0.087-15.578,0.537-23.326
		c0.824-10.228,1.632-20.523,3.542-30.583c2.577-13.577,9.918-24.383,21.565-32.196c1.669-1.118,3.16-3.415,3.537-5.391
		c2.21-11.649,7.325-21.595,16.044-29.691c1.293-1.202,2.43-2.721,3.205-4.302c4.275-8.71,10.573-15.5,18.537-21.02
		c3.045-2.109,5.221-5.432,7.946-8.043c17.605-16.873,38.727-23.491,62.818-21.514c1.882,0.156,4.03,0.056,5.698-0.709
		c25.543-11.69,50.708-12.643,75.603,1.947c2.16,1.266,5.193,1.59,7.787,1.483c15.746-0.637,30.619,2.286,44.622,9.724
		c2.25,1.192,5.246,1.627,7.825,1.44c12-0.87,22.405,3.349,32.357,9.374c1.334,0.809,2.834,1.742,4.317,1.853
		c16.323,1.204,33.346,15.802,38.359,36.336c0.716,2.935,2.456,5.915,4.491,8.185c8.354,9.306,10.11,20.641,10.697,32.424
		C495.581,139.954,495.534,141.048,495.534,142.14z M438.034,78.207c-6.859-8.688-17.144-12.71-28.891-13.055
		c-5.275-0.156-10.146-0.762-14.951-3.137c-4.52-2.23-9.346-3.916-14.152-5.467c-17.445-5.629-34.604-4.771-50.346,4.799
		c-9.06,5.508-17.352,12.456-25.34,19.496c-7.031,6.195-14.324,11.115-23.879,11.87c-9.669,0.766-16.944,5.083-20.974,14.46
		c-0.591-1.089-1.025-1.883-1.519-2.795c-10.415,5.68-17.062,14.249-22.542,24.179c-2.452,4.444-5.682,9.367-9.876,11.78
		c-18.764,10.795-28.07,33.014-21.636,53.451c2.188,6.954,6.429,11.497,13.362,13.908c4.945,1.721,9.988,3.576,14.404,6.317
		c14.408,8.942,27.835,7.106,39.543-6.991c-0.922,2.278-1.151,3.281-1.683,4.088c-5.419,8.218-13.487,11.531-22.89,11.193
		c-4.752-0.17-7.547,1.847-9.939,5.266c-1.107,1.575-1.982,3.312-2.963,4.974c-0.406-0.192-0.809-0.384-1.215-0.575
		c1.658-3.619,3.313-7.242,5.186-11.339c-8.983-4.966-18.351-10.145-27.718-15.323c-0.678,0.369-1.353,0.736-2.029,1.104
		c-0.268,9.55-1.519,19.189-0.633,28.629c3.79,40.447,41.574,44.139,63.353,32.468c-3.641-5.389-7.297-10.808-10.949-16.214
		c-11.199,8.228-16.577,10.258-23.065,8.825c4.208-1.751,8.859-3.251,13.059-5.569c4.383-2.417,8.328-5.622,12.515-8.518
		c7.252,28.623,46.711,43.052,73.842,30.511c-1.11-2.409-2.229-4.829-3.343-7.25c5.75,7.617,13.465,9.392,22.066,8.799
		c9.727-0.671,18.035-4.858,26.037-10.241c5.355-3.605,11.156-7.001,17.249-8.948c8.811-2.813,13.906-7.99,15.537-17.001
		c0.265-1.463,1.529-3.291,2.836-3.936c15.045-7.43,20.142-19.976,14.657-36.576c-4.17-0.424-8.346-0.843-12.609-1.277
		c7.608-1.283,14.896-2.516,23.054-3.893c-3.028,1.735-5.327,3.053-7.604,4.357c0.693,4.162,1.346,8.074,1.964,11.797
		c2.571,1.065,4.945,2.048,7.323,3.029c-0.101,0.353-0.197,0.705-0.294,1.057c-2.438,0-4.875,0-7.202,0
		c-3.26,12.688-6.271,16.682-16.647,23.518c-1.694,1.113-2.551,3.494-3.796,5.291c0.365,0.548,0.729,1.096,1.092,1.642
		c5.037,0,10.1,0.343,15.104-0.056c28.894-2.302,45.53-24.916,38.211-51.819c-0.361-1.327-1.491-2.443-2.784-4.478
		c0.137-0.213,1.044-1.528,1.841-2.907c10.352-17.956,16.1-37.052,12.571-57.877c-0.791-4.656-4.063-9.095-6.921-13.118
		c-1.532-2.154-4.72-3.743-5.856,1.736c0.564-9.932-0.975-18.747-5.823-26.795c-4.093-6.802-9.671-11.834-17.591-13.633
		C443.287,77.536,441.178,78.067,438.034,78.207z M203.331,247.357c-0.246-1.745-0.317-2.824-0.559-3.862
		c-2.639-11.333-2.885-22.608-0.168-34.033c0.714-3.007,0.317-6.788-0.891-9.663c-9.021-21.541-5.786-48.955,18.98-61.805
		c4.575-2.372,7.608-7.918,11.042-12.244c5.49-6.916,10.092-14.669,16.295-20.837c3.729-3.71,4.973-6.803,4.06-11.546
		c0.74,1.974,1.479,3.945,2.43,6.471c2.383-1.504,4.837-2.462,6.47-4.195c4.36-4.634,9.619-7.121,15.842-7.564
		c17.177-1.221,27.526-10.426,31.89-27.346c0.365,1.945,0.652,3.466,0.699,3.714c10.817-4.759,21.595-9.502,32.056-14.104
		c-20.743-12.911-43.007-14.294-65.478-1.975c-7.124,3.905-13.204,9.725-20.775,15.438c2.728,1.559,3.928,2.24,5.126,2.926
		c-0.19,0.135-0.38,0.272-0.568,0.406c-3.854-1.071-7.707-2.146-9.846-2.743c5.409-4.341,11.62-9.318,18.276-14.659
		c-1.319-0.473-1.968-0.891-2.624-0.915c-21.47-0.743-40.406,5.602-56.367,20.228c-2.445,2.241-4.755,4.679-7.444,6.587
		c-6.501,4.617-11.07,10.575-13.862,17.363c8.583,0,16.914,0,25.51,0c1.759-7.284,3.712-14.895,10.539-19.368
		c-2.277,5.969-4.546,11.987-6.874,17.981c-1.083,2.788-0.203,4.472,2.152,6.401c6.749,5.522,9.125,12.954,7.785,21.488
		c-1.302,8.288-7.792,15.115-14.989,15.646c1.138-0.641,1.9-1.121,2.702-1.517c8.579-4.223,10.88-11.653,10.394-20.454
		c-0.447-8.107-5.404-12.802-12.369-15.789c-17.782-7.629-40.328,5.441-43.417,25.123c-1.163,7.423-0.244,8.758,7.051,10.26
		c1.025,0.21,2.035,0.479,3.287,0.774c3.238-8.036,8.193-13.974,16.96-15.683c-9.449,6.276-14.378,15.731-18.679,25.799
		c0.138-2.116,0.272-4.235,0.429-6.624c-9.513-2.75-17.564-0.117-23.959,6.624c-11.76,12.399-16.75,26.564-9.714,43.396
		c1.556,3.722,2.238,7.812,3.322,11.729c-0.292,0.065-0.585,0.131-0.877,0.193c-1.726-5.37-3.451-10.738-5.584-17.381
		c-4.42,11.641-4.573,21.95-2.41,32.532c1.58,7.729,6.047,13.073,12.531,17c8.367,5.064,16.387,4.943,22.324-0.187
		c7.036-6.08,11.046-17.829,6.652-25.139c-5.903-9.822-8.18-21.688-16.934-29.885c-1.338-1.251-1.99-3.229-3.766-6.233
		c6.099,4.89,10.912,8.745,15.896,12.739c-1.578-0.105-3.037-0.204-5.901-0.398c3.483,6.02,6.153,11.14,9.293,15.957
		c9.949,15.266,6.32,29.971-9.72,38.721c-0.231,0.125-0.253,0.626-0.436,1.12C178.267,248.254,189.881,249.926,203.331,247.357z"/>
	<path fill="#FF6B6B" d="M438.034,78.207c3.144-0.14,5.253-0.671,7.146-0.244c7.92,1.801,13.498,6.833,17.591,13.633
		c4.845,8.05,6.386,16.867,5.821,26.799c1.137-5.48,4.324-3.893,5.856-1.738c2.858,4.025,6.13,8.462,6.921,13.122
		c3.53,20.823-2.218,39.915-12.569,57.873c-0.797,1.381-1.706,2.696-1.841,2.907c1.293,2.032,2.423,3.15,2.782,4.478
		c7.321,26.903-9.317,49.516-38.209,51.818c-5.005,0.399-10.067,0.056-15.104,0.056c-0.365-0.545-0.73-1.094-1.094-1.641
		c1.245-1.795,2.102-4.176,3.796-5.293c10.377-6.834,13.39-10.828,16.647-23.516c2.327,0,4.763,0,7.2,0
		c0.101-0.35,0.197-0.704,0.296-1.055c-2.376-0.981-4.75-1.968-7.321-3.031c-0.618-3.722-1.271-7.633-1.966-11.797
		c2.277-1.303,4.576-2.622,7.604-4.355c-8.157,1.375-15.443,2.609-23.054,3.891c4.264,0.435,8.438,0.855,12.611,1.277
		c5.482,16.601,0.386,29.146-14.659,36.578c-1.305,0.645-2.569,2.473-2.836,3.934c-1.631,9.011-6.725,14.189-15.535,17.003
		c-6.093,1.947-11.894,5.345-17.251,8.946c-8.002,5.385-16.309,9.572-26.037,10.241c-8.602,0.595-16.318-1.18-22.064-8.797
		c1.114,2.419,2.232,4.841,3.343,7.248c-27.131,12.541-66.59-1.886-73.846-30.511c-4.185,2.896-8.128,6.103-12.511,8.518
		c-4.2,2.318-8.854,3.816-13.061,5.571c6.49,1.433,11.868-0.599,23.067-8.827c3.652,5.406,7.309,10.823,10.948,16.214
		c-21.779,11.669-59.563,7.979-63.354-32.466c-0.883-9.441,0.365-19.081,0.635-28.629c0.677-0.371,1.351-0.736,2.027-1.105
		c9.368,5.179,18.736,10.358,27.718,15.324c-1.875,4.098-3.529,7.717-5.184,11.338c0.402,0.191,0.809,0.385,1.213,0.577
		c0.979-1.662,1.858-3.399,2.961-4.976c2.396-3.417,5.191-5.434,9.943-5.264c9.399,0.337,17.471-2.978,22.89-11.195
		c0.529-0.805,0.756-1.808,1.681-4.086c-11.709,14.096-25.133,15.934-39.545,6.989c-4.412-2.741-9.458-4.597-14.4-6.317
		c-6.936-2.413-11.175-6.954-13.364-13.908c-6.434-20.438,2.874-42.656,21.636-53.451c4.194-2.413,7.424-7.338,9.874-11.78
		c5.482-9.93,12.127-18.5,22.543-24.178c0.496,0.911,0.928,1.705,1.519,2.792c4.03-9.375,11.305-13.692,20.974-14.458
		c9.558-0.753,16.849-5.675,23.879-11.87c7.986-7.038,16.282-13.988,25.342-19.496c15.742-9.57,32.898-10.428,50.344-4.799
		c4.809,1.553,9.635,3.236,14.152,5.467c4.808,2.375,9.677,2.982,14.953,3.137C420.891,65.497,431.175,69.52,438.034,78.207z
		 M388.25,230.182c0.94-0.198,2.107-0.108,2.789-0.64c7.137-5.553,8.536-16.698,3.028-23.347c-5.573-6.725-18.176-7.828-24.522-1.56
		c-3.962,3.913-7.018,8.76-10.385,13.259c-4.016,5.368-8.639,10.506-15.492,11.118c-5.685,0.511-8.924,3.228-12.848,6.865
		c-9.092,8.421-19.573,11.769-31.134,3.622c8.16,9.494,17.333,10.765,26.946,3.645c3.16-2.34,5.609-5.635,8.521-8.342
		c1.066-0.992,2.596-2.29,3.807-2.188c8.376,0.706,14.312-3.472,19.234-9.426c4.043-4.893,7.552-10.226,11.495-15.209
		c4.129-5.217,8.972-6.251,15.012-3.557c11.064,4.932,12.52,15.158,3.712,25.957c-1.491-1.683-2.983-3.367-4.477-5.052
		c0.461,0.111,0.921,0.222,1.381,0.333c-0.95,7.614-1.902,15.231-2.744,22.005C388.015,243.922,388.447,237.171,388.25,230.182z
		 M318.835,132.99c14.128-3.678,20.665-15.144,13.941-24.041c2.758,9.911-1.26,17.232-10.588,19.586
		c-2.865,0.725-4.399,0.133-6.162-2.561c-2.246-3.424-5.629-6.102-8.523-9.102c2.201,4.313,5.443,7.753,6.919,11.834
		c3.665,10.118-1.327,16.804-12.019,17.063c-3.997,0.096-8.001,0.059-11.989,0.271c-6.194,0.339-10.139,3.443-11.501,9.661
		c-1.396,6.373-3.408,12.373-10.417,14.121c1.517,19.275-4.578,22.914-29.173,18.442c5.717,2.463,10.878,6.028,17.739,5.75
		c12.138-0.499,18.217-8.765,14.289-20.265c-0.332-0.967-0.65-1.936-1.036-3.082c5.721-1.695,7.776-5.949,9.345-10.848
		c2.965-9.268,6.401-11.436,16.165-10.784c1.271,0.084,2.536,0.246,3.805,0.336C312.089,150.222,317.37,145.802,318.835,132.99z
		 M331.286,160.44c9.82,8.396,13.353,13.237,15.332,20.429c3.979,14.442-7.7,28.313-22.279,26.321
		c-2.947-0.4-5.81-1.418-8.992-2.223c0.663,1.938,1.222,3.57,1.785,5.204c0.056-0.523,0.112-1.047,0.166-1.568
		c3.994,0.189,8.121,1.092,11.95,0.382c4.325-0.8,9.082-2.199,12.358-4.901c3.269-2.693,5.892-7.065,7.036-11.189
		c1.159-4.17,0.88-9.104-0.099-13.401c-0.969-4.258-3.591-8.139-5.63-12.486c5.928-3.255,11.938-7.305,12.112-15.11
		c0.213-9.574,5.706-15.917,12.086-21.619c9.045-8.083,19.154-5.131,23.045,6.363c1.221,3.609,1.765,7.471,3.21,10.974
		c1.871,4.538,4.569,8.515,10.604,7.937c-5.787-1.863-7.258-6.701-8.428-11.76c-0.738-3.185-1.276-6.435-2.282-9.531
		c-3.939-12.133-17.158-15.93-26.399-7.235c-4.032,3.794-6.872,8.847-10.342,13.26c-0.752,0.956-1.891,1.606-3.875,3.24
		c0,1.839,0.376,5.323-0.086,8.694c-0.773,5.639-4.479,9.237-9.254,12.09c-4.336,2.592-6.037-1.984-9.072-2.844
		C333.749,161.329,333.279,161.137,331.286,160.44z M335.987,78.353c23.577-5.398,33.886,2.063,27.654,26.491
		c0.615-0.462,1.588-1.197,3.283-2.478c3.071,5.599,5.971,10.884,8.967,16.353c-0.138-6.195-1.539-11.807-5.774-16.49
		c-2.268-2.509-1.672-10.938,1.153-12.888c12.802-8.844,30.97-5.079,34.417,11.013c0.674,3.16,1.328,6.322,2.081,9.915
		c1.763-19.087-12.928-39.147-38.535-24.617C359.909,72.367,347.535,69.646,335.987,78.353z M426.779,131.562
		c9.047,6.948,16.233,14.836,11.573,26.548c-5.566,13.984-15.552,22.553-33.422,19.865c12.783,5.445,25.422,1.032,34.838-11.713
		c2.329-3.151,3.932-7.58,4.049-11.475c0.289-9.545-5.354-16.543-12.169-22.477c2.653-2.064,4.941-3.846,7.231-5.627
		c-0.17-0.239-0.341-0.476-0.513-0.711C434.702,127.738,431.037,129.506,426.779,131.562z M245.518,146.227
		c-3.951,0-7.59,0-12.518,0c5.907,1.297,10.36,2.277,14.797,3.253c4.027-19.604,7.435-23.241,25.009-26.507
		C255.428,120.534,248.045,126.672,245.518,146.227z M287.39,195.595c4.142-4.898,7.685-9.837,11.987-13.986
		c5.042-4.865,11.342-3.034,17.346-1.573C304.446,172.957,295.498,177.689,287.39,195.595z M377.949,165.248
		c-2.596,5.439-5.097,10.681-7.596,15.924c0.276,0.225,0.55,0.451,0.826,0.681c2.476-3.259,4.954-6.521,7.617-10.021
		c3.663,0.544,7.541,1.12,10.791,1.604C387.359,168.742,377.908,174.179,377.949,165.248z M317.221,267.576
		c8.958,0.389,17.396,0.124,23.137-7.821C332.735,262.332,325.155,264.895,317.221,267.576z M460.661,143.61
		c0.737,6.031,1.42,11.641,2.105,17.245c0.277,0.055,0.556,0.11,0.831,0.162c0.396-5.007,0.792-10.014,1.207-15.265
		c0.299-0.13,1.159-0.499,3.012-1.299C464.662,144.084,462.699,143.851,460.661,143.61z M283.621,214.089
		c0.296-0.322,0.592-0.645,0.887-0.967c-2.94-2.813-5.886-5.628-8.966-8.571c3.447-1.953,5.819-3.299,8.191-4.643
		c-0.093-0.156-0.187-0.311-0.28-0.465c-3.752,1.267-7.511,2.537-12.332,4.168C275.589,207.356,279.607,210.724,283.621,214.089z"/>
	<path fill="#FF6B6B" d="M203.331,247.357c-13.45,2.57-25.064,0.896-34.218-9.531c0.181-0.493,0.205-0.994,0.435-1.121
		c16.038-8.75,19.67-23.453,9.719-38.718c-3.14-4.816-5.81-9.939-9.291-15.956c2.862,0.193,4.321,0.293,5.899,0.398
		c-4.987-3.994-9.798-7.85-15.896-12.743c1.775,3.007,2.428,4.984,3.766,6.235c8.754,8.194,11.031,20.064,16.935,29.885
		c4.394,7.31,0.384,19.059-6.652,25.139c-5.935,5.128-13.957,5.253-22.325,0.185c-6.483-3.925-10.949-9.269-12.529-16.998
		c-2.164-10.58-2.011-20.893,2.409-32.534c2.135,6.645,3.861,12.013,5.584,17.381c0.292-0.062,0.587-0.125,0.878-0.189
		c-1.084-3.919-1.767-8.008-3.321-11.73c-7.038-16.832-2.046-30.994,9.712-43.396c6.396-6.743,14.449-9.375,23.959-6.624
		c-0.153,2.389-0.291,4.508-0.427,6.624c4.299-10.065,9.229-19.522,18.677-25.799c-8.765,1.709-13.722,7.646-16.96,15.683
		c-1.252-0.296-2.262-0.564-3.287-0.773c-7.293-1.5-8.214-2.84-7.051-10.262c3.091-19.679,25.636-32.751,43.417-25.12
		c6.965,2.985,11.922,7.681,12.37,15.789c0.486,8.801-1.813,16.231-10.394,20.454c-0.801,0.394-1.562,0.874-2.702,1.515
		c7.198-0.529,13.688-7.358,14.989-15.646c1.341-8.535-1.036-15.968-7.784-21.488c-2.357-1.93-3.236-3.613-2.152-6.401
		c2.325-5.994,4.595-12.011,6.874-17.983c-6.83,4.478-8.78,12.086-10.542,19.37c-8.598,0-16.927,0-25.51,0
		c2.792-6.788,7.36-12.746,13.862-17.363c2.685-1.908,5.001-4.346,7.446-6.585c15.961-14.628,34.896-20.973,56.364-20.228
		c0.66,0.022,1.306,0.442,2.627,0.913c-6.66,5.343-12.866,10.319-18.278,14.659c2.139,0.597,5.993,1.67,9.846,2.745
		c0.19-0.137,0.38-0.271,0.57-0.408c-1.2-0.682-2.4-1.369-5.128-2.924c7.573-5.711,13.651-11.53,20.775-15.439
		c22.47-12.321,44.736-10.937,65.477,1.973c-10.461,4.604-21.238,9.349-32.054,14.106c-0.048-0.248-0.333-1.767-0.701-3.71
		c-4.364,16.917-14.713,26.121-31.89,27.341c-6.222,0.444-11.482,2.934-15.842,7.565c-1.632,1.735-4.086,2.693-6.468,4.194
		c-0.949-2.524-1.69-4.494-2.432-6.468c0.913,4.74-0.332,7.836-4.062,11.544c-6.202,6.168-10.804,13.919-16.294,20.837
		c-3.434,4.328-6.466,9.873-11.042,12.246c-24.765,12.846-28,40.262-18.98,61.803c1.206,2.875,1.606,6.656,0.891,9.665
		c-2.717,11.425-2.469,22.698,0.167,34.033C203.014,244.533,203.085,245.612,203.331,247.357z"/>
	<path fill="#BF5151" d="M318.835,132.99c-1.465,12.812-6.746,17.231-19.204,16.378c-1.271-0.086-2.534-0.248-3.805-0.334
		c-9.764-0.651-13.2,1.519-16.167,10.784c-1.569,4.896-3.623,9.152-9.343,10.848c0.386,1.148,0.705,2.117,1.034,3.082
		c3.93,11.5-2.148,19.768-14.289,20.265c-6.863,0.28-12.022-3.285-17.737-5.748c24.593,4.472,30.688,0.833,29.173-18.444
		c7.006-1.746,9.019-7.748,10.415-14.121c1.362-6.216,5.309-9.322,11.501-9.659c3.99-0.214,7.992-0.175,11.991-0.272
		c10.692-0.257,15.683-6.942,12.019-17.063c-1.478-4.079-4.718-7.521-6.919-11.832c2.892,2.998,6.278,5.678,8.521,9.102
		c1.763,2.691,3.298,3.283,6.164,2.561c9.327-2.355,13.346-9.675,10.586-19.588C339.496,117.847,332.963,129.313,318.835,132.99z"/>
	<path fill="#BF5151" d="M331.286,160.44c1.993,0.696,2.463,0.887,2.947,1.022c3.038,0.857,4.737,5.436,9.075,2.844
		c4.772-2.853,8.479-6.451,9.254-12.09c0.462-3.371,0.083-6.857,0.083-8.692c1.985-1.636,3.125-2.286,3.876-3.242
		c3.472-4.413,6.308-9.468,10.34-13.26c9.243-8.694,22.462-4.897,26.4,7.233c1.007,3.098,1.543,6.349,2.281,9.533
		c1.17,5.059,2.643,9.895,8.43,11.76c-6.033,0.576-8.735-3.4-10.606-7.936c-1.443-3.504-1.988-7.366-3.208-10.975
		c-3.892-11.494-14-14.446-23.045-6.365c-6.38,5.704-11.872,12.049-12.084,21.621c-0.175,7.805-6.187,11.854-12.112,15.11
		c2.039,4.348,4.659,8.23,5.628,12.486c0.977,4.299,1.258,9.231,0.101,13.401c-1.145,4.122-3.77,8.494-7.038,11.191
		c-3.276,2.702-8.033,4.1-12.36,4.899c-3.827,0.708-7.952-0.194-11.948-0.384c-0.056,0.523-0.112,1.049-0.166,1.568
		c-0.561-1.63-1.12-3.262-1.785-5.202c3.185,0.804,6.047,1.82,8.994,2.224c14.575,1.989,26.257-11.88,22.279-26.322
		C344.639,173.678,341.106,168.837,331.286,160.44z"/>
	<path fill="#BF5151" d="M388.396,230.365c8.823-10.779,7.368-21.006-3.694-25.941c-6.041-2.691-10.883-1.658-15.012,3.559
		c-3.943,4.982-7.454,10.314-11.497,15.209c-4.923,5.954-10.856,10.132-19.234,9.426c-1.211-0.104-2.74,1.197-3.805,2.188
		c-2.914,2.707-5.361,6-8.523,8.344c-9.613,7.118-18.786,5.85-26.944-3.645c11.559,8.146,22.04,4.798,31.132-3.625
		c3.926-3.635,7.165-6.354,12.848-6.862c6.855-0.613,11.479-5.751,15.492-11.12c3.367-4.499,6.425-9.346,10.385-13.257
		c6.347-6.271,18.949-5.165,24.521,1.56c5.512,6.648,4.11,17.792-3.024,23.347c-0.684,0.529-1.849,0.439-2.791,0.638
		L388.396,230.365z"/>
	<path fill="#BF5151" d="M335.987,78.353c11.548-8.706,23.922-5.985,33.246,7.299c25.605-14.53,40.296,5.53,38.535,24.619
		c-0.753-3.593-1.407-6.757-2.081-9.915c-3.447-16.092-21.615-19.858-34.417-11.015c-2.825,1.949-3.421,10.379-1.153,12.888
		c4.235,4.686,5.637,10.297,5.774,16.492c-2.996-5.471-5.894-10.756-8.967-16.354c-1.695,1.282-2.668,2.018-3.283,2.479
		C369.873,80.415,359.564,72.954,335.987,78.353z"/>
	<path fill="#BF5151" d="M426.779,131.562c4.258-2.056,7.923-3.823,11.588-5.589c0.17,0.235,0.339,0.472,0.513,0.711
		c-2.292,1.781-4.58,3.564-7.231,5.627c6.813,5.934,12.458,12.932,12.168,22.477c-0.116,3.893-1.721,8.323-4.05,11.475
		c-9.416,12.747-22.053,17.16-34.836,11.715c17.87,2.686,27.855-5.883,33.422-19.867
		C443.013,146.397,435.826,138.51,426.779,131.562z"/>
	<path fill="#BF5151" d="M245.518,146.227c2.527-19.555,9.91-25.692,27.288-23.254c-17.576,3.266-20.984,6.902-25.009,26.507
		c-4.437-0.976-8.89-1.956-14.797-3.253C237.928,146.227,241.567,146.227,245.518,146.227z"/>
	<path fill="#BF5151" d="M388.25,230.182c0.197,6.989-0.235,13.742-5.676,17.487c0.842-6.773,1.794-14.391,2.744-22.007
		c-0.46-0.109-0.92-0.222-1.381-0.331c1.493,1.685,2.983,3.367,4.469,5.042C388.396,230.365,388.25,230.182,388.25,230.182z"/>
	<path fill="#BF5151" d="M287.39,195.595c8.107-17.905,17.056-22.638,29.333-15.562c-6.004-1.46-12.304-3.292-17.346,1.575
		C295.075,185.758,291.532,190.696,287.39,195.595z"/>
	<path fill="#BF5151" d="M377.949,165.248c-0.041,8.931,9.41,3.492,11.639,8.188c-3.25-0.484-7.128-1.061-10.793-1.604
		c-2.661,3.501-5.14,6.763-7.617,10.021c-0.276-0.229-0.55-0.456-0.826-0.681C372.853,175.929,375.354,170.689,377.949,165.248z"/>
	<path fill="#BF5151" d="M317.221,267.576c7.934-2.682,15.514-5.244,23.137-7.821C334.617,267.702,326.179,267.967,317.221,267.576z
		"/>
	<path fill="#BF5151" d="M460.661,143.61c2.038,0.24,4.001,0.474,7.155,0.844c-1.853,0.798-2.713,1.167-3.012,1.299
		c-0.417,5.253-0.811,10.258-1.207,15.265c-0.275-0.054-0.554-0.107-0.831-0.162C462.081,155.251,461.398,149.644,460.661,143.61z"
		/>
	<path fill="#BF5151" d="M283.621,214.089c-4.014-3.365-8.031-6.732-12.5-10.478c4.82-1.631,8.575-2.901,12.332-4.168
		c0.093,0.154,0.187,0.309,0.28,0.465c-2.372,1.344-4.744,2.689-8.191,4.643c3.08,2.943,6.026,5.758,8.966,8.571
		C284.213,213.446,283.917,213.767,283.621,214.089z"/>
</g>
</svg>
