<?xml version="1.0" encoding="utf-8"?>
<!-- Generator: Adobe Illustrator 16.0.0, SVG Export Plug-In . SVG Version: 6.00 Build 0)  -->
<!DOCTYPE svg PUBLIC "-//W3C//DTD SVG 1.1//EN" "http://www.w3.org/Graphics/SVG/1.1/DTD/svg11.dtd">
<svg version="1.1" id="Layer_1" xmlns="http://www.w3.org/2000/svg" xmlns:xlink="http://www.w3.org/1999/xlink" x="0px" y="0px"
	 width="632px" height="369px" viewBox="0 0 632 369" enable-background="new 0 0 632 369" xml:space="preserve">
<g>
	<circle opacity="0.5" fill="#FF6B6B" cx="449" cy="185" r="181"/>
	<g>
		<path fill="#111111" d="M393.018,198v-29.11h9.472c9.185,0,13.735,6.478,13.735,14.514c0,8.815-5.33,14.596-13.735,14.596H393.018
			z M402.489,170.202h-8.077v26.486h8.077c8.118,0,12.341-5.74,12.341-13.284C414.83,175.737,410.402,170.202,402.489,170.202z"/>
		<path fill="#111111" d="M420.283,187.217c0-5.986,4.469-10.865,10.209-10.865c5.821,0,10.332,4.961,10.373,10.988
			c0,0.123-0.041,0.574-0.041,0.615h-19.106c0.368,5.248,4.305,9.266,8.979,9.266c3.156,0,6.19-1.763,7.338-4.305l1.271,0.328
			c-1.23,2.993-4.838,5.166-8.65,5.166C424.875,198.41,420.283,193.326,420.283,187.217z M439.471,186.766
			c-0.369-5.371-4.141-9.184-8.938-9.184c-4.798,0-8.57,3.895-8.856,9.184H439.471z"/>
		<path fill="#111111" d="M443.693,195.048l0.779-0.943c2.255,2.091,4.592,3.116,7.544,3.116c3.978,0,6.683-1.804,6.683-4.838
			c0-2.87-2.501-3.608-7.134-4.715c-4.675-1.107-6.888-1.763-6.888-5.166c0-4.223,3.525-6.15,7.625-6.15
			c3.404,0,6.027,1.271,7.176,3.034l-0.943,0.697c-1.188-1.64-3.73-2.542-6.355-2.542c-3.361,0-6.149,1.435-6.149,4.756
			c0,2.665,1.722,3.198,5.822,4.141c5.207,1.23,8.241,2.091,8.241,5.781c0,3.772-3.198,6.191-8.036,6.191
			C448.777,198.41,445.866,197.303,443.693,195.048z"/>
		<path fill="#111111" d="M465.054,171.514v-3.444h1.394v3.444H465.054z M465.054,198v-21.32h1.394V198H465.054z"/>
		<path fill="#111111" d="M471.572,187.422c0-5.781,4.06-11.07,9.881-11.07c3.813,0,6.561,2.296,8.57,5.167v-4.838h1.312v21.977
			c0,5.74-4.634,8.487-9.718,8.487c-5.002,0-7.625-2.009-9.307-5.002l1.025-0.574c1.722,3.034,4.92,4.346,8.281,4.346
			c4.511,0,8.324-2.46,8.324-7.257v-5.002c-1.764,2.788-5.003,4.715-8.201,4.715C475.836,198.369,471.572,192.916,471.572,187.422z
			 M489.941,190.948v-7.339c-1.313-3.444-4.839-5.945-8.324-5.945c-5.453,0-8.65,5.084-8.65,9.758c0,5.125,3.977,9.676,9.02,9.676
			C485.8,197.098,489.613,193.859,489.941,190.948z"/>
		<path fill="#111111" d="M514.828,198h-1.395v-11.89c0-5.822-1.559-8.446-5.166-8.446c-3.895,0-7.831,2.993-8.979,7.011V198h-1.394
			v-21.32h1.312v5.33c1.763-3.362,5.494-5.658,9.308-5.658c4.469,0,6.314,3.239,6.314,9.594V198z"/>
	</g>
</g>
<g>
	<circle opacity="0.5" fill="#4ECDC4" cx="185" cy="185" r="181"/>
	<g>
		<path fill="#111111" d="M109.709,198v-29.11h9.471c9.184,0,13.735,6.478,13.735,14.514c0,8.815-5.33,14.596-13.735,14.596H109.709
			z M119.18,170.202h-8.077v26.486h8.077c8.118,0,12.341-5.74,12.341-13.284C131.521,175.737,127.093,170.202,119.18,170.202z"/>
		<path fill="#111111" d="M136.974,187.217c0-5.986,4.469-10.865,10.209-10.865c5.822,0,10.332,4.961,10.373,10.988
			c0,0.123-0.041,0.574-0.041,0.615h-19.106c0.369,5.248,4.305,9.266,8.979,9.266c3.157,0,6.191-1.763,7.339-4.305l1.271,0.328
			c-1.23,2.993-4.838,5.166-8.651,5.166C141.565,198.41,136.974,193.326,136.974,187.217z M156.162,186.766
			c-0.369-5.371-4.141-9.184-8.938-9.184c-4.797,0-8.569,3.895-8.856,9.184H156.162z"/>
		<path fill="#111111" d="M168.379,198l-9.102-21.32h1.476l8.323,19.721l8.323-19.721h1.435L169.732,198H168.379z"/>
		<path fill="#111111" d="M181.622,187.217c0-5.986,4.469-10.865,10.209-10.865c5.822,0,10.332,4.961,10.373,10.988
			c0,0.123-0.041,0.574-0.041,0.615h-19.106c0.369,5.248,4.305,9.266,8.979,9.266c3.157,0,6.191-1.763,7.339-4.305l1.271,0.328
			c-1.23,2.993-4.838,5.166-8.651,5.166C186.214,198.41,181.622,193.326,181.622,187.217z M200.81,186.766
			c-0.369-5.371-4.141-9.184-8.938-9.184c-4.797,0-8.569,3.895-8.856,9.184H200.81z"/>
		<path fill="#111111" d="M207.083,168.07h1.353v26.281c0,1.599,1.066,2.583,2.665,2.583c0.615,0,1.558-0.164,2.255-0.41
			l0.328,1.148c-0.82,0.287-2.255,0.533-3.116,0.533c-2.091,0-3.485-1.394-3.485-3.567V168.07z"/>
		<path fill="#111111" d="M215.119,187.422c0-5.986,4.592-11.07,10.25-11.07c5.699,0,10.291,5.084,10.291,11.07
			c0,5.945-4.551,10.988-10.291,10.988C219.587,198.41,215.119,193.367,215.119,187.422z M225.328,197.098
			c4.838,0,8.897-4.428,8.897-9.717s-4.059-9.717-8.856-9.717c-4.797,0-8.856,4.469-8.856,9.799
			C216.513,192.752,220.489,197.098,225.328,197.098z"/>
		<path fill="#111111" d="M242.137,193.244v13.489h-1.394V176.68h1.313v4.428c1.763-2.788,4.961-4.756,8.2-4.756
			c5.986,0,10.25,5.535,10.25,11.029c0,5.904-3.936,11.029-9.84,11.029C246.935,198.41,243.941,196.073,242.137,193.244z
			 M259.071,187.381c0-5.084-3.977-9.717-8.979-9.717c-3.157,0-7.667,2.911-7.954,6.15v7.339c1.435,3.321,4.715,5.945,8.323,5.945
			C255.708,197.098,259.071,192.219,259.071,187.381z"/>
	</g>
</g>
</svg>
