<?xml version="1.0" encoding="utf-8"?>
<!-- Generator: Adobe Illustrator 16.0.0, SVG Export Plug-In . SVG Version: 6.00 Build 0)  -->
<!DOCTYPE svg PUBLIC "-//W3C//DTD SVG 1.1//EN" "http://www.w3.org/Graphics/SVG/1.1/DTD/svg11.dtd">
<svg version="1.1" id="Layer_1" xmlns="http://www.w3.org/2000/svg" xmlns:xlink="http://www.w3.org/1999/xlink" x="0px" y="0px"
	 width="633px" height="297px" viewBox="0 0 633 297" enable-background="new 0 0 633 297" xml:space="preserve">
<g opacity="0.8">
	<polygon fill="#E44D26" points="21.093,261.206 2.921,57.389 202.597,57.389 184.405,261.175 102.637,283.844 	"/>
	<polygon fill="#F16529" points="102.758,266.517 168.833,248.198 184.377,74.054 102.758,74.054 	"/>
	<polygon fill="#EBEBEB" points="102.758,149.646 69.68,149.646 67.396,124.05 102.758,124.05 102.758,99.052 102.672,99.052 
		40.077,99.052 40.675,105.758 46.819,174.645 102.758,174.645 	"/>
	<polygon fill="#EBEBEB" points="102.758,214.567 102.648,214.598 74.809,207.08 73.029,187.143 59.501,187.143 47.937,187.143 
		51.438,226.392 102.644,240.607 102.758,240.576 	"/>
	<path d="M21.499,2h12.703v12.551h11.621V2h12.704v38.007H45.823V27.28H34.202v12.727H21.499L21.499,2L21.499,2z"/>
	<path d="M75.231,14.604H64.048V2h35.076v12.604H87.936v25.403H75.232L75.231,14.604L75.231,14.604z"/>
	<path d="M104.691,2h13.246l8.148,13.354L134.226,2h13.251v38.007h-12.651V21.168l-8.74,13.514h-0.219l-8.745-13.514v18.839h-12.43
		V2z"/>
	<path d="M153.798,2h12.707v25.445h17.865v12.562h-30.572V2z"/>
	<polygon fill="#FFFFFF" points="102.672,149.646 102.672,174.645 133.454,174.645 130.552,207.063 102.672,214.589 
		102.672,240.595 153.918,226.392 154.293,222.17 160.168,156.359 160.778,149.646 154.042,149.646 	"/>
	<polygon fill="#FFFFFF" points="102.672,99.052 102.672,114.576 102.672,123.987 102.672,124.05 162.972,124.05 162.972,124.05 
		163.053,124.05 163.554,118.43 164.693,105.758 165.291,99.052 	"/>
</g>
<g opacity="0.8">
	<polygon fill="#E4A227" points="450.789,260.854 432.647,57.363 632,57.363 613.84,260.82 532.202,283.453 	"/>
	<polygon fill="#F0BF26" points="532.156,265.902 598.122,247.614 613.645,73.752 532.156,73.752 	"/>
	<g>
		<polygon fill="#151515" points="567.802,12.418 551.254,12.418 568.462,31.092 568.462,39.978 533.019,39.978 533.019,29.572 
			550.224,29.572 533.019,10.902 533.019,2 567.802,2 		"/>
		<path fill="#020202" d="M526.708,2.017v37.946h-30.523V27.42h17.836V2.017H526.708L526.708,2.017z"/>
	</g>
	<polygon fill="#EBEBEB" points="532.118,214.053 532.01,214.085 504.214,206.58 502.437,186.676 488.933,186.676 477.385,186.676 
		480.881,225.861 532.003,240.053 532.118,240.021 	"/>
	<polygon fill="#EBEBEB" points="535.479,174.185 535.479,149.228 504.748,149.228 508.353,110.06 535.55,109.335 535.479,83.383 
		485.788,83.383 483.941,101.778 478.075,167.482 477.469,174.185 484.192,174.185 	"/>
	<polygon fill="#FFFFFF" points="535.311,109.369 535.42,109.339 562.679,110.979 564.991,136.748 578.495,136.748 590.044,136.748 
		585.678,88.528 535.426,83.372 535.311,83.402 	"/>
	<polyline fill="#FFFFFF" points="587.471,109.446 585.332,83.383 532.651,83.383 532.651,99.568 532.651,109.382 532.651,109.446 
		587.471,109.446 	"/>
	<polygon fill="#FFFFFF" points="532.031,149.239 532.031,174.196 562.763,174.196 559.866,206.562 532.031,214.076 
		532.031,240.042 583.194,225.861 583.569,221.646 589.435,155.94 590.044,149.239 583.318,149.239 	"/>
	<path fill="#FFFFFF" d="M584.265,108.342"/>
</g>
<g opacity="0.8">
	<g>
		<polygon fill="#151515" points="372.584,12.44 356.71,12.44 373.218,31.148 373.218,40.053 339.218,40.053 339.218,29.627 
			355.721,29.627 339.218,10.918 339.218,2 372.584,2 		"/>
		<polygon fill="#151515" points="332.479,12.44 316.605,12.44 333.112,31.148 333.112,40.053 299.112,40.053 299.112,29.627 
			315.617,29.627 299.112,10.918 299.112,2 332.479,2 		"/>
		<polygon fill="#151515" points="292.765,12.863 275.638,12.863 275.638,29.19 292.765,29.19 292.765,40.053 263.464,40.053 
			263.464,2 292.765,2 		"/>
	</g>
	<polygon fill="#1673B6" points="240.124,261.313 222.72,57.424 413.962,57.424 396.54,261.279 318.223,283.955 	"/>
	<polygon fill="#35A9DB" points="318.341,266.623 381.625,248.298 396.513,74.096 318.341,74.096 	"/>
	<g>
		<polygon fill="#FFFFFF" points="318.341,147.963 350.022,147.963 352.209,122.355 318.341,122.355 318.341,97.351 318.424,97.351 
			378.374,97.351 377.801,104.06 371.917,172.967 318.341,172.967 		"/>
		<polygon fill="#EBEBEB" points="318.484,212.903 318.38,212.935 291.715,205.414 290.011,185.472 277.056,185.472 
			265.979,185.472 269.333,224.734 318.374,238.954 318.484,238.922 		"/>
		<polygon fill="#FFFFFF" points="347.987,171.908 345.104,205.397 318.402,212.926 318.402,238.941 367.482,224.734 
			367.844,220.51 372.008,171.908 		"/>
		<polygon fill="#EBEBEB" points="318.424,97.351 318.424,112.881 318.424,122.296 318.424,122.355 260.671,122.355 
			260.671,122.355 260.593,122.355 260.114,116.736 259.022,104.06 258.45,97.351 		"/>
		<polygon fill="#EBEBEB" points="318.341,147.966 318.341,163.497 318.341,172.909 318.341,172.971 292.09,172.971 292.09,172.971 
			292.015,172.971 291.535,167.352 290.444,154.674 289.871,147.966 		"/>
	</g>
</g>
</svg>
