<?xml version="1.0" encoding="utf-8"?>
<!-- Generator: Adobe Illustrator 16.0.0, SVG Export Plug-In . SVG Version: 6.00 Build 0)  -->
<!DOCTYPE svg PUBLIC "-//W3C//DTD SVG 1.1//EN" "http://www.w3.org/Graphics/SVG/1.1/DTD/svg11.dtd">
<svg version="1.1" id="Layer_1" xmlns="http://www.w3.org/2000/svg" xmlns:xlink="http://www.w3.org/1999/xlink" x="0px" y="0px"
	 width="631px" height="337px" viewBox="0 0 631 337" enable-background="new 0 0 631 337" xml:space="preserve">
<path opacity="0.7" fill="#464342" d="M313.609,6.109c-89.051,0-161.5,72.446-161.5,161.496c0,89.051,72.449,161.505,161.5,161.505
	c89.048,0,161.5-72.454,161.5-161.505C475.109,78.556,402.657,6.109,313.609,6.109z M168.408,167.605
	c0-21.052,4.516-41.035,12.574-59.094l69.264,189.77C201.805,274.75,168.408,225.077,168.408,167.605z M313.609,312.814
	c-14.253,0-28.01-2.089-41.022-5.916l43.571-126.592l44.629,122.275c0.293,0.719,0.654,1.379,1.039,2.002
	C346.734,309.896,330.518,312.814,313.609,312.814z M333.62,99.526c8.74-0.459,16.617-1.379,16.617-1.379
	c7.824-0.926,6.901-12.425-0.926-11.966c0,0-23.519,1.846-38.701,1.846c-14.268,0-38.241-1.846-38.241-1.846
	c-7.831-0.459-8.749,11.502-0.921,11.966c0,0,7.407,0.92,15.229,1.379l22.621,61.984l-31.78,95.298L224.645,99.526
	c8.749-0.459,16.618-1.379,16.618-1.379c7.819-0.926,6.895-12.425-0.929-11.966c0,0-23.514,1.846-38.698,1.846
	c-2.726,0-5.937-0.066-9.345-0.177c25.962-39.415,70.589-65.446,121.319-65.446c37.8,0,72.218,14.453,98.05,38.124
	c-0.626-0.038-1.236-0.118-1.881-0.118c-14.263,0-24.383,12.427-24.383,25.771c0,11.966,6.904,22.09,14.263,34.057
	c5.522,9.669,11.971,22.093,11.971,40.044c0,12.425-4.779,26.847-11.048,46.938l-14.486,48.39L333.62,99.526z M441.022,97.945
	c11.334,20.681,17.784,44.414,17.784,69.66c0,53.568-29.031,100.335-72.198,125.504l44.349-128.226
	c8.283-20.715,11.042-37.279,11.042-52.006C441.999,107.53,441.646,102.57,441.022,97.945z"/>
</svg>
